SplineFontDB: 3.0
FontName: Cheluvi
FullName: Cheluvi
FamilyName: Cheluvi
Weight: Normal
Copyright: Copyright (c)2009,2010,2011 Tejaswi <nvtejaswi@gmail.com>, Aravinda VK <hallimanearavind@gmail.com>\n\nA Kannada font created based on Baraha font brhnkd. \n\nLicensed under the GNU General Public License, version 2 (see file COPYING) along with the following exception:\n\n  As a special exception, if you create a document which uses this font, and embed this font or unaltered portions of this font into the document, this font does not by itself cause the resulting document to be covered by the GNU General Public License. This exception does not however invalidate any other reasons why the document might be covered by the GNU General Public License. If you modify this font, you may extend this exception to your version of the font, but you are not obligated to do so. If you do not wish to do so, delete this exception statement from your version.
Version: 1.2
ItalicAngle: 0
UnderlinePosition: -352
UnderlineWidth: 64
Ascent: 1638
Descent: 410
sfntRevision: 0x00013333
LayerCount: 2
Layer: 0 1 "Back"  1
Layer: 1 1 "Fore"  0
XUID: [1021 452 1047128413 7177229]
FSType: 0
OS2Version: 2
OS2_WeightWidthSlopeOnly: 0
OS2_UseTypoMetrics: 1
CreationTime: 1250003949
ModificationTime: 1305889325
PfmFamily: 17
TTFWeight: 500
TTFWidth: 5
LineGap: 224
VLineGap: 0
Panose: 2 0 5 3 0 0 0 0 0 0
OS2TypoAscent: 12
OS2TypoAOffset: 1
OS2TypoDescent: -946
OS2TypoDOffset: 1
OS2TypoLinegap: 224
OS2WinAscent: -58
OS2WinAOffset: 1
OS2WinDescent: 333
OS2WinDOffset: 1
HheadAscent: -58
HheadAOffset: 1
HheadDescent: -333
HheadDOffset: 1
OS2SubXSize: 1331
OS2SubYSize: 1433
OS2SubXOff: 0
OS2SubYOff: 286
OS2SupXSize: 1331
OS2SupYSize: 1433
OS2SupXOff: 0
OS2SupYOff: 983
OS2StrikeYSize: 102
OS2StrikeYPos: 530
OS2Vendor: 'PfEd'
OS2CodePages: 00000001.00000000
OS2UnicodeRanges: 00400001.00000000.00000000.00000000

StartChar: .notdef
Encoding: 0 -1 0
Width: 748
Flags: W
LayerCount: 2
Fore
SplineSet
68 0 m 1,0,-1
 68 1365 l 1,1,-1
 612 1365 l 1,2,-1
 612 0 l 1,3,-1
 68 0 l 1,0,-1
136 68 m 1,4,-1
 544 68 l 1,5,-1
 544 1297 l 1,6,-1
 136 1297 l 1,7,-1
 136 68 l 1,4,-1
EndSplineSet
Validated: 1
EndChar

StartChar: exclam
Encoding: 4 33 4
Width: 722
GlyphClass: 2
Flags: W
LayerCount: 2
Fore
SplineSet
655 1368 m 2,0,-1
 565 402 l 1,1,-1
 500 402 l 1,2,-1
 415 1368 l 2,3,4
 414 1373 414 1373 414 1378 c 0,5,6
 414 1419 414 1419 448 1450 c 0,7,8
 488 1485 488 1485 538 1485 c 128,-1,9
 588 1485 588 1485 625 1450 c 1,10,11
 656 1419 656 1419 656 1379 c 0,12,13
 656 1373 656 1373 655 1368 c 2,0,-1
675 130 m 0,14,15
 675 68 675 68 632 32 c 0,16,17
 592 -2 592 -2 528 -2 c 0,18,19
 382 -2 382 -2 382 130 c 0,20,21
 382 198 382 198 428 240 c 0,22,23
 470 278 470 278 530 278 c 128,-1,24
 590 278 590 278 630 240 c 0,25,26
 675 198 675 198 675 130 c 0,14,15
EndSplineSet
Validated: 1
EndChar

StartChar: quotedbl
Encoding: 5 34 5
Width: 625
GlyphClass: 2
Flags: W
LayerCount: 2
Fore
SplineSet
312 1402 m 1,0,1
 128 1272 128 1272 128 1100 c 1,2,3
 145 1102 145 1102 162 1102 c 0,4,5
 310 1102 310 1102 310 970 c 0,6,7
 310 905 310 905 270 868 c 1,8,9
 225 828 225 828 168 828 c 0,10,11
 105 828 105 828 60 870 c 1,12,13
 12 918 12 918 12 1005 c 0,14,15
 12 1290 12 1290 275 1438 c 1,16,-1
 312 1402 l 1,0,1
EndSplineSet
Validated: 1
EndChar

StartChar: percent
Encoding: 7 37 7
Width: 1675
GlyphClass: 2
Flags: W
LayerCount: 2
Fore
SplineSet
1335 748 m 0,0,1
 1558 748 1558 748 1558 528 c 0,2,3
 1558 342 1558 342 1448 180 c 0,4,5
 1325 0 1325 0 1152 0 c 0,6,7
 905 0 905 0 905 278 c 0,8,9
 905 442 905 442 1038 592 c 1,10,11
 1172 748 1172 748 1335 748 c 0,0,1
1362 682 m 0,12,13
 1235 682 1235 682 1135 480 c 1,14,15
 1058 318 1058 318 1058 215 c 0,16,17
 1058 60 1058 60 1185 60 c 0,18,19
 1310 60 1310 60 1410 222 c 0,20,21
 1502 370 1502 370 1502 512 c 0,22,23
 1502 585 1502 585 1462 632 c 1,24,25
 1425 682 1425 682 1362 682 c 0,12,13
1278 1362 m 1,26,-1
 500 -25 l 1,27,-1
 405 -25 l 1,28,-1
 1110 1225 l 1,29,-1
 1105 1232 l 1,30,31
 1005 1175 1005 1175 890 1175 c 0,32,33
 822 1175 822 1175 760 1192 c 1,34,35
 772 1152 772 1152 772 1105 c 0,36,37
 772 925 772 925 662 762 c 0,38,39
 540 580 540 580 358 580 c 0,40,41
 272 580 272 580 208 642 c 1,42,43
 125 718 125 718 125 858 c 0,44,45
 125 1020 125 1020 250 1170 c 1,46,47
 385 1335 385 1335 558 1335 c 0,48,49
 642 1335 642 1335 710 1280 c 128,-1,50
 778 1225 778 1225 882 1225 c 0,51,52
 995 1225 995 1225 1080 1270 c 0,53,54
 1128 1295 1128 1295 1198 1362 c 1,55,-1
 1278 1362 l 1,26,-1
400 650 m 0,56,57
 520 650 520 650 622 798 c 1,58,59
 722 945 722 945 722 1112 c 0,60,61
 722 1158 722 1158 705 1210 c 1,62,63
 632 1228 632 1228 602 1255 c 1,64,65
 580 1272 580 1272 568 1272 c 0,66,67
 470 1272 470 1272 370 1100 c 1,68,69
 278 935 278 935 278 802 c 0,70,71
 278 650 278 650 400 650 c 0,56,57
EndSplineSet
Validated: 1
EndChar

StartChar: quotesingle
Encoding: 8 39 8
Width: 625
GlyphClass: 2
Flags: W
LayerCount: 2
Fore
SplineSet
580 1198 m 0,0,1
 580 912 580 912 318 770 c 1,2,-1
 278 802 l 1,3,4
 465 932 465 932 465 1105 c 1,5,6
 448 1105 448 1105 428 1105 c 0,7,8
 282 1105 282 1105 282 1232 c 0,9,10
 282 1300 282 1300 328 1342 c 1,11,12
 370 1382 370 1382 425 1382 c 0,13,14
 488 1382 488 1382 530 1335 c 1,15,16
 580 1288 580 1288 580 1198 c 0,0,1
EndSplineSet
Validated: 1
EndChar

StartChar: parenleft
Encoding: 9 40 9
Width: 795
GlyphClass: 2
Flags: W
LayerCount: 2
Fore
SplineSet
575 1362 m 1,0,1
 228 892 228 892 228 378 c 0,2,3
 228 -158 228 -158 570 -575 c 1,4,-1
 550 -598 l 1,5,6
 415 -490 415 -490 318 -358 c 1,7,8
 85 -32 85 -32 85 378 c 128,-1,9
 85 788 85 788 318 1122 c 0,10,11
 415 1260 415 1260 550 1372 c 1,12,-1
 575 1362 l 1,0,1
EndSplineSet
Validated: 1
EndChar

StartChar: parenright
Encoding: 10 41 10
Width: 795
GlyphClass: 2
Flags: W
LayerCount: 2
Fore
SplineSet
742 378 m 128,-1,1
 742 -32 742 -32 512 -358 c 1,2,3
 415 -490 415 -490 278 -598 c 1,4,-1
 255 -575 l 1,5,6
 600 -158 600 -158 600 378 c 0,7,8
 600 892 600 892 252 1362 c 1,9,-1
 278 1372 l 1,10,11
 415 1260 415 1260 512 1122 c 1,12,0
 742 788 742 788 742 378 c 128,-1,1
EndSplineSet
Validated: 1
EndChar

StartChar: asterisk
Encoding: 11 42 11
Width: 1005
GlyphClass: 2
Flags: W
LayerCount: 2
Fore
SplineSet
138 770 m 0,0,1
 138 840 138 840 242 862 c 1,2,3
 398 900 398 900 470 950 c 1,4,-1
 450 962 l 2,5,6
 405 990 405 990 242 1030 c 0,7,8
 138 1055 138 1055 138 1122 c 0,9,10
 138 1150 138 1150 158 1170 c 1,11,12
 178 1192 178 1192 208 1192 c 0,13,14
 250 1192 250 1192 310 1125 c 1,15,16
 388 1032 388 1032 488 980 c 1,17,-1
 488 1005 l 2,18,19
 488 1095 488 1095 462 1172 c 1,20,21
 438 1248 438 1248 438 1285 c 0,22,23
 438 1362 438 1362 510 1362 c 0,24,25
 580 1362 580 1362 580 1285 c 0,26,27
 580 1265 580 1265 552.5 1176.5 c 128,-1,28
 525 1088 525 1088 525 1030 c 2,29,-1
 525 975 l 1,30,-1
 540 982 l 1,31,32
 602 1018 602 1018 688 1118 c 1,33,34
 758 1192 758 1192 795 1192 c 0,35,36
 870 1192 870 1192 870 1122 c 0,37,38
 870 1065 870 1065 830 1048 c 1,39,-1
 718 1022 l 2,40,41
 625 1000 625 1000 540 948 c 1,42,-1
 558 935 l 1,43,44
 625 895 625 895 775 862 c 1,45,46
 872 842 872 842 872 780 c 0,47,48
 872 705 872 705 798 705 c 0,49,50
 752 705 752 705 682 790 c 0,51,52
 600 888 600 888 540 912 c 1,53,-1
 525 920 l 1,54,-1
 525 905 l 2,55,56
 525 790 525 790 552.5 711 c 128,-1,57
 580 632 580 632 580 620 c 0,58,59
 580 585 580 585 560 562 c 1,60,61
 538 532 538 532 500 532 c 0,62,63
 475 532 475 532 452.5 555 c 128,-1,64
 430 578 430 578 430 612 c 0,65,66
 430 635 430 635 460 722 c 0,67,68
 490 808 490 808 490 870 c 0,69,70
 490 888 490 888 488 905 c 1,71,-1
 482 920 l 1,72,73
 382 855 382 855 330 792 c 1,74,75
 282 740 282 740 278 735 c 1,76,77
 245 708 245 708 208 708 c 0,78,79
 138 708 138 708 138 770 c 0,0,1
EndSplineSet
Validated: 1
EndChar

StartChar: plus
Encoding: 12 43 12
Width: 1132
GlyphClass: 2
Flags: W
LayerCount: 2
Fore
SplineSet
500 578 m 1,0,-1
 500 1020 l 1,1,-1
 632 1020 l 1,2,-1
 632 578 l 1,3,-1
 1075 578 l 1,4,-1
 1075 442 l 1,5,-1
 632 442 l 1,6,-1
 632 0 l 1,7,-1
 500 0 l 1,8,-1
 500 442 l 1,9,-1
 60 442 l 1,10,-1
 60 578 l 1,11,-1
 500 578 l 1,0,-1
EndSplineSet
Validated: 1
EndChar

StartChar: comma
Encoding: 13 44 13
Width: 625
GlyphClass: 2
Flags: W
LayerCount: 2
Fore
SplineSet
580 95 m 0,0,1
 580 -190 580 -190 318 -335 c 1,2,-1
 278 -302 l 1,3,4
 465 -170 465 -170 465 2 c 1,5,-1
 455 2 l 2,6,7
 442 2 442 2 432 2 c 0,8,9
 282 2 282 2 282 128 c 0,10,11
 282 198 282 198 328 238 c 0,12,13
 368 272 368 272 430 272 c 0,14,15
 490 272 490 272 530 230 c 1,16,17
 580 180 580 180 580 95 c 0,0,1
EndSplineSet
Validated: 1
EndChar

StartChar: period
Encoding: 15 46 15
Width: 625
GlyphClass: 2
Flags: W
LayerCount: 2
Fore
SplineSet
520 135 m 0,0,1
 520 70 520 70 478 32 c 1,2,3
 438 0 438 0 375 0 c 0,4,5
 230 0 230 0 230 135 c 0,6,7
 230 202 230 202 278 242 c 1,8,9
 318 278 318 278 378 278 c 128,-1,10
 438 278 438 278 478 242 c 1,11,12
 520 202 520 202 520 135 c 0,0,1
EndSplineSet
Validated: 1
EndChar

StartChar: slash
Encoding: 16 47 16
Width: 625
GlyphClass: 2
Flags: W
LayerCount: 2
Fore
SplineSet
588 1318 m 1,0,-1
 148 -150 l 1,1,-1
 72 -150 l 1,2,-1
 510 1318 l 1,3,-1
 588 1318 l 1,0,-1
EndSplineSet
Validated: 1
EndChar

StartChar: zero
Encoding: 17 48 17
Width: 1257
GlyphClass: 2
Flags: W
LayerCount: 2
Fore
SplineSet
1085 668 m 0,0,1
 1085 418 1085 418 998 230 c 1,2,3
 875 -28 875 -28 630 -28 c 128,-1,4
 385 -28 385 -28 265 230 c 1,5,6
 175 418 175 418 175 668 c 0,7,8
 175 912 175 912 265 1105 c 0,9,10
 385 1362 385 1362 630 1362 c 0,11,12
 872 1362 872 1362 998 1105 c 1,13,14
 1085 912 1085 912 1085 668 c 0,0,1
890 667.5 m 128,-1,16
 890 1310 890 1310 630 1310 c 0,17,18
 368 1310 368 1310 368 667.5 c 128,-1,19
 368 25 368 25 630 25 c 0,20,15
 890 25 890 25 890 667.5 c 128,-1,16
EndSplineSet
Validated: 1
EndChar

StartChar: one
Encoding: 18 49 18
Width: 1257
GlyphClass: 2
Flags: W
LayerCount: 2
Fore
SplineSet
895 0 m 1,0,-1
 338 0 l 1,1,-1
 338 30 l 1,2,3
 445 35 445 35 478 55 c 0,4,5
 530 88 530 88 530 188 c 2,6,-1
 530 1100 l 2,7,8
 530 1192 530 1192 462 1192 c 0,9,10
 438 1192 438 1192 325 1150 c 1,11,-1
 325 1180 l 1,12,-1
 688 1362 l 1,13,-1
 702 1358 l 1,14,-1
 702 150 l 2,15,16
 702 78 702 78 740 52 c 1,17,18
 780 30 780 30 895 30 c 1,19,-1
 895 0 l 1,0,-1
EndSplineSet
Validated: 1
EndChar

StartChar: two
Encoding: 19 50 19
Width: 1257
GlyphClass: 2
Flags: W
LayerCount: 2
Fore
SplineSet
1082 278 m 1,0,-1
 970 0 l 1,1,-1
 188 0 l 1,2,-1
 188 25 l 1,3,-1
 545 405 l 2,4,5
 808 685 808 685 808 922 c 0,6,7
 808 1030 808 1030 752 1110 c 1,8,9
 678 1212 678 1212 518 1212 c 0,10,11
 398 1212 398 1212 322 1122 c 0,12,13
 280 1072 280 1072 230 952 c 1,14,-1
 190 962 l 1,15,16
 232 1170 232 1170 358 1275 c 1,17,18
 465 1362 465 1362 615 1362 c 0,19,20
 760 1362 760 1362 865 1265 c 0,21,22
 980 1160 980 1160 980 1000 c 0,23,24
 980 778 980 778 722 510 c 1,25,-1
 382 152 l 1,26,-1
 868 152 l 2,27,28
 928 152 928 152 960 172 c 0,29,30
 1002 198 1002 198 1058 288 c 1,31,-1
 1082 278 l 1,0,-1
EndSplineSet
Validated: 1
EndChar

StartChar: three
Encoding: 20 51 20
Width: 1257
GlyphClass: 2
Flags: W
LayerCount: 2
Fore
SplineSet
1020 438 m 0,0,1
 1020 225 1020 225 860 95 c 1,2,3
 705 -28 705 -28 462 -28 c 0,4,5
 390 -28 390 -28 330 -10 c 1,6,7
 238 20 238 20 238 87.5 c 128,-1,8
 238 155 238 155 318 155 c 0,9,10
 358 155 358 155 450 100 c 1,11,12
 542 48 542 48 605 48 c 0,13,14
 735 48 735 48 808 145 c 0,15,16
 872 230 872 230 872 355 c 0,17,18
 872 415 872 415 848 480 c 1,19,20
 808 575 808 575 720 620 c 0,21,22
 631 665 631 665 487 665 c 0,23,24
 472 665 472 665 458 665 c 1,25,-1
 458 690 l 1,26,27
 792 802 792 802 792 1032 c 0,28,29
 792 1118 792 1118 738 1175 c 0,30,31
 675 1242 675 1242 570 1242 c 0,32,33
 390 1242 390 1242 272 1030 c 1,34,-1
 242 1035 l 1,35,36
 342 1362 342 1362 638 1362 c 0,37,38
 808 1362 808 1362 892 1258 c 1,39,40
 952 1182 952 1182 952 1090 c 0,41,42
 952 930 952 930 762 808 c 1,43,44
 872 758 872 758 922 708 c 0,45,46
 1020 608 1020 608 1020 438 c 0,0,1
EndSplineSet
Validated: 1
EndChar

StartChar: four
Encoding: 21 52 21
Width: 1257
GlyphClass: 2
Flags: W
LayerCount: 2
Fore
SplineSet
1080 465 m 1,0,-1
 1080 338 l 1,1,-1
 872 338 l 1,2,-1
 872 0 l 1,3,-1
 715 0 l 1,4,-1
 715 338 l 1,5,-1
 150 338 l 1,6,-1
 150 465 l 1,7,-1
 782 1362 l 1,8,-1
 872 1362 l 1,9,-1
 872 465 l 1,10,-1
 1080 465 l 1,0,-1
715 465 m 1,11,-1
 715 1150 l 1,12,-1
 710 1150 l 1,13,-1
 230 465 l 1,14,-1
 715 465 l 1,11,-1
EndSplineSet
Validated: 1
EndChar

StartChar: five
Encoding: 22 53 22
Width: 1257
GlyphClass: 2
Flags: W
LayerCount: 2
Fore
SplineSet
1032 1372 m 1,0,-1
 958 1192 l 2,1,2
 952 1175 952 1175 912 1175 c 2,3,-1
 518 1175 l 1,4,-1
 430 1002 l 1,5,6
 605 970 605 970 682 945 c 1,7,8
 822 892 822 892 902 795 c 0,9,10
 970 712 970 712 992 638 c 0,11,12
 1010 578 1010 578 1010 452 c 0,13,14
 1010 250 1010 250 860 112 c 1,15,16
 705 -28 705 -28 470 -28 c 0,17,18
 352 -28 352 -28 282 5 c 1,19,20
 215 38 215 38 215 92 c 0,21,22
 215 172 215 172 298 172 c 0,23,24
 362 172 362 172 450 110 c 1,25,26
 535 48 535 48 590 48 c 0,27,28
 700 48 700 48 778 132 c 0,29,30
 870 232 870 232 870 405 c 0,31,32
 870 620 870 620 662 735 c 0,33,34
 510 820 510 820 295 832 c 1,35,36
 275 832 275 832 282 858 c 1,37,-1
 500 1335 l 1,38,-1
 922 1335 l 2,39,40
 978 1335 978 1335 1015 1385 c 1,41,-1
 1032 1372 l 1,0,-1
EndSplineSet
Validated: 1
EndChar

StartChar: six
Encoding: 23 54 23
Width: 1257
GlyphClass: 2
Flags: W
LayerCount: 2
Fore
SplineSet
1070 438 m 0,0,1
 1070 278 1070 278 990 150 c 1,2,3
 872 -28 872 -28 638 -28 c 0,4,5
 448 -28 448 -28 328 122 c 1,6,7
 192 288 192 288 192 588 c 0,8,9
 192 900 192 900 425 1130 c 0,10,11
 665 1368 665 1368 1025 1375 c 1,12,-1
 1030 1345 l 1,13,14
 775 1305 775 1305 610 1130 c 0,15,16
 465 975 465 975 432 770 c 1,17,18
 518 825 518 825 555 838 c 1,19,20
 612 860 612 860 698 860 c 0,21,22
 862 860 862 860 962 752 c 1,23,24
 1070 638 1070 638 1070 438 c 0,0,1
888 362 m 0,25,26
 888 770 888 770 615 770 c 0,27,28
 490 770 490 770 425 705 c 1,29,30
 382 665 382 665 382 518 c 0,31,32
 382 275 382 275 470 145 c 1,33,34
 545 28 545 28 668 28 c 0,35,36
 768 28 768 28 825 110 c 1,37,38
 888 198 888 198 888 362 c 0,25,26
EndSplineSet
Validated: 1
EndChar

StartChar: seven
Encoding: 24 55 24
Width: 1257
GlyphClass: 2
Flags: W
LayerCount: 2
Fore
SplineSet
1055 1302 m 1,0,-1
 630 -15 l 1,1,-1
 500 -15 l 1,2,-1
 895 1185 l 1,3,-1
 458 1185 l 2,4,5
 370 1185 370 1185 318 1142 c 0,6,7
 285 1115 285 1115 228 1022 c 1,8,-1
 190 1038 l 1,9,-1
 278 1245 l 1,10,-1
 310 1335 l 1,11,-1
 1055 1335 l 1,12,-1
 1055 1302 l 1,0,-1
EndSplineSet
Validated: 1
EndChar

StartChar: eight
Encoding: 25 56 25
Width: 1257
GlyphClass: 2
Flags: W
LayerCount: 2
Fore
SplineSet
1022 303 m 128,-1,1
 1022 188 1022 188 950 100 c 1,2,3
 842 -28 842 -28 620 -28 c 0,4,5
 448 -28 448 -28 338 72 c 1,6,7
 238 168 238 168 238 295 c 0,8,9
 238 415 238 415 305 495 c 1,10,11
 345 550 345 550 500 670 c 1,12,13
 352 800 352 800 312 855 c 0,14,15
 252 938 252 938 252 1050 c 0,16,17
 252 1192 252 1192 375 1282 c 1,18,19
 482 1362 482 1362 628 1362 c 0,20,21
 792 1362 792 1362 890 1278 c 1,22,23
 980 1198 980 1198 980 1075 c 0,24,25
 980 955 980 955 888 865 c 1,26,27
 832 815 832 815 710 748 c 1,28,29
 900 612 900 612 968 505 c 1,30,0
 1022 418 1022 418 1022 303 c 128,-1,1
842 1085 m 0,31,32
 842 1175 842 1175 785 1238 c 0,33,34
 725 1305 725 1305 615 1305 c 0,35,36
 510 1305 510 1305 450 1240 c 0,37,38
 400 1185 400 1185 400 1105 c 0,39,40
 400 950 400 950 652 782 c 1,41,42
 738 840 738 840 775 888 c 1,43,44
 842 970 842 970 842 1085 c 0,31,32
870 254 m 128,-1,46
 870 358 870 358 798 435 c 1,47,48
 750 490 750 490 555 630 c 1,49,50
 480 570 480 570 450 522 c 1,51,52
 392 438 392 438 392 315 c 256,53,54
 392 192 392 192 458 112 c 0,55,56
 528 28 528 28 648 28 c 0,57,58
 745 28 745 28 808 88 c 1,59,45
 870 150 870 150 870 254 c 128,-1,46
EndSplineSet
Validated: 1
EndChar

StartChar: nine
Encoding: 26 57 26
Width: 1257
GlyphClass: 2
Flags: W
LayerCount: 2
Fore
SplineSet
1050 798 m 0,0,1
 1050 465 1050 465 838 228 c 0,2,3
 615 -20 615 -20 242 -48 c 1,4,-1
 238 -5 l 1,5,6
 545 48 545 48 722 300 c 1,7,8
 810 430 810 430 848 585 c 1,9,-1
 848 590 l 1,10,11
 712 478 712 478 550 478 c 0,12,13
 368 478 368 478 268 615 c 1,14,15
 188 728 188 728 188 878 c 0,16,17
 188 1082 188 1082 300 1220 c 1,18,19
 418 1362 418 1362 610 1362 c 0,20,21
 798 1362 798 1362 922 1208 c 0,22,23
 1050 1048 1050 1048 1050 798 c 0,0,1
858 715 m 2,24,-1
 858 792 l 2,25,26
 858 1305 858 1305 588 1305 c 0,27,28
 375 1305 375 1305 375 952 c 0,29,30
 375 802 375 802 420 702 c 1,31,32
 488 565 488 565 630 565 c 0,33,34
 738 565 738 565 822 632 c 0,35,36
 858 660 858 660 858 715 c 2,24,-1
EndSplineSet
Validated: 1
EndChar

StartChar: colon
Encoding: 27 58 27
Width: 555
GlyphClass: 2
Flags: W
LayerCount: 2
Fore
SplineSet
275 700 m 0,0,1
 235 700 235 700 202 728 c 1,2,3
 162 758 162 758 162 810 c 0,4,5
 162 858 162 858 198 890 c 1,6,7
 230 922 230 922 275 922 c 0,8,9
 322 922 322 922 356 888.5 c 128,-1,10
 390 855 390 855 390 810 c 0,11,12
 390 758 390 758 348 728 c 1,13,14
 312 700 312 700 275 700 c 0,0,1
275 -25 m 0,15,16
 235 -25 235 -25 202 2 c 0,17,18
 162 35 162 35 162 88 c 0,19,20
 162 135 162 135 198 168 c 1,21,22
 230 202 230 202 275 202 c 0,23,24
 322 202 322 202 355 168 c 0,25,26
 390 132 390 132 390 88 c 0,27,28
 390 35 390 35 348 5 c 1,29,30
 312 -25 312 -25 275 -25 c 0,15,16
EndSplineSet
Validated: 1
EndChar

StartChar: semicolon
Encoding: 28 59 28
Width: 555
GlyphClass: 2
Flags: W
LayerCount: 2
Fore
SplineSet
215 -288 m 1,0,-1
 198 -248 l 1,1,2
 362 -140 362 -140 362 -32 c 0,3,4
 362 -5 362 -5 335 -5 c 0,5,6
 325 -5 325 -5 318 -8 c 0,7,8
 305 -12 305 -12 288 -12 c 0,9,10
 162 -12 162 -12 162 88 c 0,11,12
 162 208 162 208 278 208 c 0,13,14
 332 208 332 208 375 172 c 1,15,16
 440 122 440 122 440 12 c 0,17,18
 440 -82 440 -82 352 -180 c 1,19,20
 282 -260 282 -260 215 -288 c 1,0,-1
275 700 m 0,21,22
 235 700 235 700 202 728 c 1,23,24
 162 758 162 758 162 810 c 0,25,26
 162 858 162 858 198 890 c 1,27,28
 230 922 230 922 275 922 c 0,29,30
 322 922 322 922 356 888.5 c 128,-1,31
 390 855 390 855 390 810 c 0,32,33
 390 758 390 758 348 728 c 1,34,35
 312 700 312 700 275 700 c 0,21,22
EndSplineSet
Validated: 1
EndChar

StartChar: equal
Encoding: 29 61 29
Width: 1257
GlyphClass: 2
Flags: W
LayerCount: 2
Fore
SplineSet
1200 752 m 1,0,-1
 62 752 l 1,1,-1
 62 848 l 1,2,-1
 1200 848 l 1,3,-1
 1200 752 l 1,0,-1
1200 410 m 1,4,-1
 62 410 l 1,5,-1
 62 510 l 1,6,-1
 1200 510 l 1,7,-1
 1200 410 l 1,4,-1
EndSplineSet
Validated: 1
EndChar

StartChar: greater
Encoding: 30 62 30
Width: 752
GlyphClass: 2
Flags: W
LayerCount: 2
Fore
SplineSet
530 -112 m 1,0,-1
 378 0 l 1,1,-1
 378 1300 l 1,2,-1
 530 1185 l 1,3,-1
 530 -112 l 1,0,-1
EndSplineSet
Validated: 1
EndChar

StartChar: question
Encoding: 31 63 31
Width: 1535
GlyphClass: 2
Flags: W
LayerCount: 2
Fore
SplineSet
1432 1352 m 0,0,1
 1432 1198 1432 1198 1318 1072 c 1,2,3
 1272 1025 1272 1025 1100 892 c 0,4,5
 982 802 982 802 982 742 c 0,6,7
 982 575 982 575 1010 465 c 1,8,-1
 950 465 l 1,9,10
 888 585 888 585 888 740 c 0,11,12
 888 815 888 815 982 920 c 2,13,-1
 1158 1118 l 1,14,15
 1248 1242 1248 1242 1248 1370 c 128,-1,16
 1248 1498 1248 1498 1178 1582 c 1,17,18
 1100 1672 1100 1672 970 1672 c 0,19,20
 805 1672 805 1672 710 1580 c 1,21,22
 635 1505 635 1505 635 1415 c 0,23,24
 635 1345 635 1345 700 1275 c 1,25,26
 718 1410 718 1410 808 1410 c 0,27,28
 855 1410 855 1410 888 1375 c 0,29,30
 922 1340 922 1340 922 1292 c 0,31,32
 922 1162 922 1162 785 1158 c 0,33,34
 780 1157 780 1157 774 1157 c 0,35,36
 712 1157 712 1157 652 1210 c 1,37,38
 568 1288 568 1288 568 1425 c 0,39,40
 568 1605 568 1605 705 1702 c 0,41,42
 822 1785 822 1785 998 1785 c 0,43,44
 1190 1785 1190 1785 1312 1660 c 0,45,46
 1432 1538 1432 1538 1432 1352 c 0,0,1
1140 132 m 0,47,48
 1140 68 1140 68 1095 20 c 1,49,50
 1050 -30 1050 -30 985 -30 c 0,51,52
 922 -30 922 -30 875 19 c 128,-1,53
 828 68 828 68 828 133 c 128,-1,54
 828 198 828 198 875 248 c 128,-1,55
 922 298 922 298 985 298 c 0,56,57
 1050 298 1050 298 1095 248 c 1,58,59
 1140 200 1140 200 1140 132 c 0,47,48
EndSplineSet
Validated: 1
EndChar

StartChar: uni0C82
Encoding: 32 3202 32
Width: 1070
GlyphClass: 2
Flags: W
LayerCount: 2
Fore
SplineSet
950 495 m 0,0,1
 950 298 950 298 842 158 c 1,2,3
 722 0 722 0 532 0 c 0,4,5
 350 0 350 0 230 158 c 1,6,7
 122 305 122 305 122 495 c 0,8,9
 122 712 122 712 222 858 c 1,10,11
 332 1010 332 1010 532 1010 c 0,12,13
 730 1010 730 1010 848 860 c 1,14,15
 950 720 950 720 950 495 c 0,0,1
900 518 m 0,16,17
 900 585 900 585 872.5 642.5 c 128,-1,18
 845 700 845 700 792 742 c 0,19,20
 745 780 745 780 678 805 c 1,21,22
 608 828 608 828 532 828 c 0,23,24
 390 828 390 828 279 743 c 128,-1,25
 168 658 168 658 168 518 c 0,26,27
 168 390 168 390 260 288 c 1,28,29
 360 180 360 180 532 180 c 0,30,31
 700 180 700 180 808 288 c 0,32,33
 900 380 900 380 900 518 c 0,16,17
EndSplineSet
Validated: 1
EndChar

StartChar: uni0C83
Encoding: 33 3203 33
Width: 602
GlyphClass: 2
Flags: W
LayerCount: 2
Fore
SplineSet
472 222 m 1,0,1
 472 142 472 142 430 72 c 1,2,3
 380 5 380 5 297.5 5 c 128,-1,4
 215 5 215 5 168 70 c 0,5,6
 122 135 122 135 122 222 c 0,7,8
 122 322 122 322 165 395 c 1,9,10
 208 465 208 465 298 465 c 128,-1,11
 388 465 388 465 432 385 c 1,12,13
 452 355 452 355 472 310 c 1,14,15
 480 288 480 288 480 262 c 0,16,17
 480 242 480 242 472 222 c 1,0,1
472 850 m 0,18,19
 472 762 472 762 428.5 697 c 128,-1,20
 385 632 385 632 298 632 c 0,21,22
 218 632 218 632 170 700 c 128,-1,23
 122 768 122 768 122 850 c 0,24,25
 122 952 122 952 165 1022 c 128,-1,26
 208 1092 208 1092 298 1092 c 128,-1,27
 388 1092 388 1092 432 1015 c 1,28,29
 472 942 472 942 472 850 c 0,18,19
428 850 m 0,30,31
 428 910 428 910 390 945 c 1,32,33
 352 978 352 978 298 978 c 0,34,35
 248 978 248 978 208 945 c 1,36,37
 168 908 168 908 168 850 c 0,38,39
 168 805 168 805 208 778 c 1,40,41
 245 748 245 748 298 748 c 0,42,43
 355 748 355 748 392 778 c 0,44,45
 428 808 428 808 428 850 c 0,30,31
428 222 m 0,46,47
 428 282 428 282 388 318 c 1,48,49
 348 350 348 350 298 350 c 128,-1,50
 248 350 248 350 208 317.5 c 128,-1,51
 168 285 168 285 168 222 c 0,52,53
 168 180 168 180 208 150 c 1,54,55
 245 120 245 120 298 120 c 0,56,57
 358 120 358 120 393 147.5 c 128,-1,58
 428 175 428 175 428 222 c 0,46,47
EndSplineSet
Validated: 1
EndChar

StartChar: uni0C85
Encoding: 34 3205 34
Width: 1527
GlyphClass: 2
Flags: MW
LayerCount: 2
Fore
SplineSet
1345 665 m 1,0,1
 1345 669 1345 669 1345 672 c 0,2,3
 1345 678 1345 678 1345 679 c 0,4,5
 1345 684 1345 684 1345 685 c 0,6,7
 1345 687 1345 687 1345 690 c 0,8,9
 1345.07 692.133 1345.07 692.133 1345.07 694.507 c 0,10,11
 1345.07 727.733 1345.07 727.733 1332 808 c 0,12,13
 1325 849 1325 849 1302 910 c 0,14,15
 1286 951 1286 951 1248 990 c 1,16,17
 1215 1020 1215 1020 1165 1020 c 2,18,-1
 1155 1020 l 2,19,20
 1108 1020 1108 1020 1078 988 c 0,21,22
 1045 952 1045 952 1045 912 c 0,23,24
 1045 812 1045 812 1168 712 c 1,25,-1
 1168 548 l 1,26,-1
 650 552 l 1,27,-1
 650 712 l 1,28,-1
 1050 712 l 1,29,30
 982 735 982 735 962 782 c 1,31,32
 940 825 940 825 928 888 c 1,33,34
 928 968 928 968 970 1032 c 1,35,36
 1010 1100 1010 1100 1118 1118 c 1,37,38
 1208 1118 1208 1118 1255 1080 c 1,39,40
 1302 1045 1302 1045 1345 968 c 1,41,42
 1370 918 1370 918 1390 842 c 1,43,44
 1405 775 1405 775 1405 678 c 0,45,46
 1405 500 1405 500 1348 368 c 1,47,48
 1290 238 1290 238 1182 145 c 0,49,50
 1015 0 1015 0 768 0 c 0,51,52
 482 0 482 0 320 152 c 1,53,54
 232 238 232 238 180 350 c 128,-1,55
 128 462 128 462 128 608 c 0,56,57
 128 750 128 750 150 832 c 1,58,59
 170 912 170 912 200 972 c 1,60,61
 265 1110 265 1110 390 1110 c 0,62,63
 482 1110 482 1110 528.5 1051 c 128,-1,64
 575 992 575 992 575 862 c 0,65,66
 575 768 575 768 528 698 c 1,67,68
 475 630 475 630 380 630 c 0,69,70
 322 630 322 630 278 678 c 0,71,72
 238 722 238 722 222 825 c 1,73,74
 208 780 208 780 200 725 c 1,75,76
 190 675 190 675 190 608 c 0,77,78
 190 432 190 432 352 308 c 1,79,80
 508 180 508 180 768 180 c 0,81,82
 992 180 992 180 1165 302 c 1,83,84
 1345 432 1345 432 1345 665 c 1,0,1
520 862 m 0,85,86
 520 920 520 920 487.5 955 c 128,-1,87
 455 990 455 990 415 990 c 0,88,89
 340 990 340 990 312 958 c 1,90,91
 282 928 282 928 282 862 c 0,92,93
 282 775 282 775 392 760 c 1,94,95
 520 760 520 760 520 862 c 0,85,86
EndSplineSet
Validated: 1
EndChar

StartChar: uni0C86
Encoding: 35 3206 35
Width: 1535
GlyphClass: 2
Flags: W
LayerCount: 2
Fore
SplineSet
1415 862 m 0,0,1
 1415 682 1415 682 1268 620 c 1,2,3
 1345 518 1345 518 1345 358 c 1,4,5
 1285 0 1285 0 765 0 c 0,6,7
 482 0 482 0 318 130 c 1,8,9
 228 212 228 212 175 335 c 1,10,11
 128 450 128 450 128 612 c 0,12,13
 128 638 128 638 128 638 c 1,14,15
 130 740 130 740 150 815 c 1,16,17
 168 892 168 892 198 950 c 1,18,19
 262 1085 262 1085 385 1085 c 0,20,21
 482 1085 482 1085 522 1028 c 1,22,23
 568 970 568 970 568 840 c 0,24,25
 568 742 568 742 512 672 c 1,26,27
 460 598 460 598 368 598 c 0,28,29
 248 598 248 598 220 802 c 1,30,31
 202 750 202 750 198 700 c 1,32,33
 192 655 192 655 192 590 c 0,34,35
 192 408 192 408 350 288 c 1,36,37
 512 158 512 158 765 158 c 0,38,39
 1015 158 1015 158 1140 225 c 1,40,41
 1265 290 1265 290 1288 435 c 1,42,43
 1280 482 1280 482 1262 532 c 1,44,45
 1242 580 1242 580 1215 608 c 1,46,-1
 1118 598 l 1,47,-1
 652 598 l 1,48,-1
 652 758 l 1,49,-1
 1085 758 l 1,50,51
 1058 792 1058 792 1042 835 c 1,52,53
 1030 875 1030 875 1030 950 c 0,54,55
 1030 975 1030 975 1042 1005 c 1,56,57
 1055 1032 1055 1032 1082 1058 c 1,58,59
 1108 1078 1108 1078 1140 1095 c 0,60,61
 1170 1112 1170 1112 1210 1112 c 0,62,63
 1255 1112 1255 1112 1292 1090 c 1,64,65
 1328 1072 1328 1072 1358 1038 c 1,66,67
 1385 1005 1385 1005 1400 958 c 1,68,69
 1415 905 1415 905 1415 862 c 0,0,1
1368 888 m 0,70,71
 1368 930 1368 930 1322 962 c 0,72,73
 1278 992 1278 992 1232 992 c 0,74,75
 1170 992 1170 992 1125 958 c 1,76,77
 1080 920 1080 920 1080 888 c 0,78,79
 1080 862 1080 862 1082 850 c 1,80,81
 1088 838 1088 838 1095 825 c 1,82,83
 1105 810 1105 810 1116.5 797.5 c 128,-1,84
 1128 785 1128 785 1145 758 c 1,85,-1
 1210 758 l 2,86,87
 1305 758 1305 758 1338 785 c 1,88,89
 1368 815 1368 815 1368 888 c 0,70,71
518 840 m 0,90,91
 518 900 518 900 485 930 c 1,92,93
 452 965 452 965 412 965 c 0,94,95
 338 965 338 965 310 935 c 1,96,97
 282 902 282 902 282 840 c 0,98,99
 282 752 282 752 390 738 c 1,100,101
 518 738 518 738 518 840 c 0,90,91
EndSplineSet
Validated: 1
EndChar

StartChar: uni0C87
Encoding: 36 3207 36
Width: 1510
GlyphClass: 2
Flags: W
LayerCount: 2
Fore
SplineSet
1390 145 m 1,0,1
 1390 72 1390 72 1348 38 c 1,2,3
 1305 0 1305 0 1242 0 c 0,4,5
 1100 0 1100 0 1100 130 c 0,6,7
 1100 175 1100 175 1128 218 c 1,8,9
 1155 265 1155 265 1170 330 c 1,10,11
 1128 310 1128 310 1085 300 c 1,12,13
 1045 288 1045 288 992 288 c 0,14,15
 915 288 915 288 855 322 c 1,16,17
 798 352 798 352 798 440 c 0,18,19
 798 520 798 520 855 550 c 1,20,21
 908 580 908 580 1010 580 c 0,22,23
 1135 580 1135 580 1215 482 c 1,24,25
 1295 558 1295 558 1295 682 c 0,26,27
 1295 735 1295 735 1272.5 772.5 c 128,-1,28
 1250 810 1250 810 1215 838 c 1,29,30
 1175 865 1175 865 1135 875 c 1,31,32
 1088 888 1088 888 1042 888 c 0,33,34
 928 888 928 888 848 832 c 1,35,36
 768 770 768 770 738 650 c 1,37,38
 695 772 695 772 610 832 c 1,39,40
 528 888 528 888 430 888 c 0,41,42
 388 888 388 888 340 875 c 0,43,44
 300 865 300 865 260 838 c 0,45,46
 225 815 225 815 202.5 777.5 c 128,-1,47
 180 740 180 740 180 690 c 0,48,49
 180 660 180 660 198 628 c 1,50,51
 210 598 210 598 238 572 c 1,52,53
 265 550 265 550 295 535 c 128,-1,54
 325 520 325 520 362 520 c 0,55,56
 392 520 392 520 392 482 c 0,57,58
 392 460 392 460 380 448 c 1,59,60
 362 435 362 435 352 435 c 0,61,62
 265 435 265 435 198 515 c 1,63,64
 122 595 122 595 122 740 c 0,65,66
 122 890 122 890 210 980 c 1,67,68
 295 1070 295 1070 430 1070 c 0,69,70
 535 1070 535 1070 618 1010 c 1,71,72
 695 952 695 952 732 820 c 1,73,74
 760 945 760 945 835 1007.5 c 128,-1,75
 910 1070 910 1070 1015 1070 c 0,76,77
 1185 1070 1185 1070 1270 988 c 1,78,79
 1352 905 1352 905 1352 718 c 0,80,81
 1352 618 1352 618 1332 545 c 1,82,83
 1310 470 1310 470 1258 405 c 1,84,85
 1282 355 1282 355 1282 272 c 0,86,87
 1282 240 1282 240 1275 212.5 c 128,-1,88
 1268 185 1268 185 1260 160 c 0,89,90
 1258 152 1258 152 1242 118 c 1,91,92
 1238 100 1238 100 1238 92 c 0,93,94
 1238 48 1238 48 1270 48 c 0,95,96
 1350 48 1350 48 1350 122 c 1,97,-1
 1390 145 l 1,0,1
1168 450 m 1,98,99
 1148 495 1148 495 1113 517.5 c 128,-1,100
 1078 540 1078 540 1015 540 c 0,101,102
 970 540 970 540 930 520 c 128,-1,103
 890 500 890 500 890 472 c 1,104,105
 900 435 900 435 928 422 c 1,106,107
 958 410 958 410 1015 410 c 1,108,109
 1065 412 1065 412 1100 422 c 128,-1,110
 1135 432 1135 432 1168 450 c 1,98,99
EndSplineSet
Validated: 1
EndChar

StartChar: uni0C88
Encoding: 37 3208 37
Width: 2097
GlyphClass: 2
Flags: W
LayerCount: 2
Fore
SplineSet
1975 222 m 0,0,1
 1975 50 1975 50 1770 2 c 1,2,-1
 1660 88 l 1,3,4
 1695 112 1695 112 1760 165 c 1,5,6
 1810 208 1810 208 1810 270 c 0,7,8
 1810 300 1810 300 1802 328 c 1,9,10
 1795 362 1795 362 1785 380 c 1,11,12
 1775 408 1775 408 1762 432 c 1,13,14
 1758 442 1758 442 1748 465 c 128,-1,15
 1738 488 1738 488 1732 495 c 1,16,17
 1700 478 1700 478 1588 478 c 2,18,-1
 1335 478 l 1,19,20
 1335 380 1335 380 1300 290 c 1,21,22
 1262 202 1262 202 1188 135 c 1,23,24
 1038 5 1038 5 833 5 c 128,-1,25
 628 5 628 5 478 145 c 1,26,27
 402 210 402 210 362 298 c 1,28,29
 325 382 325 382 325 478 c 1,30,-1
 122 478 l 1,31,-1
 122 638 l 1,32,-1
 352 638 l 1,33,34
 425 822 425 822 610 928 c 1,35,-1
 325 928 l 1,36,-1
 325 1090 l 1,37,-1
 1045 1090 l 2,38,39
 1105 1090 1105 1090 1160 1145 c 128,-1,40
 1215 1200 1215 1200 1215 1268 c 0,41,42
 1215 1308 1215 1308 1188 1352 c 1,43,44
 1162 1398 1162 1398 1105 1442 c 1,45,-1
 1162 1442 l 1,46,47
 1220 1412 1220 1412 1258 1350 c 1,48,49
 1292 1290 1292 1290 1292 1225 c 0,50,51
 1292 1098 1292 1098 1208 1015 c 1,52,53
 1122 935 1122 935 1032 928 c 1,54,55
 1128 885 1128 885 1205 808 c 1,56,57
 1278 730 1278 730 1318 638 c 1,58,-1
 1638 638 l 1,59,60
 1600 690 1600 690 1575 752 c 1,61,62
 1552 802 1552 802 1552 850 c 0,63,64
 1552 958 1552 958 1592 1002 c 0,65,66
 1632 1045 1632 1045 1728 1045 c 0,67,68
 1820 1045 1820 1045 1882 975 c 1,69,70
 1950 902 1950 902 1950 802 c 0,71,72
 1950 592 1950 592 1808 512 c 1,73,74
 1910 408 1910 408 1940 350 c 1,75,76
 1975 288 1975 288 1975 222 c 0,0,1
1232 638 m 1,77,78
 1220 705 1220 705 1180 758 c 1,79,80
 1140 808 1140 808 1082 850 c 1,81,82
 1025 888 1025 888 962 910 c 1,83,84
 898 928 898 928 832 928 c 0,85,86
 762 928 762 928 700 910 c 1,87,88
 638 888 638 888 580 850 c 1,89,90
 528 810 528 810 488 758 c 1,91,92
 450 705 450 705 435 638 c 1,93,-1
 1232 638 l 1,77,78
1225 478 m 1,94,95
 435 478 l 1,96,97
 448 408 448 408 488 358 c 1,98,99
 525 305 525 305 582 265 c 1,100,101
 638 228 638 228 702 208 c 1,102,103
 768 190 768 190 832 190 c 0,104,105
 892 190 892 190 958 212 c 0,106,107
 1015 232 1015 232 1072 275 c 0,108,109
 1122 312 1122 312 1168 368 c 1,110,111
 1208 420 1208 420 1225 478 c 1,94,95
1905 802 m 0,112,113
 1905 928 1905 928 1752 928 c 0,114,115
 1688 928 1688 928 1655 890 c 1,116,117
 1622 850 1622 850 1622 802 c 0,118,119
 1622 768 1622 768 1638 718 c 1,120,121
 1655 672 1655 672 1682 638 c 1,122,123
 1800 638 1800 638 1852 688 c 1,124,125
 1905 735 1905 735 1905 802 c 0,112,113
EndSplineSet
Validated: 1
EndChar

StartChar: uni0C89
Encoding: 38 3209 38
Width: 2207
GlyphClass: 2
Flags: W
LayerCount: 2
Fore
SplineSet
2088 542 m 0,0,1
 2088 352 2088 352 1992 198 c 1,2,3
 1885 2 1885 2 1692 2 c 0,4,5
 1498 2 1498 2 1438 190 c 1,6,7
 1398 305 1398 305 1398 658 c 0,8,9
 1398 775 1398 775 1335 852 c 1,10,11
 1255 945 1255 945 1128 945 c 0,12,13
 1048 945 1048 945 980 877.5 c 128,-1,14
 912 810 912 810 905 750 c 1,15,16
 905 728 905 728 905 708 c 0,17,18
 905 665 905 665 912 620 c 1,19,20
 928 562 928 562 952 485 c 1,21,22
 978 418 978 418 978 332 c 0,23,24
 978 192 978 192 912 105 c 0,25,26
 835 2 835 2 682 2 c 0,27,28
 472 2 472 2 310 180 c 1,29,30
 270 228 270 228 232 278 c 1,31,32
 198 328 198 328 175 385 c 0,33,34
 150 448 150 448 138 528 c 1,35,36
 122 610 122 610 122 718 c 0,37,38
 122 805 122 805 145 875 c 1,39,40
 165 950 165 950 190 992 c 1,41,42
 248 1112 248 1112 370 1112 c 0,43,44
 482 1112 482 1112 552 1030 c 128,-1,45
 622 948 622 948 622 825 c 2,46,-1
 622 810 l 2,47,48
 622 685 622 685 585 632 c 1,49,50
 545 580 545 580 465 580 c 0,51,52
 270 580 270 580 242 852 c 1,53,54
 205 790 205 790 195 728 c 0,55,56
 190 695 190 695 190 655 c 128,-1,57
 190 615 190 615 195 568 c 0,58,59
 202 495 202 495 242 432 c 0,60,61
 282 368 282 368 340 312 c 1,62,63
 478 185 478 185 635 185 c 0,64,65
 782 185 782 185 855 288 c 0,66,67
 905 360 905 360 905 450 c 1,68,69
 882 540 882 540 868 620 c 0,70,71
 852 710 852 710 852 790 c 0,72,73
 852 952 852 952 910 1032 c 1,74,75
 975 1135 975 1135 1128 1135 c 0,76,77
 1335 1135 1335 1135 1405 975 c 1,78,79
 1448 895 1448 895 1448 635 c 0,80,81
 1448 570 1448 570 1455 512 c 1,82,83
 1460 460 1460 460 1475 392 c 1,84,85
 1530 185 1530 185 1692 185 c 0,86,87
 1798 185 1798 185 1920 290 c 0,88,89
 2038 392 2038 392 2038 520 c 0,90,91
 2038 625 2038 625 1975 728 c 1,92,93
 1890 858 1890 858 1740 948 c 1,94,95
 1688 975 1688 975 1665 1007.5 c 128,-1,96
 1642 1040 1642 1040 1642 1068 c 0,97,98
 1642 1098 1642 1098 1665 1122 c 0,99,100
 1688 1145 1688 1145 1718 1145 c 0,101,102
 1755 1145 1755 1145 1795 1118 c 0,103,104
 1830 1095 1830 1095 1870 1052 c 0,105,106
 1908 1012 1908 1012 1938 970 c 0,107,108
 1962 935 1962 935 1990 895 c 1,109,110
 2088 728 2088 728 2088 542 c 0,0,1
575 845 m 0,111,112
 575 868 575 868 565 890 c 1,113,114
 550 915 550 915 535 928 c 1,115,116
 515 948 515 948 490 958 c 1,117,118
 465 970 465 970 442 970 c 0,119,120
 375 970 375 970 332 945 c 1,121,122
 288 915 288 915 288 845 c 0,123,124
 288 798 288 798 328 758 c 128,-1,125
 368 718 368 718 420 718 c 0,126,127
 478 718 478 718 528 755 c 1,128,129
 575 792 575 792 575 845 c 0,111,112
EndSplineSet
Validated: 1
EndChar

StartChar: uni0C8A
Encoding: 39 3210 39
Width: 2912
GlyphClass: 2
Flags: W
LayerCount: 2
Fore
SplineSet
2792 508 m 0,0,1
 2792 208 2792 208 2712 95 c 1,2,3
 2642 0 2642 0 2470 0 c 0,4,5
 2355 0 2355 0 2288 75 c 0,6,7
 2222 150 2222 150 2222 282 c 0,8,9
 2222 365 2222 365 2278 420 c 1,10,11
 2330 478 2330 478 2420 478 c 0,12,13
 2482 478 2482 478 2518 442 c 1,14,15
 2552 410 2552 410 2552 352 c 0,16,17
 2552 308 2552 308 2528 282 c 1,18,19
 2500 248 2500 248 2445 248 c 0,20,21
 2402 248 2402 248 2370 278 c 1,22,23
 2340 310 2340 310 2340 352 c 0,24,25
 2340 402 2340 402 2358 418 c 1,26,27
 2328 410 2328 410 2300 375 c 128,-1,28
 2272 340 2272 340 2272 282 c 0,29,30
 2272 222 2272 222 2335 175 c 1,31,32
 2398 135 2398 135 2470 135 c 0,33,34
 2745 135 2745 135 2745 490 c 0,35,36
 2745 660 2745 660 2625 785 c 1,37,38
 2490 935 2490 935 2305 935 c 1,39,40
 2195 922 2195 922 2148 868 c 0,41,42
 2082 792 2082 792 2082 618 c 0,43,44
 2082 522 2082 522 2105 375 c 1,45,46
 2105 215 2105 215 1998 110 c 1,47,48
 1890 0 1890 0 1692 0 c 0,49,50
 1610 0 1610 0 1540 60 c 1,51,52
 1472 120 1472 120 1438 210 c 1,53,54
 1410 280 1410 280 1402 340 c 0,55,56
 1390 420 1390 420 1385 472 c 0,57,58
 1378 540 1378 540 1378 590 c 2,59,-1
 1378 678 l 2,60,61
 1378 730 1378 730 1370 765 c 0,62,63
 1362 802 1362 802 1328 845 c 1,64,65
 1250 938 1250 938 1122 938 c 0,66,67
 1045 938 1045 938 978 870 c 1,68,69
 938 832 938 832 922 785 c 1,70,71
 912 735 912 735 912 682 c 0,72,73
 912 635 912 635 920 592 c 0,74,75
 930 538 930 538 940 505 c 0,76,77
 958 448 958 448 962 415 c 1,78,79
 972 375 972 375 972 322 c 0,80,81
 972 180 972 180 910 95 c 1,82,83
 832 0 832 0 678 0 c 0,84,85
 478 0 478 0 315 175 c 1,86,87
 235 270 235 270 190 362 c 0,88,89
 142 460 142 460 132 562.5 c 128,-1,90
 122 665 122 665 122 735 c 128,-1,91
 122 805 122 805 132 850 c 1,92,93
 145 900 145 900 158 928 c 0,94,95
 170 952 170 952 188 982 c 1,96,97
 248 1105 248 1105 375 1105 c 0,98,99
 482 1105 482 1105 550 1020 c 1,100,101
 620 935 620 935 620 815 c 1,102,103
 615 750 615 750 610 722.5 c 128,-1,104
 605 695 605 695 598 672 c 1,105,106
 590 655 590 655 580 642 c 2,107,-1
 568 625 l 2,108,109
 528 570 528 570 470 570 c 0,110,111
 362 570 362 570 300 642 c 1,112,113
 242 712 242 712 242 845 c 1,114,115
 215 808 215 808 200 760 c 1,116,117
 188 718 188 718 188 648 c 1,118,119
 192 538 192 538 232 448 c 1,120,121
 278 362 278 362 340 305 c 1,122,123
 478 175 478 175 632 175 c 0,124,125
 778 175 778 175 850 278 c 1,126,127
 878 312 878 312 890 352 c 1,128,129
 902 382 902 382 902 418 c 0,130,131
 902 430 902 430 900 442 c 1,132,133
 882 505 882 505 867 585 c 128,-1,134
 852 665 852 665 848 740 c 1,135,136
 848 762 848 762 848 780 c 0,137,138
 848 838 848 838 855 892 c 1,139,140
 868 962 868 962 905 1020 c 0,141,142
 975 1128 975 1128 1122 1128 c 0,143,144
 1335 1128 1335 1128 1400 968 c 1,145,146
 1442 888 1442 888 1442 628 c 0,147,148
 1442 485 1442 485 1472 385 c 1,149,150
 1532 175 1532 175 1692 175 c 0,151,152
 1845 175 1845 175 1950 288 c 1,153,154
 1998 342 1998 342 2012 392 c 0,155,156
 2025 442 2025 442 2025 515 c 0,157,158
 2025 525 2025 525 2020 558 c 1,159,160
 2020 575 2020 575 2010 632 c 1,161,162
 2008 658 2008 658 2002 708 c 0,163,164
 1998 740 1998 740 1998 765 c 0,165,166
 1998 840 1998 840 2023 910 c 128,-1,167
 2048 980 2048 980 2082 1025 c 1,168,169
 2168 1128 2168 1128 2328 1128 c 0,170,171
 2562 1128 2562 1128 2688 928 c 0,172,173
 2792 762 2792 762 2792 508 c 0,0,1
575 838 m 0,174,175
 575 888 575 888 535 922 c 1,176,177
 495 960 495 960 442 960 c 0,178,179
 368 960 368 960 329 936 c 128,-1,180
 290 912 290 912 290 838 c 0,181,182
 290 785 290 785 330 747.5 c 128,-1,183
 370 710 370 710 420 710 c 0,184,185
 475 710 475 710 525 747.5 c 128,-1,186
 575 785 575 785 575 838 c 0,174,175
EndSplineSet
Validated: 1
EndChar

StartChar: uni0C8B
Encoding: 40 3211 40
Width: 2298
GlyphClass: 2
Flags: W
LayerCount: 2
Fore
SplineSet
358 832 m 0,0,1
 358 882 358 882 340 910 c 128,-1,2
 322 938 322 938 300 938 c 0,3,4
 248 938 248 938 220 915 c 0,5,6
 195 895 195 895 195 862 c 0,7,8
 195 815 195 815 220 798 c 1,9,10
 245 775 245 775 278 775 c 0,11,12
 358 775 358 775 358 832 c 0,0,1
450 300 m 128,-1,14
 450 330 450 330 427.5 355 c 128,-1,15
 405 380 405 380 368 380 c 0,16,17
 310 380 310 380 288 358 c 1,18,19
 265 330 265 330 265 295 c 0,20,21
 265 265 265 265 295 242 c 1,22,23
 322 220 322 220 368 220 c 0,24,25
 398 220 398 220 425 245 c 1,26,13
 450 270 450 270 450 300 c 128,-1,14
1585 410 m 0,27,28
 1585 389 1585 389 1607 331 c 1,29,-1
 1644 264 l 1,30,31
 1713 184 1713 184 1836 184 c 0,32,33
 1841 184 1841 184 1847 184 c 0,34,35
 1851.24 183.707 1851.24 183.707 1855.52 183.707 c 0,36,37
 1938.98 183.707 1938.98 183.707 2036 295 c 1,38,39
 2130 408 2130 408 2130 542 c 0,40,41
 2130 665 2130 665 2010 768 c 0,42,43
 1886 875 1886 875 1738 875 c 1,44,45
 1666 885 1666 885 1650 912 c 1,46,47
 1636 945 1636 945 1636 975 c 0,48,49
 1636 998 1636 998 1643 1018 c 128,-1,50
 1650 1038 1650 1038 1716 1038 c 0,51,52
 1913 1038 1913 1038 2043 868 c 1,53,54
 2178 702 2178 702 2178 495 c 0,55,56
 2178 272 2178 272 2086 145 c 1,57,58
 1984 -0 1984 -0 1842 -0 c 0,59,60
 1841 -0 1841 -0 1840 0 c 0,61,62
 1700 -0 1700 -0 1636 120 c 1,63,64
 1594 196 1594 196 1573 286 c 1,65,66
 1547 187 1547 187 1518 145 c 1,67,68
 1432 10 1432 10 1268 10 c 0,69,70
 1192 10 1192 10 1128 38 c 0,71,72
 1060 68 1060 68 1002 122 c 1,73,74
 960 170 960 170 925 230 c 128,-1,75
 890 290 890 290 862 368 c 1,76,77
 825 203 825 203 730 108 c 0,78,79
 631 10 631 10 488 10 c 0,80,81
 362 10 362 10 282 78 c 1,82,83
 168 168 168 168 168 272 c 0,84,85
 168 375 168 375 222 425 c 1,86,87
 278 472 278 472 368 472 c 0,88,89
 440 472 440 472 482 422 c 1,90,91
 522 372 522 372 522 300 c 0,92,93
 522 238 522 238 470 200 c 1,94,95
 415 170 415 170 368 170 c 0,96,97
 353 170 353 170 328 175 c 2,98,-1
 278 185 l 1,99,100
 305 135 305 135 362 95 c 1,101,102
 418 60 418 60 482 60 c 1,103,104
 540 70 540 70 575 95 c 1,105,106
 615 120 615 120 642 162 c 0,107,108
 672 209 672 209 695 295 c 1,109,110
 712 370 712 370 712 482 c 0,111,112
 712 675 712 675 628 855 c 0,113,114
 527 1072 527 1072 375 1072 c 0,115,116
 305 1072 305 1072 262 1042 c 1,117,118
 220 1010 220 1010 205 958 c 1,119,120
 242 980 242 980 300 980 c 0,121,122
 362 980 362 980 407 942.5 c 128,-1,123
 452 905 452 905 452 832 c 0,124,125
 452 765 452 765 415 722 c 1,126,127
 375 678 375 678 300 678 c 128,-1,128
 225 678 225 678 173.5 729 c 128,-1,129
 122 780 122 780 122 855 c 0,130,131
 122 978 122 978 192 1050 c 128,-1,132
 262 1122 262 1122 392 1122 c 0,133,134
 615 1122 615 1122 752 922 c 1,135,136
 875 750 875 750 875 512 c 1,137,138
 895 438 895 438 922 375 c 1,139,140
 952 312 952 312 985 272 c 1,141,142
 1072 175 1072 175 1220 175 c 0,143,144
 1328 175 1328 175 1398 270 c 1,145,146
 1468 362 1468 362 1468 482 c 0,147,148
 1468 618 1468 618 1362 768 c 0,149,150
 1242 938 1242 938 1100 938 c 2,151,-1
 992 938 l 1,152,-1
 992 1095 l 1,153,-1
 1290 1095 l 2,154,155
 1348 1095 1348 1095 1405 1150 c 0,156,157
 1460 1202 1460 1202 1460 1275 c 0,158,159
 1460 1358 1460 1358 1352 1448 c 1,160,-1
 1410 1448 l 1,161,162
 1465 1420 1465 1420 1500 1358 c 1,163,164
 1540 1292 1540 1292 1540 1232 c 0,165,166
 1540 1100 1540 1100 1450 1020 c 1,167,168
 1368 938 1368 938 1268 938 c 1,169,170
 1335 900 1335 900 1385 850 c 0,171,172
 1432 802 1432 802 1485 732 c 1,173,174
 1585 578 1585 578 1585 410 c 0,27,28
EndSplineSet
Validated: 1
EndChar

StartChar: uni0C8E
Encoding: 41 3214 41
Width: 1540
GlyphClass: 2
Flags: W
LayerCount: 2
Fore
SplineSet
1420 405 m 0,0,1
 1420 255 1420 255 1345 145 c 1,2,3
 1252 2 1252 2 1075 2 c 0,4,5
 965 2 965 2 878 82 c 1,6,7
 790 168 790 168 762 272 c 1,8,9
 682 2 682 2 440 2 c 0,10,11
 302 2 302 2 212 98.5 c 128,-1,12
 122 195 122 195 122 362 c 0,13,14
 122 495 122 495 192 558 c 1,15,16
 260 625 260 625 350 625 c 0,17,18
 438 625 438 625 493 585 c 128,-1,19
 548 545 548 545 548 452 c 0,20,21
 548 380 548 380 502 340 c 1,22,23
 460 305 460 305 392 305 c 1,24,-1
 390 328 l 1,25,26
 412 340 412 340 442 381 c 128,-1,27
 472 422 472 422 478 448 c 1,28,29
 460 490 460 490 424 511 c 128,-1,30
 388 532 388 532 350 532 c 0,31,32
 270 532 270 532 220 490 c 1,33,34
 175 450 175 450 175 390 c 128,-1,35
 175 330 175 330 202 295 c 0,36,37
 228 260 228 260 270 230 c 128,-1,38
 312 200 312 200 352 190 c 1,39,40
 402 175 402 175 440 175 c 0,41,42
 648 175 648 175 770 440 c 1,43,44
 815 315 815 315 878 248 c 1,45,46
 940 175 940 175 1030 175 c 0,47,48
 1092 175 1092 175 1148 205 c 0,49,50
 1200 232 1200 232 1240 278 c 1,51,52
 1282 328 1282 328 1302 382 c 1,53,54
 1328 438 1328 438 1328 500 c 0,55,56
 1328 722 1328 722 1150 868 c 1,57,58
 975 1015 975 1015 678 1015 c 2,59,-1
 655 1015 l 1,60,61
 632 1010 632 1010 620 1010 c 1,62,63
 598 1008 598 1008 580 1008 c 1,64,65
 568 1002 568 1002 558 1002 c 0,66,67
 518 1002 518 1002 495 1018 c 1,68,69
 478 1032 478 1032 478 1072 c 0,70,71
 478 1095 478 1095 512 1118 c 1,72,73
 548 1135 548 1135 602 1135 c 0,74,75
 888 1135 888 1135 1135 950 c 1,76,77
 1420 735 1420 735 1420 405 c 0,0,1
EndSplineSet
Validated: 1
EndChar

StartChar: uni0C8F
Encoding: 42 3215 42
Width: 1540
GlyphClass: 2
Flags: W
LayerCount: 2
Fore
SplineSet
1420 398 m 2,0,1
 1420 248 1420 248 1345 135 c 1,2,3
 1248 0 1248 0 1075 0 c 0,4,5
 968 0 968 0 878 72 c 1,6,7
 790 145 790 145 762 260 c 1,8,9
 682 0 682 0 440 0 c 0,10,11
 302 0 302 0 212 96 c 128,-1,12
 122 192 122 192 122 352 c 0,13,14
 122 488 122 488 198 555 c 1,15,16
 258 618 258 618 350 618 c 0,17,18
 438 618 438 618 493 575 c 128,-1,19
 548 532 548 532 548 445 c 0,20,21
 548 370 548 370 502 335 c 1,22,23
 460 298 460 298 392 298 c 1,24,-1
 390 320 l 1,25,26
 412 332 412 332 442 375 c 1,27,28
 472 415 472 415 478 440 c 1,29,30
 462 478 462 478 422 500 c 1,31,32
 385 525 385 525 350 525 c 0,33,34
 265 525 265 525 220 483.5 c 128,-1,35
 175 442 175 442 175 375 c 0,36,37
 175 328 175 328 202 292 c 0,38,39
 230 255 230 255 270 230 c 1,40,41
 312 202 312 202 358 192 c 1,42,43
 402 175 402 175 440 175 c 0,44,45
 648 175 648 175 770 432 c 1,46,47
 815 308 815 308 878 242 c 1,48,49
 940 175 940 175 1030 175 c 0,50,51
 1158 175 1158 175 1238 272 c 1,52,53
 1328 368 1328 368 1328 488 c 0,54,55
 1328 710 1328 710 1195 878 c 0,56,57
 1118 975 1118 975 1008 1042 c 1,58,59
 892 1110 892 1110 742 1140 c 1,60,61
 768 1095 768 1095 768 1025 c 0,62,63
 768 935 768 935 705 890 c 128,-1,64
 642 845 642 845 535 845 c 0,65,66
 420 845 420 845 345 938 c 1,67,68
 278 1018 278 1018 278 1122 c 0,69,70
 278 1128 278 1128 280 1148 c 1,71,72
 288 1180 288 1180 288 1192 c 1,73,-1
 340 1192 l 1,74,-1
 335 1168 l 1,75,76
 335 1155 335 1155 328 1135 c 1,77,78
 328 1062 328 1062 388 1010 c 128,-1,79
 448 958 448 958 535 958 c 0,80,81
 608 958 608 958 658 992 c 1,82,83
 710 1030 710 1030 710 1095 c 0,84,85
 710 1118 710 1118 705 1138 c 1,86,87
 698 1160 698 1160 682 1198 c 1,88,89
 1048 1135 1048 1135 1232 950 c 1,90,91
 1420 755 1420 755 1420 402 c 2,92,-1
 1420 398 l 2,0,1
EndSplineSet
Validated: 1
EndChar

StartChar: uni0C90
Encoding: 43 3216 43
Width: 1540
GlyphClass: 2
Flags: W
LayerCount: 2
Fore
SplineSet
1420 402 m 0,0,1
 1420 255 1420 255 1345 140 c 1,2,3
 1252 0 1252 0 1075 0 c 0,4,5
 965 0 965 0 878 78 c 1,6,7
 790 168 790 168 762 270 c 1,8,9
 682 0 682 0 440 0 c 0,10,11
 302 0 302 0 212 96 c 128,-1,12
 122 192 122 192 122 362 c 0,13,14
 122 492 122 492 192 558 c 0,15,16
 260 622 260 622 350 622 c 0,17,18
 438 622 438 622 492 580 c 1,19,20
 548 540 548 540 548 450 c 0,21,22
 548 375 548 375 502 340 c 1,23,24
 460 302 460 302 392 302 c 1,25,-1
 390 325 l 1,26,27
 412 338 412 338 442 380 c 1,28,29
 472 420 472 420 478 445 c 1,30,31
 460 488 460 488 425 510 c 1,32,33
 385 530 385 530 350 530 c 0,34,35
 270 530 270 530 222 488 c 0,36,37
 175 448 175 448 175 380 c 0,38,39
 175 340 175 340 198 305 c 1,40,41
 215 270 215 270 265 238 c 1,42,43
 342 180 342 180 440 180 c 0,44,45
 648 180 648 180 770 438 c 1,46,47
 815 312 815 312 878 248 c 1,48,49
 940 180 940 180 1030 180 c 0,50,51
 1158 180 1158 180 1255 282 c 1,52,53
 1350 380 1350 380 1350 518 c 0,54,55
 1350 710 1350 710 1232 838 c 1,56,57
 1120 965 1120 965 960 965 c 0,58,59
 870 965 870 965 802 895 c 1,60,61
 735 822 735 822 735 700 c 1,62,-1
 712 700 l 1,63,-1
 688 742 l 1,64,65
 600 872 600 872 510 935 c 1,66,67
 438 982 438 982 369 982 c 128,-1,68
 300 982 300 982 242 940 c 1,69,70
 182 895 182 895 180 832 c 1,71,-1
 180 828 l 2,72,73
 180 820 180 820 180 815 c 0,74,75
 182 800 182 800 170 760 c 1,76,-1
 145 785 l 1,77,78
 132 815 132 815 128 850 c 0,79,80
 122 898 122 898 122 910 c 0,81,82
 122 1002 122 1002 190 1068 c 1,83,84
 250 1135 250 1135 350 1135 c 0,85,86
 465 1135 465 1135 558 1055 c 1,87,88
 595 1020 595 1020 625 975 c 1,89,90
 662 922 662 922 688 865 c 1,91,92
 705 988 705 988 778 1060 c 1,93,94
 848 1135 848 1135 958 1135 c 0,95,96
 1130 1135 1130 1135 1262 968 c 1,97,98
 1420 762 1420 762 1420 402 c 0,0,1
EndSplineSet
Validated: 1
EndChar

StartChar: uni0C92
Encoding: 44 3218 44
Width: 1590
GlyphClass: 2
Flags: W
LayerCount: 2
Fore
SplineSet
1470 335 m 0,0,1
 1470 178 1470 178 1380 90 c 1,2,3
 1298 0 1298 0 1172 0 c 0,4,5
 1040 0 1040 0 948 78 c 1,6,7
 855 152 855 152 820 278 c 1,8,9
 792 155 792 155 705 85 c 1,10,11
 610 0 610 0 488 0 c 0,12,13
 340 0 340 0 255 88 c 1,14,15
 172 170 172 170 172 305 c 0,16,17
 172 312 172 312 175 318 c 1,18,19
 180 450 180 450 380 635 c 1,20,21
 428 678 428 678 465 725 c 0,22,23
 500 768 500 768 500 820 c 0,24,25
 500 882 500 882 465 922 c 0,26,27
 428 965 428 965 368 965 c 0,28,29
 300 965 300 965 260 930 c 1,30,31
 218 900 218 900 218 842 c 0,32,33
 218 812 218 812 238 778 c 1,34,35
 260 745 260 745 308 712 c 1,36,-1
 298 690 l 1,37,38
 210 712 210 712 168 770 c 0,39,40
 122 832 122 832 122 910 c 0,41,42
 122 1002 122 1002 195 1065 c 1,43,44
 265 1135 265 1135 350 1135 c 0,45,46
 398 1135 398 1135 442 1112 c 0,47,48
 490 1088 490 1088 522 1055 c 1,49,50
 558 1015 558 1015 575 968 c 1,51,52
 592 915 592 915 592 862 c 0,53,54
 592 808 592 808 545 730 c 1,55,56
 495 652 495 652 392 562 c 1,57,58
 290 468 290 468 290 375 c 0,59,60
 290 290 290 290 352 235 c 1,61,62
 410 180 410 180 512 180 c 0,63,64
 608 180 608 180 695 270 c 1,65,66
 780 352 780 352 825 465 c 1,67,68
 862 335 862 335 955 260 c 1,69,70
 1048 175 1048 175 1152 175 c 0,71,72
 1250 175 1250 175 1325 232 c 0,73,74
 1398 288 1398 288 1398 380 c 0,75,76
 1398 442 1398 442 1352 480 c 0,77,78
 1305 520 1305 520 1215 550 c 1,79,-1
 1220 575 l 1,80,81
 1342 575 1342 575 1408 500 c 1,82,83
 1470 432 1470 432 1470 335 c 0,0,1
EndSplineSet
Validated: 1
EndChar

StartChar: uni0C93
Encoding: 45 3219 45
Width: 1590
GlyphClass: 2
Flags: W
LayerCount: 2
Fore
SplineSet
1470 342 m 0,0,1
 1470 265 1470 265 1445 202.5 c 128,-1,2
 1420 140 1420 140 1380 95 c 128,-1,3
 1340 50 1340 50 1288 30 c 1,4,5
 1235 5 1235 5 1172 5 c 0,6,7
 1042 5 1042 5 948 82 c 0,8,9
 855 158 855 158 820 282 c 1,10,11
 792 160 792 160 705 90 c 1,12,13
 610 5 610 5 488 5 c 0,14,15
 340 5 340 5 260 82 c 1,16,17
 185 158 185 158 185 288 c 0,18,19
 185 295 185 295 185 300 c 0,20,21
 190 432 190 432 392 632 c 0,22,23
 442 682 442 682 470 730 c 1,24,25
 500 775 500 775 500 828 c 0,26,27
 500 890 500 890 462.5 932.5 c 128,-1,28
 425 975 425 975 368 975 c 0,29,30
 302 975 302 975 260 942.5 c 128,-1,31
 218 910 218 910 218 850 c 0,32,33
 218 820 218 820 238 788 c 1,34,35
 255 758 255 758 308 718 c 1,36,-1
 298 700 l 1,37,38
 208 718 208 718 165 780 c 1,39,40
 122 838 122 838 122 918 c 0,41,42
 122 992 122 992 173.5 1055 c 128,-1,43
 225 1118 225 1118 300 1135 c 1,44,45
 228 1162 228 1162 175 1217 c 128,-1,46
 122 1272 122 1272 122 1322 c 0,47,48
 122 1490 122 1490 390 1490 c 1,49,50
 318 1442 318 1442 282 1402 c 1,51,52
 242 1360 242 1360 242 1318 c 0,53,54
 242 1208 242 1208 432 1122 c 1,55,56
 505 1100 505 1100 550 1030 c 1,57,58
 592 962 592 962 592 870 c 0,59,60
 592 760 592 760 495 655 c 0,61,62
 288 430 288 430 288 342 c 0,63,64
 288 260 288 260 345 225 c 128,-1,65
 402 190 402 190 512 190 c 0,66,67
 610 190 610 190 695 278 c 1,68,69
 780 362 780 362 825 472 c 1,70,71
 862 342 862 342 955 265 c 1,72,73
 1048 180 1048 180 1152 180 c 0,74,75
 1255 180 1255 180 1328 238 c 1,76,77
 1398 295 1398 295 1398 385 c 0,78,79
 1398 448 1398 448 1352 482 c 1,80,81
 1310 522 1310 522 1215 558 c 1,82,-1
 1220 585 l 1,83,84
 1340 585 1340 585 1408 508 c 0,85,86
 1470 438 1470 438 1470 342 c 0,0,1
EndSplineSet
Validated: 1
EndChar

StartChar: uni0C94
Encoding: 46 3220 46
Width: 1610
GlyphClass: 2
Flags: W
LayerCount: 2
Fore
SplineSet
1490 332 m 0,0,1
 1490 178 1490 178 1400 82 c 1,2,3
 1310 0 1310 0 1198 0 c 0,4,5
 1065 0 1065 0 970 72.5 c 128,-1,6
 875 145 875 145 845 270 c 1,7,8
 832 212 832 212 800 162 c 1,9,10
 770 118 770 118 722 78 c 1,11,12
 678 40 678 40 625 20 c 1,13,14
 568 0 568 0 512 0 c 0,15,16
 365 0 365 0 285 82 c 0,17,18
 215 155 215 155 215 270 c 0,19,20
 215 288 215 288 218 308 c 0,21,22
 225 372 225 372 260 438 c 0,23,24
 295 505 295 505 368 570 c 1,25,26
 522 698 522 698 522 815 c 0,27,28
 522 882 522 882 488 925 c 1,29,30
 450 968 450 968 392 968 c 0,31,32
 328 968 328 968 285 932 c 1,33,34
 242 900 242 900 242 840 c 0,35,36
 242 810 242 810 262 777.5 c 128,-1,37
 282 745 282 745 330 710 c 1,38,-1
 322 688 l 1,39,40
 232 710 232 710 190 768 c 0,41,42
 145 830 145 830 145 910 c 0,43,44
 145 998 145 998 215 1065 c 0,45,46
 228 1078 228 1078 242 1088 c 1,47,48
 248 1095 248 1095 272 1112 c 1,49,-1
 145 1112 l 1,50,-1
 145 1225 l 1,51,-1
 465 1225 l 2,52,53
 500 1225 500 1225 522 1238 c 1,54,55
 545 1248 545 1248 545 1285 c 0,56,57
 545 1315 545 1315 517.5 1340 c 128,-1,58
 490 1365 490 1365 465 1365 c 2,59,-1
 122 1365 l 1,60,-1
 122 1528 l 1,61,-1
 1032 1528 l 2,62,63
 1220 1528 1220 1528 1345 1395 c 1,64,65
 1470 1270 1470 1270 1470 1048 c 0,66,67
 1470 912 1470 912 1390 798 c 1,68,69
 1295 665 1295 665 1152 665 c 0,70,71
 1040 665 1040 665 960 752 c 1,72,73
 882 840 882 840 882 955 c 0,74,75
 882 1065 882 1065 935 1133.5 c 128,-1,76
 988 1202 988 1202 1080 1202 c 0,77,78
 1145 1202 1145 1202 1190 1168 c 1,79,80
 1232 1128 1232 1128 1232 1070 c 0,81,82
 1232 1010 1232 1010 1210 975 c 1,83,84
 1185 942 1185 942 1128 942 c 0,85,86
 1080 942 1080 942 1052 962 c 0,87,88
 1020 985 1020 985 1020 1048 c 0,89,90
 1020 1122 1020 1122 1080 1145 c 1,91,92
 1070 1155 1070 1155 1055 1155 c 0,93,94
 1022 1155 1022 1155 978 1095 c 0,95,96
 938 1042 938 1042 938 975 c 0,97,98
 938 895 938 895 998 850 c 1,99,100
 1058 808 1058 808 1152 808 c 0,101,102
 1272 808 1272 808 1352 895 c 0,103,104
 1425 975 1425 975 1425 1090 c 0,105,106
 1425 1198 1425 1198 1328 1280 c 1,107,108
 1230 1365 1230 1365 1128 1365 c 2,109,-1
 558 1365 l 1,110,111
 572 1338 572 1338 582 1310 c 1,112,113
 592 1275 592 1275 592 1238 c 0,114,115
 592 1198 592 1198 562 1152 c 1,116,117
 528 1112 528 1112 472 1112 c 1,118,119
 488 1102 488 1102 512 1085 c 0,120,121
 530 1072 530 1072 548 1052 c 0,122,123
 622 970 622 970 622 860 c 0,124,125
 622 792 622 792 585 725 c 1,126,127
 552 658 552 658 472 590 c 1,128,129
 322 468 322 468 318 370 c 0,130,131
 318 362 318 362 318 352 c 0,132,133
 318 260 318 260 368 220 c 1,134,135
 422 180 422 180 535 180 c 0,136,137
 632 180 632 180 722 265 c 1,138,139
 755 300 755 300 790 352 c 1,140,141
 820 402 820 402 848 460 c 1,142,143
 885 340 885 340 975 255 c 1,144,145
 1072 170 1072 170 1172 170 c 128,-1,146
 1272 170 1272 170 1348 230 c 0,147,148
 1420 288 1420 288 1420 375 c 0,149,150
 1420 432 1420 432 1375 472 c 128,-1,151
 1330 512 1330 512 1242 548 c 1,152,-1
 1242 575 l 1,153,154
 1368 575 1368 575 1432 495 c 1,155,156
 1490 440 1490 440 1490 332 c 0,0,1
EndSplineSet
Validated: 1
EndChar

StartChar: uni0C95
Encoding: 47 3221 47
Width: 1145
GlyphClass: 2
Flags: W
LayerCount: 2
Fore
SplineSet
952 628 m 1,0,-1
 735 628 l 1,1,2
 905 498 905 498 905 340 c 0,3,4
 905 205 905 205 798 105 c 1,5,6
 688 5 688 5 535 5 c 0,7,8
 385 5 385 5 288 100 c 0,9,10
 195 192 195 192 195 315 c 0,11,12
 195 508 195 508 362 628 c 1,13,-1
 122 628 l 1,14,-1
 122 785 l 1,15,-1
 442 785 l 2,16,17
 485 785 485 785 518 808 c 1,18,19
 548 832 548 832 548 868 c 0,20,21
 548 895 548 895 530 910 c 1,22,23
 512 922 512 922 488 922 c 2,24,-1
 122 922 l 1,25,-1
 122 1085 l 1,26,-1
 540 1085 l 1,27,-1
 592 1085 l 1,28,-1
 738 1085 l 2,29,30
 772 1085 772 1085 802 1105 c 0,31,32
 838 1128 838 1128 862 1155 c 1,33,34
 898 1185 898 1185 905 1210 c 1,35,36
 918 1242 918 1242 918 1275 c 0,37,38
 918 1318 918 1318 890 1382 c 0,39,40
 860 1448 860 1448 798 1505 c 1,41,-1
 878 1482 l 1,42,43
 905 1468 905 1468 932 1438 c 1,44,45
 958 1411 958 1411 980 1372 c 0,46,47
 1000 1337 1000 1337 1015 1298 c 1,48,49
 1025 1260 1025 1260 1025 1225 c 0,50,51
 1025 1158 1025 1158 1000 1100 c 1,52,53
 970 1042 970 1042 928 1005 c 1,54,55
 882 962 882 962 830 945 c 1,56,57
 775 922 775 922 712 922 c 2,58,-1
 610 922 l 1,59,60
 618 902 618 902 618 868 c 0,61,62
 618 828 618 828 592 785 c 1,63,-1
 952 785 l 1,64,-1
 952 628 l 1,0,-1
785 408 m 0,65,66
 785 450 785 450 768 490 c 1,67,68
 748 530 748 530 712 562 c 0,69,70
 678 592 678 592 632 608 c 1,71,72
 585 628 585 628 533.5 628 c 128,-1,73
 482 628 482 628 438 608 c 1,74,75
 395 585 395 585 368 552 c 1,76,77
 342 518 342 518 328 472 c 1,78,79
 312 430 312 430 312 385 c 0,80,81
 312 305 312 305 380 248 c 0,82,83
 452 188 452 188 535 188 c 0,84,85
 625 188 625 188 695 232 c 1,86,87
 785 295 785 295 785 408 c 0,65,66
EndSplineSet
Validated: 1
Substitution2: "Single Substitution lookup 10 subtable" ardha_ka
EndChar

StartChar: uni0C96
Encoding: 48 3222 48
Width: 1802
GlyphClass: 2
Flags: W
LayerCount: 2
Fore
SplineSet
1682 545 m 0,0,1
 1682 345 1682 345 1568 185 c 1,2,3
 1510 95 1510 95 1425 48 c 0,4,5
 1340 2 1340 2 1242 2 c 0,6,7
 1095 2 1095 2 998 72 c 0,8,9
 985 82 985 82 930 130 c 1,10,11
 895 168 895 168 840 230 c 1,12,13
 770 122 770 122 670 62 c 1,14,15
 565 2 565 2 420 2 c 0,16,17
 270 2 270 2 188 60 c 1,18,19
 122 115 122 115 122 200 c 0,20,21
 122 315 122 315 248 390 c 1,22,23
 368 465 368 465 515 465 c 0,24,25
 558 465 558 465 602 460 c 1,26,27
 645 452 645 452 688 438 c 1,28,-1
 745 410 l 1,29,30
 780 395 780 395 808 375 c 1,31,32
 842 430 842 430 868 495 c 0,33,34
 895 562 895 562 900 620 c 1,35,36
 900 758 900 758 832 860 c 1,37,38
 748 972 748 972 608 972 c 0,39,40
 540 972 540 972 470 930 c 0,41,42
 405 892 405 892 405 847 c 128,-1,43
 405 802 405 802 438 780 c 1,44,45
 470 752 470 752 515 745 c 1,46,47
 508 778 508 778 505 782 c 1,48,49
 500 795 500 795 500 802 c 0,50,51
 500 835 500 835 525 860 c 0,52,53
 548 882 548 882 585 882 c 0,54,55
 620 882 620 882 642 848 c 1,56,57
 670 810 670 810 670 775 c 0,58,59
 670 730 670 730 630 700 c 0,60,61
 592 672 592 672 538 672 c 0,62,63
 495 672 495 672 455 690 c 1,64,65
 418 710 418 710 390 740 c 128,-1,66
 362 770 362 770 350 810 c 1,67,68
 332 848 332 848 332 895 c 0,69,70
 332 940 332 940 353.5 980 c 128,-1,71
 375 1020 375 1020 408 1050 c 0,72,73
 442 1080 442 1080 488 1100 c 1,74,75
 535 1118 535 1118 585 1118 c 0,76,77
 752 1118 752 1118 858 948 c 0,78,79
 950 800 950 800 950 618 c 0,80,81
 950 540 950 540 932 465 c 1,82,83
 918 400 918 400 888 318 c 1,84,85
 935 278 935 278 960 260 c 1,86,87
 980 242 980 242 1008 228 c 0,88,89
 1085 188 1085 188 1195 188 c 0,90,91
 1370 188 1370 188 1492 310 c 0,92,93
 1602 420 1602 420 1610 545 c 1,94,95
 1610 810 1610 810 1472 1025 c 0,96,97
 1398 1140 1398 1140 1310 1198 c 1,98,99
 1220 1255 1220 1255 1110 1255 c 0,100,101
 1090 1255 1090 1255 1080 1248 c 0,102,103
 1068 1240 1068 1240 1060 1235 c 1,104,105
 1058 1232 1058 1232 1051.5 1228.5 c 128,-1,106
 1045 1225 1045 1225 1042 1222 c 1,107,108
 1030 1215 1030 1215 1015 1215 c 0,109,110
 970 1215 970 1215 948 1262 c 1,111,-1
 942 1285 l 1,112,113
 942 1322 942 1322 985 1358 c 0,114,115
 1025 1392 1025 1392 1078 1392 c 0,116,117
 1305 1392 1305 1392 1495 1112 c 1,118,119
 1682 840 1682 840 1682 545 c 0,0,1
760 318 m 1,120,121
 718 355 718 355 655 380 c 1,122,123
 598 408 598 408 515 415 c 1,124,125
 420 415 420 415 325 368 c 1,126,127
 230 318 230 318 215 242 c 1,128,129
 215 192 215 192 255 168 c 0,130,131
 275 155 275 155 322 150 c 0,132,133
 365 145 365 145 445 145 c 0,134,135
 522 145 522 145 602 192 c 1,136,137
 688 238 688 238 760 318 c 1,120,121
EndSplineSet
Validated: 1
Substitution2: "Single Substitution lookup 10 subtable" ardha_kha
EndChar

StartChar: uni0C97
Encoding: 49 3223 49
Width: 1345
GlyphClass: 2
Flags: W
LayerCount: 2
Fore
SplineSet
1140 0 m 1,0,-1
 968 0 l 1,1,-1
 968 290 l 2,2,3
 968 580 968 580 865 750 c 0,4,5
 760 922 760 922 630 922 c 0,6,7
 499 922 499 922 405 752 c 0,8,9
 312 584 312 584 312 290 c 2,10,-1
 312 0 l 1,11,-1
 145 0 l 1,12,-1
 145 290 l 2,13,14
 145 530 145 530 248 700 c 1,15,16
 292 775 292 775 350 827.5 c 128,-1,17
 408 880 408 880 472 922 c 1,18,-1
 122 922 l 1,19,-1
 122 1085 l 1,20,-1
 738 1085 l 1,21,-1
 780 1085 l 1,22,-1
 935 1085 l 2,23,24
 968 1085 968 1085 1002 1105 c 1,25,26
 1032 1128 1032 1128 1060 1155 c 1,27,28
 1092 1180 1092 1180 1105 1210 c 1,29,30
 1112 1242 1112 1242 1112 1275 c 0,31,32
 1112 1320 1112 1320 1088 1382 c 1,33,34
 1060 1448 1060 1448 992 1505 c 1,35,-1
 1075 1482 l 1,36,37
 1105 1468 1105 1468 1130 1438 c 1,38,39
 1158 1410 1158 1410 1178 1372 c 1,40,41
 1198 1338 1198 1338 1210 1298 c 1,42,43
 1225 1260 1225 1260 1225 1225 c 0,44,45
 1225 1158 1225 1158 1197.5 1101.5 c 128,-1,46
 1170 1045 1170 1045 1128 1005 c 0,47,48
 1082 962 1082 962 1025 945 c 1,49,50
 970 922 970 922 912 922 c 2,51,-1
 795 922 l 1,52,53
 912 855 912 855 1002 730 c 1,54,55
 1140 532 1140 532 1140 290 c 2,56,-1
 1140 0 l 1,0,-1
EndSplineSet
Validated: 1
Substitution2: "Single Substitution lookup 10 subtable" ardha_ga
EndChar

StartChar: uni0C98
Encoding: 50 3224 50
Width: 1820
GlyphClass: 2
Flags: W
LayerCount: 2
Fore
SplineSet
1700 725 m 0,0,1
 1700 612 1700 612 1670 550 c 1,2,3
 1628 455 1628 455 1545 455 c 0,4,5
 1500 455 1500 455 1458 480 c 1,6,7
 1412 505 1412 505 1378 545 c 1,8,9
 1385 505 1385 505 1390 438 c 1,10,11
 1395 385 1395 385 1395 305 c 0,12,13
 1395 152 1395 152 1305 75 c 0,14,15
 1218 0 1218 0 1078 0 c 0,16,17
 1025 0 1025 0 980 12.5 c 128,-1,18
 935 25 935 25 895 55 c 0,19,20
 800 128 800 128 765 248 c 1,21,22
 700 0 700 0 440 0 c 0,23,24
 295 0 295 0 208 88 c 0,25,26
 122 175 122 175 122 335 c 0,27,28
 122 460 122 460 198 535 c 0,29,30
 255 592 255 592 345 592 c 0,31,32
 442 592 442 592 492 552 c 1,33,34
 545 512 545 512 545 422 c 0,35,36
 545 350 545 350 500 312 c 1,37,38
 458 278 458 278 392 278 c 1,39,-1
 385 298 l 1,40,41
 422 318 422 318 448 355 c 0,42,43
 472 390 472 390 472 420 c 1,44,45
 460 455 460 455 420 477.5 c 128,-1,46
 380 500 380 500 345 500 c 0,47,48
 268 500 268 500 218 462 c 1,49,50
 168 422 168 422 168 352 c 0,51,52
 168 272 168 272 248 225 c 1,53,54
 328 180 328 180 415 180 c 0,55,56
 472 180 472 180 522 192 c 1,57,58
 575 202 575 202 610 230 c 1,59,60
 712 290 712 290 768 410 c 1,61,62
 852 180 852 180 1032 180 c 0,63,64
 1180 180 1180 180 1262.5 244 c 128,-1,65
 1345 308 1345 308 1345 398 c 0,66,67
 1345 472 1345 472 1315 538 c 0,68,69
 1288 598 1288 598 1208 695 c 1,70,71
 1190 720 1190 720 1190 748 c 0,72,73
 1190 780 1190 780 1210 805 c 1,74,75
 1230 832 1230 832 1250 832 c 1,76,77
 1270 830 1270 830 1287.5 810 c 128,-1,78
 1305 790 1305 790 1318 762 c 1,79,-1
 1340 705 l 1,80,81
 1352 678 1352 678 1358 650 c 1,82,83
 1425 575 1425 575 1500 575 c 0,84,85
 1552 575 1552 575 1602 628 c 1,86,87
 1650 682 1650 682 1650 745 c 0,88,89
 1650 810 1650 810 1610 868 c 1,90,91
 1598 888 1598 888 1575 913 c 2,92,-1
 1522 968 l 1,93,-1
 1512 975 l 1,94,95
 1488 958 1488 958 1448 945 c 1,96,97
 1392 922 1392 922 1335 922 c 2,98,-1
 1202 922 l 1,99,-1
 1160 922 l 1,100,-1
 122 922 l 1,101,-1
 122 1085 l 1,102,-1
 1160 1085 l 1,103,-1
 1202 1085 l 1,104,-1
 1358 1085 l 2,105,106
 1392 1085 1392 1085 1425 1105 c 1,107,108
 1455 1128 1455 1128 1482 1155 c 1,109,110
 1515 1180 1515 1180 1528 1210 c 1,111,112
 1535 1242 1535 1242 1535 1275 c 0,113,114
 1535 1320 1535 1320 1510 1382 c 1,115,116
 1482 1448 1482 1448 1415 1505 c 1,117,-1
 1498 1482 l 1,118,119
 1528 1468 1528 1468 1552 1438 c 0,120,121
 1580 1402 1580 1402 1600 1372 c 1,122,123
 1620 1338 1620 1338 1632 1298 c 1,124,125
 1648 1255 1648 1255 1648 1225 c 0,126,127
 1648 1158 1648 1158 1620 1100 c 0,128,129
 1608 1075 1608 1075 1585 1045 c 1,130,131
 1620 995 1620 995 1655 912 c 1,132,133
 1678 865 1678 865 1690 815 c 1,134,135
 1700 768 1700 768 1700 725 c 0,0,1
882 -288 m 1,136,137
 882 -340 882 -340 848 -370 c 1,138,139
 810 -402 810 -402 768 -402 c 0,140,141
 718 -402 718 -402 685 -372 c 128,-1,142
 652 -342 652 -342 652 -290 c 2,143,-1
 652 -280 l 1,144,145
 655 -272 655 -272 655 -266 c 128,-1,146
 655 -260 655 -260 665 -215 c 1,147,148
 672 -172 672 -172 695 -105 c 1,149,-1
 755 88 l 1,150,-1
 780 88 l 1,151,152
 802 4 802 4 832 -82 c 0,153,154
 865 -175 865 -175 882 -288 c 1,136,137
872 725 m 0,155,156
 872 665 872 665 838 630 c 0,157,158
 802 592 802 592 745 592 c 0,159,160
 695 592 695 592 655 630 c 1,161,162
 615 665 615 665 615 725 c 0,163,164
 615 778 615 778 655 815 c 128,-1,165
 695 852 695 852 746.5 852 c 128,-1,166
 798 852 798 852 835 815 c 1,167,168
 872 775 872 775 872 725 c 0,155,156
EndSplineSet
Validated: 1
Substitution2: "Single Substitution lookup 10 subtable" ardha_gha
EndChar

StartChar: uni0C99
Encoding: 51 3225 51
Width: 1585
GlyphClass: 2
Flags: W
LayerCount: 2
Fore
SplineSet
1468 338 m 0,0,1
 1468 182 1468 182 1378 92 c 1,2,3
 1295 2 1295 2 1170 2 c 0,4,5
 1040 2 1040 2 945 77 c 128,-1,6
 850 152 850 152 820 278 c 1,7,8
 782 162 782 162 698 82 c 1,9,10
 610 2 610 2 488 2 c 0,11,12
 415 2 415 2 355 25 c 0,13,14
 292 50 292 50 250 90 c 1,15,16
 208 128 208 128 185 190 c 1,17,18
 165 235 165 235 165 290 c 0,19,20
 165 302 165 302 168 315 c 1,21,22
 172 380 172 380 207 445 c 128,-1,23
 242 510 242 510 320 580 c 1,24,25
 398 645 398 645 450 705 c 0,26,27
 500 762 500 762 500 820 c 0,28,29
 500 888 500 888 465 928 c 128,-1,30
 430 968 430 968 366 968 c 128,-1,31
 302 968 302 968 260 935 c 0,32,33
 215 900 215 900 215 845 c 0,34,35
 215 815 215 815 237.5 781.5 c 128,-1,36
 260 748 260 748 305 712 c 1,37,-1
 295 695 l 1,38,39
 208 712 208 712 165 772 c 128,-1,40
 122 832 122 832 122 912 c 0,41,42
 122 1002 122 1002 192 1068 c 1,43,44
 260 1135 260 1135 345 1135 c 0,45,46
 450 1135 450 1135 525 1055 c 0,47,48
 590 985 590 985 598 882 c 1,49,50
 652 940 652 940 698 975 c 1,51,52
 750 1020 750 1020 792 1052 c 1,53,54
 852 1090 852 1090 925 1115 c 1,55,56
 988 1135 988 1135 1058 1135 c 0,57,58
 1202 1135 1202 1135 1312 1058 c 1,59,60
 1430 980 1430 980 1430 845 c 0,61,62
 1430 792 1430 792 1400 750 c 128,-1,63
 1370 708 1370 708 1328 672 c 1,64,-1
 1312 688 l 1,65,66
 1330 722 1330 722 1330 768 c 0,67,68
 1330 862 1330 862 1237.5 927 c 128,-1,69
 1145 992 1145 992 1038 992 c 0,70,71
 880 992 880 992 752 918 c 0,72,73
 705 890 705 890 660 852 c 1,74,75
 615 812 615 812 575 762 c 1,76,77
 562 730 562 730 362 532 c 1,78,79
 282 455 282 455 282 385 c 0,80,81
 282 300 282 300 345 242.5 c 128,-1,82
 408 185 408 185 515 185 c 0,83,84
 608 185 608 185 695 272 c 1,85,86
 770 345 770 345 820 465 c 1,87,88
 842 408 842 408 872 352 c 1,89,90
 905 302 905 302 952 260 c 0,91,92
 1045 175 1045 175 1150 175 c 0,93,94
 1252 175 1252 175 1322 232 c 1,95,96
 1395 288 1395 288 1395 385 c 0,97,98
 1395 442 1395 442 1348.5 482 c 128,-1,99
 1302 522 1302 522 1215 552 c 1,100,-1
 1220 580 l 1,101,102
 1340 580 1340 580 1408 505 c 0,103,104
 1468 438 1468 438 1468 338 c 0,0,1
955 705 m 0,105,106
 955 648 955 648 918 612 c 1,107,108
 882 580 882 580 825 580 c 256,109,110
 768 580 768 580 730 612 c 1,111,112
 695 648 695 648 695 705 c 0,113,114
 695 755 695 755 735 792 c 0,115,116
 778 832 778 832 825 832 c 0,117,118
 875 832 875 832 915 795 c 128,-1,119
 955 758 955 758 955 705 c 0,105,106
EndSplineSet
Validated: 1
EndChar

StartChar: uni0C9A
Encoding: 52 3226 52
Width: 1630
GlyphClass: 2
Flags: W
LayerCount: 2
Fore
SplineSet
1420 312 m 0,0,1
 1420 200 1420 200 1340 102 c 1,2,3
 1255 2 1255 2 1168 2 c 0,4,5
 1030 2 1030 2 940 78 c 1,6,7
 850 158 850 158 815 278 c 1,8,9
 780 162 780 162 692.5 82 c 128,-1,10
 605 2 605 2 488 2 c 0,11,12
 415 2 415 2 358 28 c 1,13,14
 302 50 302 50 265 95 c 1,15,16
 225 135 225 135 208 192 c 1,17,18
 192 232 192 232 192 282 c 0,19,20
 192 295 192 295 195 312 c 1,21,22
 198 375 198 375 232 442 c 1,23,24
 268 508 268 508 342 575 c 1,25,26
 495 705 495 705 495 820 c 0,27,28
 495 888 495 888 462 928 c 0,29,30
 428 968 428 968 368 968 c 0,31,32
 300 968 300 968 259 934 c 128,-1,33
 218 900 218 900 218 845 c 0,34,35
 218 815 218 815 238 780 c 1,36,37
 260 745 260 745 308 712 c 1,38,-1
 298 695 l 1,39,40
 210 712 210 712 168 772 c 1,41,42
 122 832 122 832 122 912 c 0,43,44
 122 958 122 958 142 998 c 128,-1,45
 162 1038 162 1038 192 1068 c 0,46,47
 225 1100 225 1100 265 1117.5 c 128,-1,48
 305 1135 305 1135 350 1135 c 0,49,50
 402 1135 402 1135 442 1115 c 0,51,52
 490 1090 490 1090 522 1055 c 1,53,54
 558 1020 558 1020 575 968 c 1,55,56
 592 920 592 920 592 865 c 0,57,58
 592 808 592 808 557 735 c 128,-1,59
 522 662 522 662 415 568 c 1,60,61
 315 478 315 478 315 385 c 0,62,63
 315 300 315 300 362 242 c 0,64,65
 408 185 408 185 512 185 c 0,66,67
 565 185 565 185 612 210 c 1,68,69
 662 238 662 238 700 275 c 1,70,71
 735 312 735 312 768 365 c 1,72,73
 798 408 798 408 820 465 c 1,74,75
 838 408 838 408 872 352 c 1,76,77
 912 298 912 298 952 260 c 128,-1,78
 992 222 992 222 1048 200 c 1,79,80
 1095 175 1095 175 1148 175 c 0,81,82
 1188 175 1188 175 1225 198 c 0,83,84
 1260 220 1260 220 1290 255 c 128,-1,85
 1320 290 1320 290 1335 328 c 0,86,87
 1350 368 1350 368 1350 405 c 0,88,89
 1350 475 1350 475 1272 548 c 0,90,91
 1175 638 1175 638 1065 645 c 1,92,-1
 850 645 l 1,93,-1
 850 808 l 1,94,-1
 1162 808 l 1,95,96
 1230 830 1230 830 1230 865 c 2,97,-1
 1230 922 l 1,98,-1
 1215 922 l 1,99,-1
 1198 922 l 1,100,-1
 1062 922 l 1,101,-1
 1025 922 l 1,102,-1
 850 922 l 1,103,-1
 850 1085 l 1,104,-1
 1025 1085 l 1,105,-1
 1062 1085 l 1,106,-1
 1220 1085 l 2,107,108
 1255 1085 1255 1085 1288 1105 c 1,109,110
 1318 1125 1318 1125 1345 1155 c 1,111,112
 1380 1185 1380 1185 1390 1210 c 1,113,114
 1400 1238 1400 1238 1400 1275 c 0,115,116
 1400 1318 1400 1318 1375 1382 c 1,117,118
 1345 1448 1345 1448 1280 1505 c 1,119,-1
 1362 1482 l 1,120,121
 1388 1470 1388 1470 1418 1438 c 1,122,123
 1448 1402 1448 1402 1465 1372 c 0,124,125
 1485 1338 1485 1338 1498 1298 c 0,126,127
 1510 1260 1510 1260 1510 1225 c 0,128,129
 1510 1158 1510 1158 1482.5 1100 c 128,-1,130
 1455 1042 1455 1042 1412 1005 c 1,131,132
 1368 962 1368 962 1312 945 c 1,133,134
 1295 935 1295 935 1282 935 c 1,135,136
 1290 930 1290 930 1295 922 c 1,137,138
 1328 900 1328 900 1328 865 c 0,139,140
 1328 858 1328 858 1318 840 c 1,141,142
 1305 820 1305 820 1295 808 c 1,143,-1
 1420 808 l 1,144,-1
 1420 645 l 1,145,-1
 1238 645 l 1,146,147
 1420 540 1420 540 1420 312 c 0,0,1
EndSplineSet
Validated: 1
Substitution2: "Single Substitution lookup 10 subtable" ardha_cha
EndChar

StartChar: uni0C9B
Encoding: 53 3227 53
Width: 1620
GlyphClass: 2
Flags: W
LayerCount: 2
Fore
SplineSet
1420 472 m 0,0,1
 1420 260 1420 260 1325 130 c 1,2,3
 1230 5 1230 5 1075 5 c 0,4,5
 965 5 965 5 885 65 c 0,6,7
 802 128 802 128 765 260 c 1,8,9
 720 125 720 125 645 65 c 1,10,11
 572 5 572 5 465 5 c 0,12,13
 295 5 295 5 200 208 c 1,14,15
 165 290 165 290 145 388 c 1,16,17
 122 488 122 488 122 592 c 0,18,19
 122 820 122 820 192 958 c 1,20,21
 265 1118 265 1118 418 1118 c 0,22,23
 512 1118 512 1118 568 1050 c 1,24,25
 618 985 618 985 618 825 c 0,26,27
 618 628 618 628 418 628 c 0,28,29
 372 628 372 628 340 655 c 1,30,31
 310 682 310 682 288 718 c 1,32,33
 265 762 265 762 256.5 802 c 128,-1,34
 248 842 248 842 248 882 c 1,35,36
 208 828 208 828 192 752 c 0,37,38
 175 672 175 672 175 568 c 0,39,40
 175 512 175 512 192 448 c 0,41,42
 208 390 208 390 250 328 c 1,43,44
 350 188 350 188 488 188 c 0,45,46
 595 188 595 188 658 250 c 0,47,48
 722 313 722 313 770 465 c 1,49,50
 808 302 808 302 882 248 c 1,51,52
 958 188 958 188 1075 188 c 0,53,54
 1182 188 1182 188 1255 283 c 128,-1,55
 1328 378 1328 378 1328 500 c 0,56,57
 1328 655 1328 655 1220 790 c 0,58,59
 1165 858 1165 858 1105 890 c 1,60,61
 1048 922 1048 922 980 922 c 2,62,-1
 758 922 l 1,63,-1
 758 1085 l 1,64,-1
 1015 1085 l 1,65,-1
 1062 1085 l 1,66,-1
 1210 1085 l 2,67,68
 1248 1085 1248 1085 1278 1105 c 1,69,70
 1310 1128 1310 1128 1335 1155 c 1,71,72
 1368 1180 1368 1180 1379 1211 c 128,-1,73
 1390 1242 1390 1242 1390 1275 c 0,74,75
 1390 1318 1390 1318 1362.5 1383 c 128,-1,76
 1335 1448 1335 1448 1270 1505 c 1,77,-1
 1352 1482 l 1,78,79
 1380 1468 1380 1468 1408 1438 c 1,80,81
 1432 1410 1432 1410 1455 1372 c 1,82,83
 1472 1338 1472 1338 1488 1298 c 1,84,85
 1500 1260 1500 1260 1500 1225 c 0,86,87
 1500 1158 1500 1158 1472 1100 c 1,88,89
 1442 1042 1442 1042 1402 1005 c 1,90,91
 1358 962 1358 962 1302 945 c 1,92,93
 1248 922 1248 922 1188 922 c 2,94,-1
 1162 922 l 1,95,96
 1252 865 1252 865 1322 772 c 1,97,98
 1420 630 1420 630 1420 472 c 0,0,1
878 -288 m 1,99,100
 878 -340 878 -340 842 -370 c 1,101,102
 808 -402 808 -402 762 -402 c 0,103,104
 712 -402 712 -402 680 -372 c 128,-1,105
 648 -342 648 -342 648 -290 c 1,106,107
 647 -282 647 -282 647 -274 c 0,108,109
 647 -242 647 -242 655 -212 c 1,110,-1
 750 88 l 1,111,-1
 772 88 l 1,112,113
 797 9 797 9 825 -72 c 0,114,115
 855 -158 855 -158 865 -212 c 2,116,-1
 878 -288 l 1,99,100
568 870 m 0,117,118
 568 895 568 895 555 918 c 0,119,120
 545 935 545 935 522 958 c 1,121,122
 508 975 508 975 482 985 c 1,123,124
 460 998 460 998 440 998 c 0,125,126
 418 998 418 998 392 990 c 1,127,128
 368 980 368 980 348 965 c 1,129,130
 322 950 322 950 312 928 c 1,131,132
 298 910 298 910 298 875 c 0,133,134
 298 818 298 818 328 782 c 0,135,136
 360 745 360 745 418 745 c 0,137,138
 568 745 568 745 568 870 c 0,117,118
EndSplineSet
Validated: 1
Substitution2: "Single Substitution lookup 10 subtable" ardha_Cha
EndChar

StartChar: uni0C9C
Encoding: 54 3228 54
Width: 1590
GlyphClass: 2
Flags: W
LayerCount: 2
Fore
SplineSet
1470 338 m 0,0,1
 1470 182 1470 182 1380 92 c 1,2,3
 1298 2 1298 2 1172 2 c 0,4,5
 1042 2 1042 2 948 78 c 0,6,7
 855 152 855 152 820 278 c 1,8,9
 792 158 792 158 705 88 c 1,10,11
 610 2 610 2 488 2 c 0,12,13
 340 2 340 2 268 85 c 1,14,15
 195 165 195 165 195 312 c 0,16,17
 195 440 195 440 345 575 c 1,18,19
 500 705 500 705 500 820 c 0,20,21
 500 888 500 888 465 928 c 1,22,23
 428 968 428 968 368 968 c 0,24,25
 302 968 302 968 260 935 c 1,26,27
 218 900 218 900 218 845 c 0,28,29
 218 815 218 815 238 780 c 1,30,31
 260 745 260 745 308 712 c 1,32,-1
 298 695 l 1,33,34
 210 712 210 712 168 772 c 1,35,36
 122 832 122 832 122 912 c 0,37,38
 122 958 122 958 142 998 c 128,-1,39
 162 1038 162 1038 192 1068 c 1,40,41
 230 1100 230 1100 265 1118 c 1,42,43
 305 1135 305 1135 350 1135 c 0,44,45
 405 1135 405 1135 455 1108 c 1,46,47
 502 1078 502 1078 545 1025 c 1,48,49
 635 945 635 945 740 900 c 128,-1,50
 845 855 845 855 962 855 c 0,51,52
 1062 855 1062 855 1165 912 c 1,53,54
 1222 945 1222 945 1255 995 c 1,55,56
 1288 1042 1288 1042 1300 1130 c 1,57,58
 1352 1070 1352 1070 1352 998 c 0,59,60
 1352 888 1352 888 1238 790 c 1,61,62
 1118 695 1118 695 985 695 c 0,63,64
 890 695 890 695 775 760 c 1,65,66
 728 792 728 792 688 820 c 1,67,68
 638 858 638 858 592 905 c 1,69,70
 592 898 592 898 592 892 c 0,71,72
 592 802 592 802 562 735 c 1,73,74
 528 665 528 665 450 602 c 1,75,76
 298 472 298 472 298 385 c 128,-1,77
 298 298 298 298 352 242 c 1,78,79
 410 185 410 185 512 185 c 0,80,81
 608 185 608 185 695 272 c 1,82,83
 780 352 780 352 825 465 c 1,84,85
 862 338 862 338 955 260 c 1,86,87
 1048 175 1048 175 1152 175 c 0,88,89
 1250 175 1250 175 1325 232 c 1,90,91
 1398 290 1398 290 1398 385 c 0,92,93
 1398 442 1398 442 1352 482 c 0,94,95
 1305 522 1305 522 1215 552 c 1,96,-1
 1220 580 l 1,97,98
 1342 580 1342 580 1408 505 c 0,99,100
 1470 435 1470 435 1470 338 c 0,0,1
EndSplineSet
Validated: 1
Substitution2: "Single Substitution lookup 10 subtable" ardha_ja
EndChar

StartChar: uni0C9D
Encoding: 55 3229 55
Width: 2662
GlyphClass: 2
Flags: W
LayerCount: 2
Fore
SplineSet
1042 568 m 1,0,-1
 1042 575 l 2,1,2
 1042 650 1042 650 1008 710 c 0,3,4
 970 775 970 775 910 820 c 1,5,6
 848 870 848 870 772 898 c 1,7,8
 700 922 700 922 630 922 c 0,9,10
 555 922 555 922 482 898 c 1,11,12
 405 868 405 868 352 822 c 1,13,14
 296 778 296 778 255 710 c 0,15,16
 218 648 218 648 218 568 c 0,17,18
 218 482 218 482 252 415 c 0,19,20
 288 345 288 345 342 292 c 1,21,22
 400 242 400 242 472.5 215 c 128,-1,23
 545 188 545 188 630 188 c 0,24,25
 700 188 700 188 775 218 c 0,26,27
 848 248 848 248 910 300 c 1,28,29
 970 352 970 352 1008 422 c 1,30,31
 1042 488 1042 488 1042 562 c 2,32,-1
 1042 568 l 1,0,-1
1950 -174 m 1,33,34
 1950 -224 1950 -224 1912 -254 c 1,35,36
 1878 -284 1878 -284 1832 -284 c 0,37,38
 1780 -284 1780 -284 1750 -256 c 0,39,40
 1718 -226 1718 -226 1718 -174 c 2,41,-1
 1718 -164 l 1,42,-1
 1718 -151 l 2,43,44
 1718 -140.802 1718 -140.802 1728 -96 c 1,45,46
 1750.83 -4.64101 1750.83 -4.64101 1760 14 c 2,47,-1
 1819 134 l 1,48,-1
 1842 206 l 1,49,50
 1870 114 1870 114 1898 36 c 1,51,52
 1928 -56 1928 -56 1950 -174 c 1,33,34
1442 10 m 1,53,-1
 1224 108 l 1,54,-1
 1100 299 l 1,55,56
 1070 214 1070 214 992 145 c 1,57,58
 840 5 840 5 630 5 c 0,59,60
 418 5 418 5 272 152 c 1,61,62
 122 300 122 300 122 500 c 0,63,64
 122 635 122 635 205 745 c 1,65,66
 288 860 288 860 410 922 c 1,67,-1
 122 922 l 1,68,-1
 122 1085 l 1,69,-1
 750 1085 l 1,70,-1
 780 1085 l 1,71,-1
 948 1085 l 2,72,73
 982 1085 982 1085 1015 1105 c 1,74,75
 1048 1128 1048 1128 1072 1155 c 1,76,77
 1105 1180 1105 1180 1118 1210 c 1,78,79
 1128 1242 1128 1242 1128 1275 c 0,80,81
 1128 1318 1128 1318 1100 1383 c 128,-1,82
 1072 1448 1072 1448 1008 1505 c 1,83,-1
 1088 1482 l 1,84,85
 1118 1468 1118 1468 1142 1438 c 1,86,87
 1168 1411 1168 1411 1190 1372 c 0,88,89
 1210 1337 1210 1337 1225 1298 c 1,90,91
 1238 1260 1238 1260 1238 1225 c 0,92,93
 1238 1158 1238 1158 1210 1100 c 1,94,95
 1180 1042 1180 1042 1140 1005 c 0,96,97
 1092 962 1092 962 1038 945 c 1,98,99
 982 922 982 922 922 922 c 2,100,-1
 848 922 l 1,101,102
 962 872 962 872 1042 775 c 0,103,104
 1130.85 666.176 1130.85 666.176 1140 500 c 0,105,106
 1142.53 454.044 1142.53 454.044 1135.03 420.782 c 1,107,-1
 1161.98 336 l 1,108,109
 1345.39 188.091 1345.39 188.091 1430.5 182.5 c 0,110,111
 1600.4 171.339 1600.4 171.339 1710 300 c 0,112,113
 1802 408 1802 408 1802 548 c 0,114,115
 1802 672 1802 672 1685 772 c 1,116,117
 1562 882 1562 882 1412 882 c 1,118,119
 1340 888 1340 888 1310 918 c 1,120,121
 1275 950 1275 950 1275 980 c 0,122,123
 1275 1002 1275 1002 1300 1022 c 1,124,125
 1328 1042 1328 1042 1390 1042 c 0,126,127
 1588 1042 1588 1042 1718 872 c 1,128,129
 1851.82 712.691 1851.82 712.691 1854.93 509.16 c 1,130,131
 1890 334 1890 334 1935 267 c 1,132,133
 2010.85 185 2010.85 185 2100 185 c 0,134,135
 2304 185 2304 185 2398 295 c 0,136,137
 2495 409 2495 409 2495 542 c 0,138,139
 2495 665 2495 665 2372 768 c 1,140,141
 2252 875 2252 875 2100 875 c 1,142,143
 2030 882 2030 882 2015 912 c 1,144,145
 1998 950 1998 950 1998 975 c 0,146,147
 1998 992 1998 992 2008 1020 c 0,148,149
 2015 1038 2015 1038 2078 1038 c 0,150,151
 2274 1038 2274 1038 2408 868 c 128,-1,152
 2542 698 2542 698 2542 495 c 0,153,154
 2542 272 2542 272 2450 145 c 1,155,156
 2339.38 -21.512 2339.38 -21.512 2100 2 c 0,157,158
 1980.72 13.7155 1980.72 13.7155 1914 132 c 1,159,-1
 1846.62 375.201 l 1,160,161
 1827.09 239.58 1827.09 239.58 1762 150 c 1,162,163
 1669.32 8 1669.32 8 1442 10 c 1,53,-1
EndSplineSet
Validated: 33
Substitution2: "Single Substitution lookup 10 subtable" ardha_jha
EndChar

StartChar: uni0C9E
Encoding: 56 3230 56
Width: 2120
GlyphClass: 2
Flags: W
LayerCount: 2
Fore
SplineSet
1998 768 m 0,0,1
 1998 642 1998 642 1930 562 c 1,2,3
 1860 478 1860 478 1752 478 c 0,4,5
 1718 478 1718 478 1718 515 c 0,6,7
 1718 550 1718 550 1752 550 c 0,8,9
 1790 550 1790 550 1822 568 c 1,10,11
 1858 580 1858 580 1888 608 c 1,12,13
 1918 640 1918 640 1932 672 c 1,14,15
 1952 708 1952 708 1952 745 c 0,16,17
 1952 788 1952 788 1925 815 c 1,18,19
 1898 848 1898 848 1862 862 c 1,20,21
 1825 882 1825 882 1780 888 c 1,22,23
 1738 895 1738 895 1705 895 c 0,24,25
 1540 895 1540 895 1455 838 c 1,26,27
 1375 780 1375 780 1358 662 c 1,28,29
 1350 585 1350 585 1327.5 520 c 128,-1,30
 1305 455 1305 455 1260 412 c 1,31,32
 1285 362 1285 362 1285 278 c 0,33,34
 1285 248 1285 248 1277.5 220 c 128,-1,35
 1270 192 1270 192 1262 168 c 0,36,37
 1260 160 1260 160 1248 125 c 1,38,39
 1238 108 1238 108 1238 100 c 0,40,41
 1238 55 1238 55 1272 55 c 0,42,43
 1350 55 1350 55 1350 132 c 1,44,-1
 1392 150 l 1,45,46
 1392 78 1392 78 1352 40 c 1,47,48
 1318 0 1318 0 1258 0 c 0,49,50
 1185 0 1185 0 1145 38 c 1,51,52
 1105 72 1105 72 1105 140 c 0,53,54
 1105 162 1105 162 1112 188 c 1,55,-1
 1135 245 l 1,56,57
 1148 272 1148 272 1158 300 c 128,-1,58
 1168 328 1168 328 1170 338 c 1,59,60
 1128 318 1128 318 1088 308 c 0,61,62
 1052 298 1052 298 998 298 c 0,63,64
 918 298 918 298 860 328 c 1,65,66
 802 360 802 360 802 448 c 0,67,68
 802 528 802 528 855 558 c 0,69,70
 910 590 910 590 1015 590 c 0,71,72
 1140 590 1140 590 1215 488 c 1,73,74
 1298 560 1298 560 1298 690 c 0,75,76
 1298 745 1298 745 1278 785 c 1,77,78
 1252 822 1252 822 1220 848 c 1,79,80
 1185 870 1185 870 1138 882 c 0,81,82
 1088 895 1088 895 1045 895 c 0,83,84
 930 895 930 895 850 837.5 c 128,-1,85
 770 780 770 780 740 658 c 1,86,87
 698 780 698 780 613 837.5 c 128,-1,88
 528 895 528 895 432 895 c 0,89,90
 392 895 392 895 342 882 c 1,91,92
 300 870 300 870 265 848 c 1,93,94
 225 820 225 820 208 785 c 1,95,96
 185 748 185 748 185 700 c 0,97,98
 185 668 185 668 200 635 c 1,99,100
 215 608 215 608 238 580 c 1,101,102
 262 558 262 558 295 540 c 1,103,104
 330 528 330 528 361 528 c 128,-1,105
 392 528 392 528 392 488 c 0,106,107
 392 442 392 442 358 442 c 0,108,109
 265 442 265 442 202 522 c 1,110,111
 122 608 122 608 122 748 c 0,112,113
 122 900 122 900 210 990 c 1,114,115
 300 1078 300 1078 432 1078 c 0,116,117
 540 1078 540 1078 610 1025 c 1,118,119
 700 962 700 962 735 835 c 1,120,121
 762 958 762 958 836 1018 c 128,-1,122
 910 1078 910 1078 1020 1078 c 0,123,124
 1300 1078 1300 1078 1345 828 c 1,125,126
 1415 1078 1415 1078 1705 1078 c 0,127,128
 1832 1078 1832 1078 1915 982 c 1,129,130
 1998 890 1998 890 1998 768 c 0,0,1
1165 460 m 1,131,132
 1150 500 1150 500 1112 522 c 1,133,134
 1078 548 1078 548 1020 548 c 0,135,136
 975 548 975 548 935 528 c 128,-1,137
 895 508 895 508 895 478 c 1,138,139
 905 442 905 442 935 430 c 1,140,141
 968 418 968 418 1020 418 c 1,142,143
 1102 420 1102 420 1165 460 c 1,131,132
EndSplineSet
Validated: 1
EndChar

StartChar: uni0C9F
Encoding: 57 3231 57
Width: 1540
GlyphClass: 2
Flags: W
LayerCount: 2
Fore
SplineSet
1420 428 m 0,0,1
 1420 255 1420 255 1345 145 c 1,2,3
 1248 0 1248 0 1075 0 c 0,4,5
 965 0 965 0 878 78 c 1,6,7
 790 168 790 168 762 270 c 1,8,9
 682 0 682 0 440 0 c 0,10,11
 305 0 305 0 212 132 c 1,12,13
 168 202 168 202 145 282 c 1,14,15
 122 358 122 358 118 450 c 0,16,17
 118 458 118 458 118 468 c 0,18,19
 118 520 118 520 128 580 c 1,20,21
 140 642 140 642 165 697 c 128,-1,22
 190 752 190 752 225 792 c 128,-1,23
 260 832 260 832 305 855 c 1,24,25
 145 930 145 930 145 1050 c 0,26,27
 145 1128 145 1128 207.5 1180 c 128,-1,28
 270 1232 270 1232 358 1232 c 0,29,30
 385 1232 385 1232 408 1232 c 1,31,32
 420 1230 420 1230 430 1225 c 1,33,-1
 430 1180 l 1,34,35
 352 1180 352 1180 322 1145 c 0,36,37
 288 1105 288 1105 288 1050 c 0,38,39
 288 975 288 975 318 935 c 1,40,41
 325 912 325 912 398 875 c 1,42,43
 488 875 488 875 528 815 c 128,-1,44
 568 755 568 755 568 658 c 0,45,46
 568 568 568 568 528 515 c 1,47,48
 482 460 482 460 418 460 c 0,49,50
 248 460 248 460 248 618 c 0,51,52
 248 675 248 675 265 722 c 1,53,54
 208 665 208 665 192 600 c 1,55,56
 180 535 180 535 180 452 c 1,57,58
 192 385 192 385 208 345 c 1,59,60
 225 298 225 298 270 260 c 1,61,62
 350 185 350 185 440 185 c 0,63,64
 545 185 545 185 638 255 c 0,65,66
 728 322 728 322 770 445 c 1,67,68
 848 185 848 185 1030 185 c 0,69,70
 1162 185 1162 185 1270 260 c 1,71,72
 1372 335 1372 335 1372 450 c 0,73,74
 1372 540 1372 540 1282 592 c 1,75,76
 1198 645 1198 645 1100 645 c 2,77,-1
 992 645 l 1,78,-1
 992 762 l 1,79,-1
 1122 762 l 2,80,81
 1202 762 1202 762 1238 805 c 0,82,83
 1275 848 1275 848 1275 935 c 0,84,85
 1275 1002 1275 1002 1212 1058 c 1,86,87
 1148 1112 1148 1112 1050 1112 c 0,88,89
 1008 1112 1008 1112 990 1115 c 0,90,91
 968 1118 968 1118 968 1170 c 0,92,93
 968 1225 968 1225 1050 1225 c 0,94,95
 1198 1225 1198 1225 1268 1135 c 1,96,97
 1328 1062 1328 1062 1328 935 c 0,98,99
 1328 872 1328 872 1300 815 c 1,100,101
 1278 760 1278 760 1238 725 c 1,102,103
 1318 682 1318 682 1370 600 c 1,104,105
 1420 518 1420 518 1420 428 c 0,0,1
522 658 m 0,106,107
 522 718 522 718 495 740 c 1,108,109
 468 760 468 760 418 760 c 128,-1,110
 368 760 368 760 340 740 c 1,111,112
 312 718 312 718 312 658 c 0,113,114
 312 555 312 555 418 555 c 0,115,116
 465 555 465 555 495 580 c 1,117,118
 522 608 522 608 522 658 c 0,106,107
EndSplineSet
Validated: 1
Substitution2: "Single Substitution lookup 10 subtable" ardha_Ta
EndChar

StartChar: uni0CA0
Encoding: 58 3232 58
Width: 1340
GlyphClass: 2
Flags: W
LayerCount: 2
Fore
SplineSet
1140 495 m 0,0,1
 1140 282 1140 282 992 145 c 0,2,3
 840 5 840 5 630 5 c 128,-1,4
 420 5 420 5 270 150 c 1,5,6
 122 295 122 295 122 495 c 0,7,8
 122 630 122 630 210 750 c 1,9,10
 272 842 272 842 410 918 c 1,11,-1
 122 918 l 1,12,-1
 122 1080 l 1,13,-1
 735 1080 l 1,14,-1
 780 1080 l 1,15,-1
 930 1080 l 2,16,17
 968 1080 968 1080 998 1100 c 0,18,19
 1032 1122 1032 1122 1058 1150 c 1,20,21
 1090 1175 1090 1175 1101 1206.5 c 128,-1,22
 1112 1238 1112 1238 1112 1270 c 0,23,24
 1112 1315 1112 1315 1082 1378 c 1,25,26
 1058 1442 1058 1442 992 1500 c 1,27,-1
 1072 1478 l 1,28,29
 1100 1462 1100 1462 1128 1432 c 1,30,31
 1158 1398 1158 1398 1175 1368 c 1,32,33
 1195 1330 1195 1330 1208 1292 c 1,34,35
 1220 1250 1220 1250 1220 1220 c 0,36,37
 1220 1152 1220 1152 1192 1095 c 1,38,39
 1168 1040 1168 1040 1122 1000 c 1,40,41
 1078 958 1078 958 1025 940 c 1,42,43
 968 918 968 918 910 918 c 2,44,-1
 848 918 l 1,45,46
 961 865 961 865 1042 770 c 0,47,48
 1140 654 1140 654 1140 495 c 0,0,1
1042 562 m 0,49,50
 1042 708 1042 708 912 815 c 1,51,52
 785 918 785 918 630 918 c 0,53,54
 458 918 458 918 340 808 c 1,55,56
 218 700 218 700 218 562 c 0,57,58
 218 390 218 390 350 282 c 0,59,60
 470 185 470 185 630 185 c 128,-1,61
 790 185 790 185 912 300 c 1,62,63
 1042 415 1042 415 1042 562 c 0,49,50
755 562 m 0,64,65
 755 512 755 512 722 475 c 1,66,67
 685 438 685 438 630 438 c 0,68,69
 570 438 570 438 535 472 c 0,70,71
 500 505 500 505 500 562 c 0,72,73
 500 615 500 615 540 652 c 1,74,75
 578 690 578 690 630 690 c 128,-1,76
 682 690 682 690 718 655 c 0,77,78
 755 620 755 620 755 562 c 0,64,65
EndSplineSet
Validated: 1
Substitution2: "Single Substitution lookup 10 subtable" ardha_Tha
EndChar

StartChar: uni0CA1
Encoding: 59 3233 59
Width: 1602
GlyphClass: 2
Flags: W
LayerCount: 2
Fore
SplineSet
1442 362 m 0,0,1
 1442 282 1442 282 1420 220 c 128,-1,2
 1398 158 1398 158 1350 108 c 0,3,4
 1305 60 1305 60 1242.5 32.5 c 128,-1,5
 1180 5 1180 5 1100 5 c 0,6,7
 968 5 968 5 882 82 c 1,8,9
 852 112 852 112 820 162 c 1,10,11
 792 208 792 208 768 272 c 1,12,13
 730 152 730 152 652 85 c 1,14,15
 575 5 575 5 440 5 c 0,16,17
 288 5 288 5 205 115 c 1,18,19
 122 228 122 228 122 385 c 0,20,21
 122 578 122 578 238 725 c 1,22,23
 335 842 335 842 500 922 c 1,24,-1
 122 922 l 1,25,-1
 122 1085 l 1,26,-1
 998 1085 l 1,27,-1
 1140 1085 l 1,28,-1
 1192 1085 l 2,29,30
 1228 1085 1228 1085 1260 1105 c 1,31,32
 1292 1128 1292 1128 1318 1155 c 1,33,34
 1352 1185 1352 1185 1362 1210 c 1,35,36
 1372 1242 1372 1242 1372 1275 c 0,37,38
 1372 1320 1372 1320 1345 1382 c 1,39,40
 1318 1448 1318 1448 1250 1505 c 1,41,-1
 1335 1482 l 1,42,43
 1362 1468 1362 1468 1390 1438 c 1,44,45
 1418 1402 1418 1402 1438 1372 c 1,46,47
 1458 1338 1458 1338 1470 1298 c 0,48,49
 1482 1255 1482 1255 1482 1225 c 0,50,51
 1482 1159 1482 1159 1455 1100 c 0,52,53
 1429 1045 1429 1045 1385 1005 c 1,54,55
 1340 962 1340 962 1285 945 c 1,56,57
 1230 922 1230 922 1170 922 c 2,58,-1
 1140 922 l 1,59,-1
 1085 922 l 1,60,61
 1122 910 1122 910 1175 882 c 1,62,63
 1215 862 1215 862 1242 820 c 1,64,65
 1318 722 1318 722 1318 618 c 1,66,67
 1442 485 1442 485 1442 362 c 0,0,1
1350 408 m 0,68,69
 1350 495 1350 495 1295 562 c 1,70,71
 1230 442 1230 442 1075 442 c 0,72,73
 1015 442 1015 442 948 478 c 1,74,75
 875 522 875 522 875 592 c 0,76,77
 875 655 875 655 942 700 c 1,78,79
 1015 742 1015 742 1075 742 c 0,80,81
 1130 742 1130 742 1168 730 c 1,82,83
 1208 720 1208 720 1248 690 c 1,84,85
 1232 820 1232 820 1078 882 c 1,86,-1
 1015 900 l 2,87,88
 995 905 995 905 955 912 c 0,89,90
 925 918 925 918 888 922 c 1,91,-1
 792 922 l 2,92,93
 535 922 535 922 370 780 c 1,94,95
 218 640 218 640 218 455 c 0,96,97
 218 408 218 408 232 352 c 1,98,99
 250 305 250 305 282 268 c 0,100,101
 312 232 312 232 362 208 c 0,102,103
 402 188 402 188 465 188 c 0,104,105
 580 188 580 188 650 265 c 1,106,107
 725 345 725 345 768 472 c 1,108,109
 815 332 815 332 890 260 c 128,-1,110
 965 188 965 188 1075 188 c 0,111,112
 1122 188 1122 188 1170 202 c 0,113,114
 1215 215 1215 215 1260 248 c 1,115,116
 1295 272 1295 272 1322 318 c 1,117,118
 1350 358 1350 358 1350 408 c 0,68,69
1242 635 m 1,119,120
 1172 695 1172 695 1075 695 c 0,121,122
 1032 695 1032 695 990 675 c 1,123,124
 948 652 948 652 948 615 c 0,125,126
 948 580 948 580 985 558 c 0,127,128
 1025 535 1025 535 1075 535 c 0,129,130
 1128 535 1128 535 1178 568 c 1,131,132
 1230 600 1230 600 1242 635 c 1,119,120
EndSplineSet
Validated: 1
Substitution2: "Single Substitution lookup 10 subtable" ardha_Da
EndChar

StartChar: uni0CA2
Encoding: 60 3234 60
Width: 1602
GlyphClass: 2
Flags: W
LayerCount: 2
Fore
SplineSet
1442 362 m 0,0,1
 1442 282 1442 282 1420 220 c 128,-1,2
 1398 158 1398 158 1350 108 c 0,3,4
 1305 60 1305 60 1242.5 32.5 c 128,-1,5
 1180 5 1180 5 1100 5 c 0,6,7
 968 5 968 5 882 82 c 1,8,9
 852 112 852 112 820 162 c 1,10,11
 792 208 792 208 768 272 c 1,12,13
 730 152 730 152 652 85 c 1,14,15
 575 5 575 5 440 5 c 0,16,17
 288 5 288 5 205 115 c 1,18,19
 122 228 122 228 122 385 c 0,20,21
 122 578 122 578 238 725 c 1,22,23
 335 842 335 842 500 922 c 1,24,-1
 122 922 l 1,25,-1
 122 1085 l 1,26,-1
 998 1085 l 1,27,-1
 1140 1085 l 1,28,-1
 1192 1085 l 2,29,30
 1228 1085 1228 1085 1260 1105 c 1,31,32
 1292 1128 1292 1128 1318 1155 c 1,33,34
 1352 1185 1352 1185 1362 1210 c 1,35,36
 1372 1242 1372 1242 1372 1275 c 0,37,38
 1372 1320 1372 1320 1345 1382 c 1,39,40
 1318 1448 1318 1448 1250 1505 c 1,41,-1
 1335 1482 l 1,42,43
 1362 1468 1362 1468 1390 1438 c 1,44,45
 1418 1402 1418 1402 1438 1372 c 1,46,47
 1458 1338 1458 1338 1470 1298 c 0,48,49
 1482 1255 1482 1255 1482 1225 c 0,50,51
 1482 1159 1482 1159 1455 1100 c 0,52,53
 1429 1045 1429 1045 1385 1005 c 1,54,55
 1340 962 1340 962 1285 945 c 1,56,57
 1230 922 1230 922 1170 922 c 2,58,-1
 1140 922 l 1,59,-1
 1085 922 l 1,60,61
 1122 910 1122 910 1175 882 c 1,62,63
 1215 862 1215 862 1242 820 c 1,64,65
 1318 722 1318 722 1318 618 c 1,66,67
 1442 485 1442 485 1442 362 c 0,0,1
1350 408 m 0,68,69
 1350 495 1350 495 1295 562 c 1,70,71
 1230 442 1230 442 1075 442 c 0,72,73
 1015 442 1015 442 948 478 c 1,74,75
 875 522 875 522 875 592 c 0,76,77
 875 655 875 655 942 700 c 1,78,79
 1015 742 1015 742 1075 742 c 0,80,81
 1130 742 1130 742 1168 730 c 1,82,83
 1208 720 1208 720 1248 690 c 1,84,85
 1232 820 1232 820 1078 882 c 1,86,-1
 1015 900 l 2,87,88
 995 905 995 905 955 912 c 0,89,90
 925 918 925 918 888 922 c 1,91,-1
 792 922 l 2,92,93
 535 922 535 922 370 780 c 1,94,95
 218 640 218 640 218 455 c 0,96,97
 218 408 218 408 232 352 c 1,98,99
 250 305 250 305 282 268 c 0,100,101
 312 232 312 232 362 208 c 0,102,103
 402 188 402 188 465 188 c 0,104,105
 580 188 580 188 650 265 c 1,106,107
 725 345 725 345 768 472 c 1,108,109
 815 332 815 332 890 260 c 128,-1,110
 965 188 965 188 1075 188 c 0,111,112
 1122 188 1122 188 1170 202 c 0,113,114
 1215 215 1215 215 1260 248 c 1,115,116
 1295 272 1295 272 1322 318 c 1,117,118
 1350 358 1350 358 1350 408 c 0,68,69
1242 635 m 1,119,120
 1172 695 1172 695 1075 695 c 0,121,122
 1032 695 1032 695 990 675 c 1,123,124
 948 652 948 652 948 615 c 0,125,126
 948 580 948 580 985 558 c 0,127,128
 1025 535 1025 535 1075 535 c 0,129,130
 1128 535 1128 535 1178 568 c 1,131,132
 1230 600 1230 600 1242 635 c 1,119,120
888 -288 m 1,133,134
 888 -338 888 -338 850 -368 c 1,135,136
 818 -398 818 -398 770 -398 c 0,137,138
 718 -398 718 -398 688 -370 c 0,139,140
 655 -340 655 -340 655 -288 c 1,141,142
 654 -280 654 -280 654 -272 c 0,143,144
 654 -240 654 -240 662 -210 c 1,145,-1
 758 92 l 1,146,-1
 780 92 l 1,147,148
 802 12 802 12 832 -70 c 0,149,150
 865 -161 865 -161 872 -210 c 1,151,-1
 888 -288 l 1,133,134
EndSplineSet
Validated: 1
Substitution2: "Single Substitution lookup 10 subtable" ardha_Dha
EndChar

StartChar: uni0CA3
Encoding: 61 3235 61
Width: 1682
GlyphClass: 2
Flags: W
LayerCount: 2
Fore
SplineSet
1562 540 m 0,0,1
 1562 322 1562 322 1485 180 c 1,2,3
 1380 0 1380 0 1172 0 c 0,4,5
 1060 0 1060 0 965 78 c 1,6,7
 850 170 850 170 850 310 c 0,8,9
 850 400 850 400 922 478 c 1,10,11
 988 552 988 552 1075 552 c 0,12,13
 1160 552 1160 552 1220 505 c 128,-1,14
 1280 458 1280 458 1280 380 c 0,15,16
 1280 318 1280 318 1242 272 c 0,17,18
 1208 230 1208 230 1128 230 c 1,19,-1
 1122 255 l 1,20,21
 1158 272 1158 272 1180 300 c 1,22,23
 1208 328 1208 328 1208 358 c 0,24,25
 1208 400 1208 400 1163 430 c 128,-1,26
 1118 460 1118 460 1075 460 c 0,27,28
 1002 460 1002 460 952 418 c 0,29,30
 900 375 900 375 900 310 c 0,31,32
 900 215 900 215 982.5 165 c 128,-1,33
 1065 115 1065 115 1172 115 c 0,34,35
 1290 115 1290 115 1398 230 c 0,36,37
 1515 355 1515 355 1515 518 c 0,38,39
 1515 675 1515 675 1392 792 c 1,40,41
 1268 918 1268 918 1075 918 c 0,42,43
 962 918 962 918 895 858 c 1,44,45
 830 798 830 798 768 642 c 1,46,47
 718 780 718 780 638 849 c 128,-1,48
 558 918 558 918 460 918 c 0,49,50
 358 918 358 918 290 860 c 128,-1,51
 222 802 222 802 222 725 c 0,52,53
 222 672 222 672 245 638 c 1,54,55
 265 598 265 598 305 575 c 1,56,57
 340 548 340 548 385 530 c 1,58,59
 402 522 402 522 482 495 c 1,60,61
 415 472 415 472 385 458 c 0,62,63
 340 438 340 438 310 412 c 0,64,65
 278 385 278 385 260 351.5 c 128,-1,66
 242 318 242 318 242 265 c 0,67,68
 242 198 242 198 288 152 c 1,69,70
 335 110 335 110 405 110 c 0,71,72
 450 110 450 110 482 122 c 0,73,74
 518 135 518 135 580 180 c 1,75,76
 552 82 552 82 490 42 c 1,77,78
 430 0 430 0 350 0 c 0,79,80
 255 0 255 0 195 65 c 1,81,82
 132 128 132 128 128 210 c 0,83,84
 128 225 128 225 128 225 c 2,85,86
 128 268 128 268 135 305 c 1,87,88
 145 348 145 348 168 385 c 0,89,90
 190 420 190 420 232 452 c 1,91,92
 272 480 272 480 332 495 c 1,93,94
 220 540 220 540 168 620 c 1,95,96
 122 688 122 688 122 782 c 0,97,98
 122 798 122 798 122 815 c 1,99,100
 135 942 135 942 215 1010 c 1,101,102
 295 1080 295 1080 442 1080 c 0,103,104
 568 1080 568 1080 658 998 c 1,105,106
 740 920 740 920 770 808 c 1,107,108
 818 935 818 935 900 1002 c 1,109,110
 992 1080 992 1080 1152 1080 c 0,111,112
 1335 1080 1335 1080 1455 905 c 0,113,114
 1508 828 1508 828 1535 735 c 1,115,116
 1562 650 1562 650 1562 540 c 0,0,1
EndSplineSet
Validated: 1
Substitution2: "Single Substitution lookup 10 subtable" ardha_Na
EndChar

StartChar: uni0CA4
Encoding: 62 3236 62
Width: 1362
GlyphClass: 2
Flags: W
LayerCount: 2
Fore
SplineSet
1185 408 m 0,0,1
 1185 232 1185 232 1015 112 c 1,2,3
 860 5 860 5 655 5 c 0,4,5
 442 5 442 5 282 120 c 1,6,7
 128 238 128 238 128 392 c 0,8,9
 128 435 128 435 138 465 c 1,10,11
 145 490 145 490 168 535 c 1,12,-1
 195 535 l 1,13,14
 195 345 195 345 352 255 c 0,15,16
 470 188 470 188 655 188 c 0,17,18
 815 188 815 188 945 265 c 1,19,20
 1090 340 1090 340 1090 478 c 0,21,22
 1090 528 1090 528 1065 570 c 0,23,24
 1038 615 1038 615 992 650 c 1,25,26
 975 608 975 608 942 570 c 1,27,28
 910 535 910 535 860 505 c 1,29,30
 760 442 760 442 655 442 c 0,31,32
 558 442 558 442 495 480 c 1,33,34
 435 518 435 518 435 592 c 0,35,36
 435 695 435 695 515 740 c 1,37,38
 598 785 598 785 705 785 c 0,39,40
 855 785 855 785 918 752 c 1,41,-1
 918 798 l 1,42,43
 915 815 915 815 905 840 c 128,-1,44
 895 865 895 865 848 895 c 1,45,46
 800 922 800 922 750 922 c 2,47,-1
 122 922 l 1,48,-1
 122 1085 l 1,49,-1
 758 1085 l 1,50,-1
 835 1085 l 1,51,-1
 955 1085 l 2,52,53
 990 1085 990 1085 1020 1105 c 128,-1,54
 1050 1125 1050 1125 1080 1155 c 1,55,56
 1115 1185 1115 1185 1122 1210 c 1,57,58
 1135 1238 1135 1238 1135 1275 c 0,59,60
 1135 1318 1135 1318 1108 1382 c 1,61,62
 1078 1450 1078 1450 1015 1505 c 1,63,-1
 1095 1482 l 1,64,65
 1122 1470 1122 1470 1152 1438 c 1,66,67
 1180 1402 1180 1402 1198 1372 c 0,68,69
 1218 1338 1218 1338 1232 1298 c 1,70,71
 1242 1260 1242 1260 1242 1225 c 0,72,73
 1242 1158 1242 1158 1218 1100 c 1,74,75
 1188 1042 1188 1042 1148 1005 c 0,76,77
 1100 962 1100 962 1048 945 c 1,78,79
 992 922 992 922 930 922 c 2,80,-1
 912 922 l 1,81,82
 942 895 942 895 970 850 c 1,83,84
 992 812 992 812 998 782 c 1,85,86
 1008 750 1008 750 1008 705 c 1,87,88
 1100 642 1100 642 1145 558 c 1,89,90
 1185 488 1185 488 1185 408 c 0,0,1
905 705 m 1,91,92
 875 720 875 720 827.5 731 c 128,-1,93
 780 742 780 742 750 742 c 0,94,95
 528 742 528 742 528 638 c 0,96,97
 528 600 528 600 568 580 c 1,98,99
 602 558 602 558 655 558 c 0,100,101
 748 558 748 558 816.5 599 c 128,-1,102
 885 640 885 640 905 705 c 1,91,92
EndSplineSet
Validated: 1
Substitution2: "Single Substitution lookup 10 subtable" ardha_ta
EndChar

StartChar: uni0CA5
Encoding: 63 3237 63
Width: 1612
GlyphClass: 2
Flags: W
LayerCount: 2
Fore
SplineSet
1420 380 m 0,0,1
 1420 222 1420 222 1340 118 c 1,2,3
 1250 5 1250 5 1100 5 c 0,4,5
 975 5 975 5 895 75 c 128,-1,6
 815 145 815 145 768 270 c 1,7,8
 730 150 730 150 652 78 c 1,9,10
 562 5 562 5 440 5 c 0,11,12
 288 5 288 5 205 112.5 c 128,-1,13
 122 220 122 220 122 380 c 0,14,15
 122 575 122 575 238 722 c 1,16,17
 285 785 285 785 352 835 c 0,18,19
 415 882 415 882 500 922 c 1,20,-1
 122 922 l 1,21,-1
 122 1085 l 1,22,-1
 1008 1085 l 1,23,-1
 1062 1085 l 1,24,-1
 1202 1085 l 2,25,26
 1238 1085 1238 1085 1270 1105 c 1,27,28
 1302 1128 1302 1128 1328 1155 c 1,29,30
 1360 1180 1360 1180 1372 1210 c 1,31,32
 1382 1242 1382 1242 1382 1275 c 0,33,34
 1382 1320 1382 1320 1355 1382 c 1,35,36
 1328 1448 1328 1448 1262 1505 c 1,37,-1
 1345 1482 l 1,38,39
 1372 1468 1372 1468 1398 1438 c 1,40,41
 1425 1410 1425 1410 1448 1372 c 0,42,43
 1468 1338 1468 1338 1480 1298 c 0,44,45
 1492 1260 1492 1260 1492 1225 c 0,46,47
 1492 1158 1492 1158 1465 1101.5 c 128,-1,48
 1438 1045 1438 1045 1395 1005 c 0,49,50
 1350 962 1350 962 1295 945 c 1,51,52
 1238 922 1238 922 1180 922 c 2,53,-1
 1062 922 l 1,54,-1
 1045 922 l 1,55,56
 1198 842 1198 842 1302 718 c 1,57,58
 1420 575 1420 575 1420 380 c 0,0,1
1328 450 m 0,59,60
 1328 641 1328 641 1185 775 c 0,61,62
 1028 922 1028 922 768 922 c 0,63,64
 515 922 515 922 358 780 c 1,65,66
 218 645 218 645 218 450 c 0,67,68
 218 402 218 402 232 350 c 1,69,70
 250 305 250 305 282.5 265 c 128,-1,71
 315 225 315 225 362 208 c 1,72,73
 408 185 408 185 465 185 c 0,74,75
 578 185 578 185 645 237.5 c 128,-1,76
 712 290 712 290 768 415 c 1,77,78
 822 295 822 295 892 238 c 1,79,80
 962 185 962 185 1075 185 c 0,81,82
 1125 185 1125 185 1175 208 c 1,83,84
 1220 230 1220 230 1255 267.5 c 128,-1,85
 1290 305 1290 305 1310 352 c 1,86,87
 1328 402 1328 402 1328 450 c 0,59,60
888 -290 m 1,88,89
 888 -342 888 -342 850 -375 c 0,90,91
 815 -405 815 -405 770 -405 c 0,92,93
 720 -405 720 -405 687.5 -375 c 128,-1,94
 655 -345 655 -345 655 -295 c 2,95,-1
 655 -282 l 1,96,-1
 655 -270 l 1,97,98
 658 -255 658 -255 668 -215 c 1,99,100
 672 -182 672 -182 698 -110 c 1,101,-1
 758 85 l 1,102,-1
 780 85 l 1,103,104
 805 2 805 2 835 -88 c 128,-1,105
 865 -178 865 -178 888 -290 c 1,88,89
900 635 m 128,-1,107
 900 580 900 580 862 545 c 1,108,109
 828 510 828 510 768 510 c 0,110,111
 718 510 718 510 678 545 c 128,-1,112
 638 580 638 580 638 635 c 0,113,114
 638 688 638 688 678 728 c 1,115,116
 718 762 718 762 769 762 c 128,-1,117
 820 762 820 762 860 728 c 1,118,106
 900 690 900 690 900 635 c 128,-1,107
EndSplineSet
Validated: 1
Substitution2: "Single Substitution lookup 10 subtable" ardha_tha
EndChar

StartChar: uni0CA6
Encoding: 64 3238 64
Width: 1600
GlyphClass: 2
Flags: W
LayerCount: 2
Fore
SplineSet
1420 385 m 0,0,1
 1420 228 1420 228 1340 122 c 1,2,3
 1250 5 1250 5 1100 5 c 0,4,5
 975 5 975 5 895 82 c 1,6,7
 812 155 812 155 768 272 c 1,8,9
 730 152 730 152 652 85 c 1,10,11
 575 5 575 5 440 5 c 0,12,13
 288 5 288 5 205 115 c 1,14,15
 122 228 122 228 122 385 c 0,16,17
 122 578 122 578 238 725 c 1,18,19
 335 842 335 842 500 922 c 1,20,-1
 122 922 l 1,21,-1
 122 1085 l 1,22,-1
 992 1085 l 1,23,-1
 1118 1085 l 1,24,-1
 1190 1085 l 2,25,26
 1225 1085 1225 1085 1258 1105 c 1,27,28
 1290 1128 1290 1128 1318 1155 c 0,29,30
 1350 1185 1350 1185 1358 1210 c 1,31,32
 1370 1240 1370 1240 1370 1275 c 0,33,34
 1370 1320 1370 1320 1342 1382 c 1,35,36
 1318 1448 1318 1448 1248 1505 c 1,37,-1
 1330 1482 l 1,38,39
 1360 1468 1360 1468 1385 1438 c 0,40,41
 1415 1402 1415 1402 1432 1372 c 1,42,43
 1455 1338 1455 1338 1468 1298 c 1,44,45
 1480 1255 1480 1255 1480 1225 c 0,46,47
 1480 1158 1480 1158 1452.5 1101.5 c 128,-1,48
 1425 1045 1425 1045 1382 1005 c 1,49,50
 1338 962 1338 962 1282 945 c 1,51,52
 1225 922 1225 922 1168 922 c 2,53,-1
 1118 922 l 1,54,-1
 1038 922 l 1,55,56
 1210 842 1210 842 1302 718 c 1,57,58
 1420 570 1420 570 1420 385 c 0,0,1
1328 455 m 0,59,60
 1328 645 1328 645 1185 780 c 1,61,62
 1025 922 1025 922 768 922 c 0,63,64
 515 922 515 922 358 780 c 1,65,66
 218 645 218 645 218 455 c 0,67,68
 218 408 218 408 232 352 c 1,69,70
 250 305 250 305 282 268 c 0,71,72
 312 232 312 232 362 208 c 0,73,74
 402 188 402 188 465 188 c 0,75,76
 580 188 580 188 645 242 c 1,77,78
 710 292 710 292 768 418 c 1,79,80
 822 295 822 295 892 242 c 1,81,82
 958 188 958 188 1075 188 c 0,83,84
 1128 188 1128 188 1175 210 c 0,85,86
 1220 232 1220 232 1255 270 c 128,-1,87
 1290 308 1290 308 1310 358 c 1,88,89
 1328 408 1328 408 1328 455 c 0,59,60
EndSplineSet
Validated: 1
Substitution2: "Single Substitution lookup 10 subtable" ardha_da
EndChar

StartChar: uni0CA7
Encoding: 65 3239 65
Width: 1600
GlyphClass: 2
Flags: W
LayerCount: 2
Fore
SplineSet
1420 385 m 0,0,1
 1420 228 1420 228 1340 122 c 1,2,3
 1250 5 1250 5 1100 5 c 0,4,5
 975 5 975 5 895 82 c 1,6,7
 812 155 812 155 768 272 c 1,8,9
 730 152 730 152 652 85 c 1,10,11
 575 5 575 5 440 5 c 0,12,13
 288 5 288 5 205 115 c 1,14,15
 122 228 122 228 122 385 c 0,16,17
 122 578 122 578 238 725 c 1,18,19
 335 842 335 842 500 922 c 1,20,-1
 122 922 l 1,21,-1
 122 1085 l 1,22,-1
 992 1085 l 1,23,-1
 1118 1085 l 1,24,-1
 1190 1085 l 2,25,26
 1225 1085 1225 1085 1258 1105 c 1,27,28
 1290 1128 1290 1128 1318 1155 c 0,29,30
 1350 1185 1350 1185 1358 1210 c 1,31,32
 1370 1240 1370 1240 1370 1275 c 0,33,34
 1370 1320 1370 1320 1342 1382 c 1,35,36
 1318 1448 1318 1448 1248 1505 c 1,37,-1
 1330 1482 l 1,38,39
 1360 1468 1360 1468 1385 1438 c 0,40,41
 1415 1402 1415 1402 1432 1372 c 1,42,43
 1455 1338 1455 1338 1468 1298 c 1,44,45
 1480 1255 1480 1255 1480 1225 c 0,46,47
 1480 1158 1480 1158 1452.5 1101.5 c 128,-1,48
 1425 1045 1425 1045 1382 1005 c 1,49,50
 1338 962 1338 962 1282 945 c 1,51,52
 1225 922 1225 922 1168 922 c 2,53,-1
 1118 922 l 1,54,-1
 1038 922 l 1,55,56
 1210 842 1210 842 1302 718 c 1,57,58
 1420 570 1420 570 1420 385 c 0,0,1
1328 455 m 0,59,60
 1328 645 1328 645 1185 780 c 1,61,62
 1025 922 1025 922 768 922 c 0,63,64
 515 922 515 922 358 780 c 1,65,66
 218 645 218 645 218 455 c 0,67,68
 218 408 218 408 232 352 c 1,69,70
 250 305 250 305 282 268 c 0,71,72
 312 232 312 232 362 208 c 0,73,74
 402 188 402 188 465 188 c 0,75,76
 580 188 580 188 645 242 c 1,77,78
 710 292 710 292 768 418 c 1,79,80
 822 295 822 295 892 242 c 1,81,82
 958 188 958 188 1075 188 c 0,83,84
 1128 188 1128 188 1175 210 c 0,85,86
 1220 232 1220 232 1255 270 c 128,-1,87
 1290 308 1290 308 1310 358 c 1,88,89
 1328 408 1328 408 1328 455 c 0,59,60
888 -290 m 1,90,91
 888 -342 888 -342 850 -375 c 0,92,93
 815 -405 815 -405 770 -405 c 0,94,95
 720 -405 720 -405 687.5 -375 c 128,-1,96
 655 -345 655 -345 655 -295 c 2,97,-1
 655 -282 l 2,98,99
 655 -248 655 -248 662 -215 c 1,100,-1
 758 88 l 1,101,-1
 780 88 l 1,102,103
 802 8 802 8 832 -75 c 1,104,105
 865 -162 865 -162 872 -215 c 1,106,-1
 888 -290 l 1,90,91
EndSplineSet
Validated: 1
Substitution2: "Single Substitution lookup 10 subtable" ardha_dha
EndChar

StartChar: uni0CA8
Encoding: 66 3240 66
Width: 1385
GlyphClass: 2
Flags: W
LayerCount: 2
Fore
SplineSet
1192 408 m 0,0,1
 1192 248 1192 248 1140 145 c 0,2,3
 1068 5 1068 5 922 5 c 0,4,5
 752 5 752 5 682 222 c 1,6,7
 605 440 605 440 452 440 c 0,8,9
 335 440 335 440 250 370 c 1,10,11
 175 310 175 310 175 248 c 0,12,13
 175 200 175 200 238 145 c 1,14,15
 312 78 312 78 410 50 c 1,16,17
 455 30 455 30 455 0 c 1,18,19
 450 0 450 0 430 -5 c 128,-1,20
 410 -10 410 -10 380 -10 c 1,21,22
 308 -2 308 -2 260 20 c 1,23,24
 215 45 215 45 192 78 c 1,25,26
 162 125 162 125 145 195 c 1,27,28
 122 270 122 270 122 328 c 0,29,30
 122 465 122 465 215 550 c 1,31,32
 295 628 295 628 380 628 c 0,33,34
 568 628 568 628 645 408 c 128,-1,35
 722 188 722 188 875 188 c 0,36,37
 1100 188 1100 188 1100 472 c 0,38,39
 1100 620 1100 620 980 755 c 1,40,41
 838 922 838 922 618 922 c 2,42,-1
 130 922 l 1,43,-1
 130 1085 l 1,44,-1
 780 1085 l 1,45,-1
 842 1085 l 1,46,-1
 975 1085 l 2,47,48
 1010 1085 1010 1085 1042 1105 c 1,49,50
 1075 1128 1075 1128 1100 1155 c 1,51,52
 1135 1185 1135 1185 1145 1210 c 1,53,54
 1155 1240 1155 1240 1155 1275 c 0,55,56
 1155 1318 1155 1318 1127.5 1383 c 128,-1,57
 1100 1448 1100 1448 1032 1505 c 1,58,-1
 1118 1482 l 1,59,60
 1145 1468 1145 1468 1170 1438 c 0,61,62
 1200 1402 1200 1402 1220 1372 c 1,63,64
 1240 1335 1240 1335 1250 1298 c 1,65,66
 1265 1260 1265 1260 1265 1225 c 0,67,68
 1265 1158 1265 1158 1238 1100 c 1,69,70
 1210 1045 1210 1045 1168 1005 c 0,71,72
 1122 962 1122 962 1068 945 c 1,73,74
 1010 922 1010 922 952 922 c 2,75,-1
 830 922 l 1,76,77
 910 882 910 882 975 825 c 1,78,79
 1048 765 1048 765 1092 700 c 1,80,81
 1140 635 1140 635 1168 558 c 1,82,83
 1192 488 1192 488 1192 408 c 0,0,1
EndSplineSet
Validated: 1
Substitution2: "Single Substitution lookup 10 subtable" ardha_na
EndChar

StartChar: uni0CAA
Encoding: 67 3242 67
Width: 1585
GlyphClass: 2
Flags: W
LayerCount: 2
Fore
SplineSet
865 732.5 m 128,-1,1
 865 675 865 675 832 638 c 0,2,3
 795 598 795 598 738.5 598 c 128,-1,4
 682 598 682 598 642 638 c 128,-1,5
 602 678 602 678 602 734 c 128,-1,6
 602 790 602 790 645 822 c 1,7,8
 685 858 685 858 740 858 c 0,9,10
 792 858 792 858 830 822 c 0,11,0
 865 790 865 790 865 732.5 c 128,-1,1
1388 312 m 0,12,13
 1388 158 1388 158 1300 85 c 0,14,15
 1210 10 1210 10 1065 10 c 0,16,17
 975 10 975 10 888 60 c 1,18,19
 792 128 792 128 758 250 c 1,20,21
 722 122 722 122 640 66 c 128,-1,22
 558 10 558 10 432 10 c 0,23,24
 288 10 288 10 205 95 c 128,-1,25
 122 180 122 180 122 340 c 0,26,27
 122 472 122 472 188 538 c 0,28,29
 248 598 248 598 340 598 c 128,-1,30
 432 598 432 598 485 558 c 1,31,32
 540 520 540 520 540 428 c 0,33,34
 540 355 540 355 495 318 c 1,35,36
 450 278 450 278 385 278 c 1,37,-1
 380 302 l 1,38,39
 390 308 390 308 408 328 c 0,40,41
 418 338 418 338 435 362 c 1,42,43
 442 370 442 370 458 398 c 1,44,45
 465 418 465 418 465 422 c 0,46,47
 455 465 455 465 415 486.5 c 128,-1,48
 375 508 375 508 340 508 c 0,49,50
 260 508 260 508 215 468 c 128,-1,51
 170 428 170 428 170 358 c 0,52,53
 170 312 170 312 195 278 c 1,54,55
 215 248 215 248 255 225 c 0,56,57
 288 205 288 205 330 195 c 0,58,59
 375 185 375 185 410 185 c 0,60,61
 518 185 518 185 610 238 c 1,62,63
 705 295 705 295 762 412 c 1,64,65
 848 185 848 185 1020 185 c 0,66,67
 1168 185 1168 185 1255 248 c 0,68,69
 1340 310 1340 310 1340 402 c 0,70,71
 1340 522 1340 522 1198 695 c 1,72,73
 1182 712 1182 712 1182 750 c 0,74,75
 1182 782 1182 782 1202 808 c 0,76,77
 1220 832 1220 832 1242.5 832 c 128,-1,78
 1265 832 1265 832 1288 802 c 1,79,80
 1340 722 1340 722 1362 598 c 1,81,82
 1388 470 1388 470 1388 312 c 0,12,13
1465 1225 m 1,83,84
 1465 1158 1465 1158 1438 1100 c 1,85,86
 1410 1045 1410 1045 1368 1005 c 1,87,88
 1318 962 1318 962 1268 945 c 1,89,90
 1212 922 1212 922 1158 922 c 2,91,-1
 1152 922 l 1,92,-1
 978 922 l 1,93,-1
 122 922 l 1,94,-1
 122 1085 l 1,95,-1
 978 1085 l 1,96,-1
 1158 1085 l 1,97,-1
 1175 1085 l 2,98,99
 1210 1085 1210 1085 1242 1105 c 1,100,101
 1270 1125 1270 1125 1300 1155 c 1,102,103
 1335 1185 1335 1185 1345 1210 c 1,104,105
 1352 1238 1352 1238 1352 1275 c 0,106,107
 1352 1318 1352 1318 1328 1382 c 1,108,109
 1300 1448 1300 1448 1232 1505 c 1,110,-1
 1318 1482 l 1,111,112
 1342 1470 1342 1470 1370 1438 c 1,113,114
 1400 1402 1400 1402 1420 1372 c 1,115,116
 1438 1342 1438 1342 1450 1298 c 1,117,118
 1465 1260 1465 1260 1465 1225 c 1,83,84
1158 922 m 0,119,-1
EndSplineSet
Validated: 1
Substitution2: "Single Substitution lookup 10 subtable" ardha_pa
EndChar

StartChar: uni0CAB
Encoding: 68 3243 68
Width: 1585
GlyphClass: 2
Flags: W
LayerCount: 2
Fore
SplineSet
872 -290 m 1,0,1
 872 -345 872 -345 837 -375 c 128,-1,2
 802 -405 802 -405 758 -405 c 0,3,4
 708 -405 708 -405 675 -375 c 128,-1,5
 642 -345 642 -345 642 -295 c 0,6,7
 642 -288 642 -288 642 -282 c 0,8,9
 642 -248 642 -248 650 -215 c 1,10,-1
 745 88 l 1,11,-1
 768 88 l 1,12,13
 792 8 792 8 820 -75 c 1,14,15
 850 -158 850 -158 860 -215 c 2,16,-1
 872 -290 l 1,0,1
865 732.5 m 128,-1,18
 865 675 865 675 832 638 c 0,19,20
 795 598 795 598 738.5 598 c 128,-1,21
 682 598 682 598 642 638 c 128,-1,22
 602 678 602 678 602 734 c 128,-1,23
 602 790 602 790 645 822 c 1,24,25
 685 858 685 858 740 858 c 0,26,27
 792 858 792 858 830 822 c 0,28,17
 865 790 865 790 865 732.5 c 128,-1,18
1388 312 m 0,29,30
 1388 158 1388 158 1300 85 c 0,31,32
 1210 10 1210 10 1065 10 c 0,33,34
 975 10 975 10 888 60 c 1,35,36
 792 128 792 128 758 250 c 1,37,38
 722 122 722 122 640 66 c 128,-1,39
 558 10 558 10 432 10 c 0,40,41
 288 10 288 10 205 95 c 128,-1,42
 122 180 122 180 122 340 c 0,43,44
 122 472 122 472 188 538 c 0,45,46
 248 598 248 598 340 598 c 128,-1,47
 432 598 432 598 485 558 c 1,48,49
 540 520 540 520 540 428 c 0,50,51
 540 355 540 355 495 318 c 1,52,53
 450 278 450 278 385 278 c 1,54,-1
 380 302 l 1,55,56
 390 308 390 308 408 328 c 0,57,58
 418 338 418 338 435 362 c 1,59,60
 442 370 442 370 458 398 c 1,61,62
 465 418 465 418 465 422 c 0,63,64
 455 465 455 465 415 486.5 c 128,-1,65
 375 508 375 508 340 508 c 0,66,67
 260 508 260 508 215 468 c 128,-1,68
 170 428 170 428 170 358 c 0,69,70
 170 312 170 312 195 278 c 1,71,72
 215 248 215 248 255 225 c 0,73,74
 288 205 288 205 330 195 c 0,75,76
 375 185 375 185 410 185 c 0,77,78
 518 185 518 185 610 238 c 1,79,80
 705 295 705 295 762 412 c 1,81,82
 848 185 848 185 1020 185 c 0,83,84
 1168 185 1168 185 1255 248 c 0,85,86
 1340 310 1340 310 1340 402 c 0,87,88
 1340 522 1340 522 1198 695 c 1,89,90
 1182 712 1182 712 1182 750 c 0,91,92
 1182 782 1182 782 1202 808 c 0,93,94
 1220 832 1220 832 1242.5 832 c 128,-1,95
 1265 832 1265 832 1288 802 c 1,96,97
 1340 722 1340 722 1362 598 c 1,98,99
 1388 470 1388 470 1388 312 c 0,29,30
1465 1225 m 1,100,101
 1465 1158 1465 1158 1438 1100 c 1,102,103
 1410 1045 1410 1045 1368 1005 c 1,104,105
 1318 962 1318 962 1268 945 c 1,106,107
 1212 922 1212 922 1158 922 c 2,108,-1
 1152 922 l 1,109,-1
 978 922 l 1,110,-1
 122 922 l 1,111,-1
 122 1085 l 1,112,-1
 978 1085 l 1,113,-1
 1158 1085 l 1,114,-1
 1175 1085 l 2,115,116
 1210 1085 1210 1085 1242 1105 c 1,117,118
 1270 1125 1270 1125 1300 1155 c 1,119,120
 1335 1185 1335 1185 1345 1210 c 1,121,122
 1352 1238 1352 1238 1352 1275 c 0,123,124
 1352 1318 1352 1318 1328 1382 c 1,125,126
 1300 1448 1300 1448 1232 1505 c 1,127,-1
 1318 1482 l 1,128,129
 1342 1470 1342 1470 1370 1438 c 1,130,131
 1400 1402 1400 1402 1420 1372 c 1,132,133
 1438 1342 1438 1342 1450 1298 c 1,134,135
 1465 1260 1465 1260 1465 1225 c 1,100,101
1158 922 m 0,136,-1
EndSplineSet
Validated: 1
Substitution2: "Single Substitution lookup 10 subtable" ardha_pha
EndChar

StartChar: uni0CAC
Encoding: 69 3244 69
Width: 1590
GlyphClass: 2
Flags: W
LayerCount: 2
Fore
SplineSet
1470 562 m 0,0,1
 1470 278 1470 278 1412 168 c 1,2,3
 1340 0 1340 0 1152 0 c 0,4,5
 1015 0 1015 0 940 65 c 1,6,7
 865 132 865 132 820 278 c 1,8,9
 785 162 785 162 698 82 c 0,10,11
 608 0 608 0 488 0 c 0,12,13
 340 0 340 0 258 88 c 1,14,15
 175 170 175 170 175 318 c 0,16,17
 175 445 175 445 325 580 c 1,18,19
 405 648 405 648 450 705 c 1,20,21
 500 760 500 760 500 820 c 0,22,23
 500 882 500 882 465 922 c 0,24,25
 428 965 428 965 368 965 c 0,26,27
 300 965 300 965 260 930 c 1,28,29
 218 900 218 900 218 842 c 0,30,31
 218 812 218 812 238 778 c 1,32,33
 260 745 260 745 308 712 c 1,34,-1
 298 690 l 1,35,36
 210 712 210 712 168 770 c 0,37,38
 122 832 122 832 122 910 c 0,39,40
 122 1002 122 1002 195 1065 c 1,41,42
 265 1135 265 1135 350 1135 c 0,43,44
 398 1135 398 1135 442 1112 c 0,45,46
 490 1088 490 1088 522 1055 c 1,47,48
 558 1015 558 1015 575 968 c 1,49,50
 592 915 592 915 592 862 c 0,51,52
 592 802 592 802 545 732 c 1,53,54
 500 660 500 660 392 568 c 1,55,56
 295 472 295 472 295 380 c 0,57,58
 295 295 295 295 352 238 c 1,59,60
 408 180 408 180 512 180 c 0,61,62
 605 180 605 180 695 265 c 1,63,64
 778 348 778 348 820 460 c 1,65,66
 882 328 882 328 940 270 c 0,67,68
 1028 180 1028 180 1152 180 c 0,69,70
 1290 180 1290 180 1355 282.5 c 128,-1,71
 1420 385 1420 385 1420 540 c 0,72,73
 1420 688 1420 688 1362 790 c 0,74,75
 1305 890 1305 890 1165 968 c 0,76,77
 1145 980 1145 980 1130 1015 c 1,78,79
 1118 1055 1118 1055 1118 1080 c 0,80,81
 1118 1135 1118 1135 1175 1135 c 1,82,83
 1305 1082 1305 1082 1395 882 c 1,84,85
 1432 792 1432 792 1450 712 c 1,86,87
 1470 638 1470 638 1470 575 c 0,88,89
 1470 570 1470 570 1470 562 c 0,0,1
EndSplineSet
Validated: 1
Substitution2: "Single Substitution lookup 10 subtable" ardha_ba
EndChar

StartChar: uni0CAD
Encoding: 70 3245 70
Width: 1657
GlyphClass: 2
Flags: W
LayerCount: 2
Fore
SplineSet
938 -290 m 1,0,1
 938 -342 938 -342 902 -375 c 1,2,3
 865 -405 865 -405 820 -405 c 0,4,5
 770 -405 770 -405 740 -375 c 1,6,7
 705 -345 705 -345 705 -295 c 2,8,-1
 705 -282 l 2,9,10
 705 -248 705 -248 712 -215 c 1,11,-1
 808 88 l 1,12,-1
 832 88 l 1,13,14
 855 8 855 8 885 -75 c 1,15,16
 915 -162 915 -162 922 -215 c 1,17,-1
 938 -290 l 1,0,1
1468 520 m 1,18,19
 1472 470 1472 470 1472 428 c 0,20,21
 1472 358 1472 358 1460 305 c 0,22,23
 1440 210 1440 210 1412 158 c 1,24,25
 1338 5 1338 5 1150 5 c 0,26,27
 1010 5 1010 5 938 70 c 1,28,29
 862 132 862 132 820 278 c 1,30,31
 785 160 785 160 697.5 82.5 c 128,-1,32
 610 5 610 5 488 5 c 0,33,34
 340 5 340 5 255 87.5 c 128,-1,35
 170 170 170 170 170 318 c 0,36,37
 170 448 170 448 322 580 c 1,38,39
 402 648 402 648 450 705 c 1,40,41
 500 762 500 762 500 820 c 0,42,43
 500 888 500 888 465 925 c 1,44,45
 430 965 430 965 368 965 c 0,46,47
 300 965 300 965 260 930 c 1,48,49
 218 900 218 900 218 842 c 0,50,51
 218 812 218 812 238 778 c 1,52,53
 260 745 260 745 305 712 c 1,54,-1
 298 690 l 1,55,56
 208 712 208 712 165 770 c 1,57,58
 122 832 122 832 122 910 c 0,59,60
 122 998 122 998 192 1068 c 1,61,62
 265 1135 265 1135 345 1135 c 0,63,64
 395 1135 395 1135 442 1112 c 1,65,66
 488 1088 488 1088 520 1055 c 1,67,68
 552 1015 552 1015 572 968 c 1,69,70
 592 915 592 915 592 862 c 0,71,72
 592 802 592 802 548 730 c 0,73,74
 505 660 505 660 398 568 c 1,75,76
 302 482 302 482 302 380 c 0,77,78
 302 295 302 295 358 242 c 1,79,80
 408 185 408 185 510 185 c 0,81,82
 602 185 602 185 695 270 c 1,83,84
 772 345 772 345 820 460 c 1,85,86
 882 328 882 328 940 270 c 1,87,88
 1020 185 1020 185 1150 185 c 0,89,90
 1265 185 1265 185 1330 272 c 0,91,92
 1395 358 1395 358 1395 495 c 0,93,94
 1395 638 1395 638 1282 772 c 1,95,96
 1170 900 1170 900 1038 922 c 1,97,-1
 808 922 l 1,98,-1
 808 1085 l 1,99,-1
 1050 1085 l 1,100,-1
 1170 1085 l 1,101,-1
 1248 1085 l 2,102,103
 1282 1085 1282 1085 1312 1105 c 0,104,105
 1345 1128 1345 1128 1372 1155 c 1,106,107
 1405 1185 1405 1185 1415 1210 c 1,108,109
 1425 1242 1425 1242 1425 1275 c 0,110,111
 1425 1320 1425 1320 1398 1382 c 1,112,113
 1372 1448 1372 1448 1305 1505 c 1,114,-1
 1388 1482 l 1,115,116
 1415 1468 1415 1468 1442 1438 c 1,117,118
 1472 1402 1472 1402 1490 1372 c 0,119,120
 1510 1338 1510 1338 1522 1298 c 0,121,122
 1535 1255 1535 1255 1535 1225 c 0,123,124
 1535 1158 1535 1158 1510 1100 c 1,125,126
 1482 1045 1482 1045 1438 1005 c 0,127,128
 1392 962 1392 962 1340 945 c 1,129,130
 1282 922 1282 922 1225 922 c 2,131,-1
 1170 922 l 1,132,133
 1270 872 1270 872 1352 772 c 0,134,135
 1450 652 1450 652 1468 520 c 1,18,19
EndSplineSet
Validated: 1
Substitution2: "Single Substitution lookup 10 subtable" ardha_bha
EndChar

StartChar: uni0CAE
Encoding: 71 3246 71
Width: 2215
GlyphClass: 2
Flags: W
LayerCount: 2
Fore
SplineSet
1412.43 264.442 m 1,0,1
 1387.32 158.667 1387.32 158.667 1312 92 c 1,2,3
 1220 5 1220 5 1075 5 c 0,4,5
 985 5 985 5 895 65 c 1,6,7
 800 135 800 135 765 260 c 1,8,9
 730 128 730 128 648 65 c 1,10,11
 568 5 568 5 440 5 c 0,12,13
 295 5 295 5 208 95 c 0,14,15
 122 185 122 185 122 345 c 0,16,17
 122 472 122 472 198 542 c 1,18,19
 255 602 255 602 350 602 c 0,20,21
 438 602 438 602 493 562 c 128,-1,22
 548 522 548 522 548 430 c 0,23,24
 548 362 548 362 503 322 c 128,-1,25
 458 282 458 282 392 282 c 1,26,-1
 390 308 l 1,27,28
 398 308 398 308 412 322 c 1,29,30
 428 340 428 340 442 362 c 1,31,32
 460 385 460 385 470 402 c 1,33,34
 478 420 478 420 478 425 c 1,35,36
 460 470 460 470 425 488 c 1,37,38
 385 510 385 510 350 510 c 0,39,40
 175 510 175 510 175 362 c 0,41,42
 175 318 175 318 200 282 c 0,43,44
 222 250 222 250 260 230 c 1,45,46
 298 208 298 208 336.5 198 c 128,-1,47
 375 188 375 188 418 188 c 0,48,49
 525 188 525 188 620 242 c 1,50,51
 712 300 712 300 770 418 c 1,52,53
 858 188 858 188 1030 188 c 0,54,55
 1100 188 1100 188 1156 209 c 128,-1,56
 1212 230 1212 230 1248 260 c 1,57,58
 1288 295 1288 295 1308 340 c 128,-1,59
 1328 385 1328 385 1328 430 c 0,60,61
 1328 625 1328 625 1145 780 c 1,62,63
 962 922 962 922 748 922 c 2,64,-1
 122 922 l 1,65,-1
 122 1085 l 1,66,-1
 1008 1085 l 1,67,-1
 1062 1085 l 1,68,-1
 1202 1085 l 2,69,70
 1238 1085 1238 1085 1270 1105 c 1,71,72
 1302 1128 1302 1128 1328 1155 c 1,73,74
 1360 1180 1360 1180 1372 1210 c 1,75,76
 1382 1242 1382 1242 1382 1275 c 0,77,78
 1382 1320 1382 1320 1355 1382 c 1,79,80
 1328 1448 1328 1448 1262 1505 c 1,81,-1
 1345 1482 l 1,82,83
 1372 1468 1372 1468 1398 1438 c 1,84,85
 1425 1410 1425 1410 1448 1372 c 0,86,87
 1468 1338 1468 1338 1480 1298 c 0,88,89
 1492 1260 1492 1260 1492 1225 c 0,90,91
 1492 1158 1492 1158 1465 1101.5 c 128,-1,92
 1438 1045 1438 1045 1395 1005 c 0,93,94
 1350 962 1350 962 1295 945 c 1,95,96
 1238 922 1238 922 1180 922 c 2,97,-1
 1062 922 l 1,98,-1
 1008 922 l 1,99,-1
 998 922 l 1,100,101
 1075 882 1075 882 1158 830 c 1,102,103
 1235 778 1235 778 1290 715 c 1,104,105
 1345 655 1345 655 1380 570 c 0,106,107
 1408.48 500.83 1408.48 500.83 1420.41 418.414 c 1,108,109
 1419.54 348.414 1419.54 348.414 1475 265 c 1,110,111
 1548 185 1548 185 1644 185 c 0,112,113
 1855 185 1855 185 1952 295 c 1,114,115
 2048 408 2048 408 2048 542 c 0,116,117
 2048 665 2048 665 1925 768 c 1,118,119
 1805 875 1805 875 1655 875 c 1,120,121
 1582 882 1582 882 1568 912 c 0,122,123
 1552 945 1552 945 1552 975 c 0,124,125
 1552 998 1552 998 1558 1018 c 1,126,127
 1568 1038 1568 1038 1632 1038 c 0,128,129
 1828 1038 1828 1038 1958 868 c 1,130,131
 2095 702 2095 702 2095 495 c 0,132,133
 2095 272 2095 272 2002 145 c 1,134,135
 1905 2 1905 2 1644 2 c 0,136,137
 1494 2 1494 2 1471 120 c 1,138,139
 1433.02 187.743 1433.02 187.743 1412.43 264.442 c 1,0,1
EndSplineSet
Validated: 33
Substitution2: "Single Substitution lookup 10 subtable" ardha_ma
EndChar

StartChar: uni0CAF
Encoding: 72 3247 72
Width: 2462
GlyphClass: 2
Flags: W
LayerCount: 2
Fore
SplineSet
900 518 m 0,0,1
 900 585 900 585 872.5 642.5 c 128,-1,2
 845 700 845 700 792 742 c 0,3,4
 745 780 745 780 678 805 c 1,5,6
 608 828 608 828 532 828 c 0,7,8
 390 828 390 828 279 743 c 128,-1,9
 168 658 168 658 168 518 c 0,10,11
 168 390 168 390 260 288 c 1,12,13
 360 180 360 180 532 180 c 0,14,15
 700 180 700 180 808 288 c 0,16,17
 900 380 900 380 900 518 c 0,0,1
944.998 415.001 m 1,18,19
 1011.85 162 1011.85 162 1185 162 c 0,20,21
 1311.55 162 1311.55 162 1320 174 c 1,22,23
 1416.72 215 1416.72 215 1445 258 c 1,24,25
 1475 295 1475 295 1495 358 c 1,26,27
 1512 408 1512 408 1512 472 c 0,28,29
 1512 615 1512 615 1410 755 c 1,30,31
 1290 922 1290 922 1150 922 c 2,32,-1
 1070 922 l 1,33,-1
 1070 1082 l 1,34,-1
 1220 1082 l 1,35,-1
 1350 1082 l 1,36,-1
 1415 1082 l 2,37,38
 1450 1082 1450 1082 1482.5 1105 c 128,-1,39
 1515 1128 1515 1128 1540 1152 c 1,40,41
 1572 1180 1572 1180 1585 1208 c 1,42,43
 1595 1238 1595 1238 1595 1272 c 0,44,45
 1595 1318 1595 1318 1567.5 1380 c 128,-1,46
 1540 1442 1540 1442 1475 1502 c 1,47,-1
 1558 1480 l 1,48,49
 1585 1465 1585 1465 1610 1435 c 1,50,51
 1638 1408 1638 1408 1660 1370 c 0,52,53
 1680 1335 1680 1335 1692 1295 c 1,54,55
 1705 1260 1705 1260 1705 1225 c 2,56,-1
 1705 1220 l 2,57,58
 1705 1152 1705 1152 1678 1100 c 1,59,60
 1650 1042 1650 1042 1608 1002 c 1,61,62
 1562 962 1562 962 1508 940 c 1,63,64
 1450 918 1450 918 1392 918 c 2,65,-1
 1325 918 l 1,66,67
 1464 839 1464 839 1550 700 c 0,68,69
 1634 565 1634 565 1638 420 c 1,70,-1
 1660 340 l 0,71,-1
 1700 265 l 1,72,73
 1772 185 1772 185 1875 185 c 0,74,75
 2105 185 2105 185 2198 295 c 1,76,77
 2295 408 2295 408 2295 542 c 0,78,79
 2295 662 2295 662 2175 768 c 1,80,81
 2050 875 2050 875 1902 875 c 1,82,83
 1830 882 1830 882 1815 912 c 1,84,85
 1800 945 1800 945 1800 975 c 0,86,87
 1800 998 1800 998 1807.5 1018 c 128,-1,88
 1815 1038 1815 1038 1878 1038 c 0,89,90
 2078 1038 2078 1038 2208 868 c 1,91,92
 2342 705 2342 705 2342 495 c 0,93,94
 2342 272 2342 272 2250 145 c 1,95,96
 2158 2 2158 2 1875 2 c 0,97,98
 1722 2 1722 2 1700 120 c 1,99,100
 1652 207 1652 207 1631 311 c 1,101,102
 1627 282 1627 282 1620 255 c 1,103,104
 1602 185 1602 185 1568 135 c 1,105,106
 1482 2 1482 2 1229 2 c 0,107,108
 1092 2 1092 2 987 122 c 1,109,110
 959 180 959 180 939 238 c 1,111,112
 929 273 929 273 922 308 c 1,113,114
 894 226 894 226 842 158 c 1,115,116
 722 0 722 0 532 0 c 0,117,118
 350 0 350 0 230 158 c 1,119,120
 122 305 122 305 122 495 c 0,121,122
 122 712 122 712 222 858 c 1,123,124
 332 1010 332 1010 532 1010 c 0,125,126
 730 1010 730 1010 848 860 c 1,127,128
 950 720 950 720 950 495 c 0,129,130
 950 454 950 454 944.998 415.001 c 1,18,19
EndSplineSet
Validated: 1
Substitution2: "Single Substitution lookup 10 subtable" ardha_ya
EndChar

StartChar: uni0CB0
Encoding: 73 3248 73
Width: 1357
GlyphClass: 2
Flags: W
LayerCount: 2
Fore
SplineSet
1140 500 m 0,0,1
 1140 288 1140 288 992 145 c 1,2,3
 840 5 840 5 630 5 c 0,4,5
 418 5 418 5 272 152 c 1,6,7
 122 300 122 300 122 500 c 0,8,9
 122 635 122 635 205 745 c 1,10,11
 288 860 288 860 410 922 c 1,12,-1
 122 922 l 1,13,-1
 122 1085 l 1,14,-1
 750 1085 l 1,15,-1
 780 1085 l 1,16,-1
 948 1085 l 2,17,18
 982 1085 982 1085 1015 1105 c 1,19,20
 1048 1128 1048 1128 1072 1155 c 1,21,22
 1105 1180 1105 1180 1118 1210 c 1,23,24
 1128 1242 1128 1242 1128 1275 c 0,25,26
 1128 1318 1128 1318 1100 1383 c 128,-1,27
 1072 1448 1072 1448 1008 1505 c 1,28,-1
 1088 1482 l 1,29,30
 1118 1468 1118 1468 1142 1438 c 1,31,32
 1168 1411 1168 1411 1190 1372 c 0,33,34
 1210 1337 1210 1337 1225 1298 c 1,35,36
 1238 1260 1238 1260 1238 1225 c 0,37,38
 1238 1158 1238 1158 1210 1100 c 1,39,40
 1180 1042 1180 1042 1140 1005 c 0,41,42
 1092 962 1092 962 1038 945 c 1,43,44
 982 922 982 922 922 922 c 2,45,-1
 848 922 l 1,46,47
 962 872 962 872 1042 775 c 0,48,49
 1140 655 1140 655 1140 500 c 0,0,1
1042 568 m 1,50,-1
 1042 575 l 2,51,52
 1042 650 1042 650 1008 710 c 0,53,54
 970 775 970 775 910 820 c 1,55,56
 848 870 848 870 772 898 c 1,57,58
 700 922 700 922 630 922 c 0,59,60
 555 922 555 922 482 898 c 1,61,62
 405 868 405 868 352 822 c 1,63,64
 296 778 296 778 255 710 c 0,65,66
 218 648 218 648 218 568 c 0,67,68
 218 482 218 482 252 415 c 0,69,70
 288 345 288 345 342 292 c 1,71,72
 400 242 400 242 472.5 215 c 128,-1,73
 545 188 545 188 630 188 c 0,74,75
 700 188 700 188 775 218 c 0,76,77
 848 248 848 248 910 300 c 1,78,79
 970 352 970 352 1008 422 c 1,80,81
 1042 488 1042 488 1042 562 c 2,82,-1
 1042 568 l 1,50,-1
EndSplineSet
Validated: 1
Substitution2: "Single Substitution lookup 10 subtable" ardha_ra
EndChar

StartChar: uni0CB1
Encoding: 74 3249 74
Width: 1540
GlyphClass: 2
Flags: W
LayerCount: 2
Fore
SplineSet
1420 585 m 0,0,1
 1420 372 1420 372 1345 208 c 1,2,3
 1248 0 1248 0 1075 0 c 0,4,5
 870 0 870 0 768 272 c 1,6,7
 718 128 718 128 645 62 c 1,8,9
 572 0 572 0 465 0 c 0,10,11
 295 0 295 0 200 208 c 0,12,13
 162 292 162 292 145 385 c 1,14,15
 122 482 122 482 122 585 c 0,16,17
 122 815 122 815 192 952 c 1,18,19
 265 1110 265 1110 418 1110 c 0,20,21
 512 1110 512 1110 568 1042 c 1,22,23
 618 975 618 975 618 820 c 0,24,25
 618 808 618 808 615 785 c 1,26,27
 608 758 608 758 602 738 c 1,28,-1
 935 738 l 1,29,30
 935 742 935 742 930 758 c 1,31,32
 928 770 928 770 928 775 c 0,33,34
 922 808 922 808 922 820 c 0,35,36
 922 962 922 962 980 1045 c 1,37,38
 1030 1110 1030 1110 1122 1110 c 0,39,40
 1272 1110 1272 1110 1352 952 c 1,41,42
 1420 812 1420 812 1420 585 c 0,0,1
1372 562 m 0,43,44
 1372 775 1372 775 1292 875 c 1,45,46
 1292 775 1292 775 1248 705 c 1,47,48
 1200 632 1200 632 1135 622 c 1,49,-1
 1135 575 l 1,50,-1
 405 575 l 1,51,-1
 405 622 l 1,52,53
 340 632 340 632 290 705 c 1,54,55
 248 778 248 778 248 875 c 1,56,57
 208 825 208 825 190 748 c 1,58,59
 168 670 168 670 168 562 c 0,60,61
 168 445 168 445 250 325 c 1,62,63
 352 180 352 180 488 180 c 0,64,65
 595 180 595 180 655 245 c 1,66,67
 718 305 718 305 768 452 c 1,68,69
 820 295 820 295 882 242 c 1,70,71
 948 180 948 180 1050 180 c 0,72,73
 1192 180 1192 180 1288 322 c 1,74,75
 1372 442 1372 442 1372 562 c 0,43,44
1242 865 m 0,76,77
 1242 872 1242 872 1242 882 c 0,78,79
 1242 902 1242 902 1232 918 c 1,80,81
 1220 942 1220 942 1195 958 c 0,82,83
 1172 972 1172 972 1145 980 c 0,84,85
 1112 990 1112 990 1100 990 c 0,86,87
 1055 990 1055 990 1015 948 c 1,88,89
 968 910 968 910 968 862 c 0,90,91
 968 810 968 810 1008 772 c 1,92,93
 1042 738 1042 738 1122 738 c 0,94,95
 1180 738 1180 738 1211 776.5 c 128,-1,96
 1242 815 1242 815 1242 865 c 0,76,77
568 862 m 0,97,98
 568 888 568 888 555 910 c 0,99,100
 545 928 545 928 522 950 c 1,101,102
 505 968 505 968 482 978 c 1,103,104
 460 990 460 990 440 990 c 0,105,106
 425 990 425 990 392 980 c 0,107,108
 368 972 368 972 348 958 c 1,109,110
 322 942 322 942 312 922 c 1,111,112
 298 900 298 900 298 868 c 0,113,114
 298 818 298 818 328 778 c 128,-1,115
 358 738 358 738 418 738 c 0,116,117
 568 738 568 738 568 862 c 0,97,98
EndSplineSet
Validated: 1
EndChar

StartChar: uni0CB2
Encoding: 75 3250 75
Width: 1520
GlyphClass: 2
Flags: W
LayerCount: 2
Fore
SplineSet
1398 585 m 0,0,1
 1398 345 1398 345 1238 180 c 1,2,3
 1068 0 1068 0 768 0 c 0,4,5
 510 0 510 0 322 152 c 1,6,7
 122 318 122 318 122 562 c 0,8,9
 122 785 122 785 235 945 c 1,10,11
 345 1110 345 1110 512 1110 c 0,12,13
 610 1110 610 1110 672 1032 c 0,14,15
 735 952 735 952 735 840 c 0,16,17
 735 722 735 722 675 648 c 0,18,19
 615 575 615 575 535 575 c 0,20,21
 500 575 500 575 470 592 c 1,22,23
 438 615 438 615 420 640 c 1,24,25
 398 665 398 665 385 705 c 1,26,27
 370 738 370 738 370 775 c 0,28,29
 370 870 370 870 422 952 c 1,30,31
 368 928 368 928 332 892 c 0,32,33
 292 852 292 852 255 802 c 1,34,35
 208 745 208 745 198 682 c 1,36,37
 180 622 180 622 180 562 c 1,38,39
 192 470 192 470 238 392 c 1,40,41
 285 318 285 318 380 260 c 1,42,43
 555 162 555 162 768 162 c 0,44,45
 960 162 960 162 1140 278 c 1,46,47
 1350 408 1350 408 1350 585 c 0,48,49
 1350 712 1350 712 1287.5 800 c 128,-1,50
 1225 888 1225 888 1118 945 c 1,51,52
 1082 962 1082 962 1058 982 c 0,53,54
 1020 1015 1020 1015 1020 1050 c 1,55,56
 1040 1122 1040 1122 1110 1122 c 0,57,58
 1130 1122 1130 1122 1155 1105 c 0,59,60
 1280 1015 1280 1015 1340 895 c 1,61,62
 1398 772 1398 772 1398 585 c 0,0,1
688 840 m 0,63,64
 688 965 688 965 558 965 c 0,65,66
 505 965 505 965 470 922 c 1,67,68
 430 882 430 882 430 820 c 0,69,70
 430 775 430 775 460 745 c 0,71,72
 492 712 492 712 535 712 c 0,73,74
 608 712 608 712 648 745 c 1,75,76
 688 775 688 775 688 840 c 0,63,64
EndSplineSet
Validated: 1
Substitution2: "Single Substitution lookup 10 subtable" ardha_la
EndChar

StartChar: uni0CB3
Encoding: 76 3251 76
Width: 1385
GlyphClass: 2
Flags: W
LayerCount: 2
Fore
SplineSet
1185 700 m 0,0,1
 1185 570 1185 570 1082 495 c 1,2,3
 998 422 998 422 832 398 c 1,4,5
 865 358 865 358 882 312 c 1,6,7
 905 260 905 260 905 220 c 0,8,9
 905 138 905 138 852 78 c 1,10,11
 785 0 785 0 655 0 c 0,12,13
 580 0 580 0 530 60 c 0,14,15
 478 122 478 122 478 220 c 0,16,17
 478 278 478 278 500 318 c 128,-1,18
 522 358 522 358 558 385 c 1,19,-1
 422 392 l 1,20,21
 298 392 298 392 212 490 c 1,22,23
 122 598 122 598 122 770 c 0,24,25
 122 910 122 910 185 1010 c 1,26,27
 260 1135 260 1135 398 1135 c 0,28,29
 438 1135 438 1135 470 1120 c 1,30,31
 505 1105 505 1105 530 1070 c 0,32,33
 558 1032 558 1032 568 992 c 1,34,35
 575 952 575 952 575 910 c 0,36,37
 575 712 575 712 398 712 c 0,38,39
 328 712 328 712 285 768 c 1,40,41
 242 820 242 820 242 900 c 0,42,43
 242 935 242 935 248 942 c 1,44,45
 248 950 248 950 255 982 c 1,46,47
 168 905 168 905 168 770 c 0,48,49
 168 652 168 652 315 585 c 1,50,51
 428 530 428 530 540 530 c 0,52,53
 660 530 660 530 772 448 c 1,54,55
 838 455 838 455 888 470 c 1,56,57
 940 482 940 482 968 500 c 0,58,59
 1068 562 1068 562 1090 705 c 1,60,61
 1090 860 1090 860 958 922 c 1,62,-1
 952 922 l 1,63,-1
 858 922 l 1,64,-1
 780 922 l 1,65,-1
 718 922 l 1,66,-1
 718 1085 l 1,67,-1
 780 1085 l 1,68,-1
 858 1085 l 1,69,-1
 975 1085 l 2,70,71
 1010 1085 1010 1085 1042 1105 c 1,72,73
 1075 1128 1075 1128 1100 1155 c 1,74,75
 1135 1185 1135 1185 1145 1210 c 1,76,77
 1155 1240 1155 1240 1155 1275 c 0,78,79
 1155 1318 1155 1318 1127.5 1383 c 128,-1,80
 1100 1448 1100 1448 1032 1505 c 1,81,-1
 1118 1482 l 1,82,83
 1145 1468 1145 1468 1170 1438 c 0,84,85
 1200 1402 1200 1402 1220 1372 c 1,86,87
 1240 1335 1240 1335 1250 1298 c 1,88,89
 1265 1260 1265 1260 1265 1225 c 0,90,91
 1265 1158 1265 1158 1238 1100 c 1,92,93
 1210 1045 1210 1045 1168 1005 c 0,94,95
 1122 962 1122 962 1068 945 c 1,96,-1
 1030 930 l 1,97,-1
 1038 928 l 1,98,99
 1078 912 1078 912 1118 868 c 1,100,101
 1152 825 1152 825 1168 785 c 0,102,103
 1185 745 1185 745 1185 700 c 0,0,1
835 242 m 0,104,105
 835 310 835 310 798 352 c 1,106,107
 760 392 760 392 705 392 c 0,108,109
 638 392 638 392 595 352 c 128,-1,110
 552 312 552 312 552 265 c 0,111,112
 552 140 552 140 655 140 c 0,113,114
 732 140 732 140 783.5 172.5 c 128,-1,115
 835 205 835 205 835 242 c 0,104,105
528 912 m 1,116,117
 528 1015 528 1015 398 1015 c 0,118,119
 368 1015 368 1015 330 980 c 1,120,121
 295 945 295 945 288 905 c 1,122,123
 288 865 288 865 318 835 c 1,124,125
 350 808 350 808 397.5 808 c 128,-1,126
 445 808 445 808 482 838 c 1,127,128
 520 865 520 865 528 912 c 1,116,117
EndSplineSet
Validated: 1
Substitution2: "Single Substitution lookup 10 subtable" ardha_La
EndChar

StartChar: uni0CB5
Encoding: 77 3253 77
Width: 1612
GlyphClass: 2
Flags: W
LayerCount: 2
Fore
SplineSet
1425 380 m 1,0,1
 1425 192 1425 192 1312 92 c 1,2,3
 1220 5 1220 5 1075 5 c 0,4,5
 985 5 985 5 895 65 c 1,6,7
 800 135 800 135 765 260 c 1,8,9
 730 128 730 128 648 65 c 1,10,11
 568 5 568 5 440 5 c 0,12,13
 295 5 295 5 208 95 c 0,14,15
 122 185 122 185 122 345 c 0,16,17
 122 472 122 472 198 542 c 1,18,19
 255 602 255 602 350 602 c 0,20,21
 438 602 438 602 493 562 c 128,-1,22
 548 522 548 522 548 430 c 0,23,24
 548 362 548 362 503 322 c 128,-1,25
 458 282 458 282 392 282 c 1,26,-1
 390 308 l 1,27,28
 398 308 398 308 412 322 c 1,29,30
 428 340 428 340 442 362 c 1,31,32
 460 385 460 385 470 402 c 1,33,34
 478 420 478 420 478 425 c 1,35,36
 460 470 460 470 425 488 c 1,37,38
 385 510 385 510 350 510 c 0,39,40
 175 510 175 510 175 362 c 0,41,42
 175 318 175 318 200 282 c 0,43,44
 222 250 222 250 260 230 c 1,45,46
 298 208 298 208 336.5 198 c 128,-1,47
 375 188 375 188 418 188 c 0,48,49
 525 188 525 188 620 242 c 1,50,51
 712 300 712 300 770 418 c 1,52,53
 858 188 858 188 1030 188 c 0,54,55
 1100 188 1100 188 1156 209 c 128,-1,56
 1212 230 1212 230 1248 260 c 1,57,58
 1288 295 1288 295 1308 340 c 128,-1,59
 1328 385 1328 385 1328 430 c 0,60,61
 1328 625 1328 625 1145 780 c 1,62,63
 962 922 962 922 748 922 c 2,64,-1
 122 922 l 1,65,-1
 122 1085 l 1,66,-1
 1008 1085 l 1,67,-1
 1062 1085 l 1,68,-1
 1202 1085 l 2,69,70
 1238 1085 1238 1085 1270 1105 c 1,71,72
 1302 1128 1302 1128 1328 1155 c 1,73,74
 1360 1180 1360 1180 1372 1210 c 1,75,76
 1382 1242 1382 1242 1382 1275 c 0,77,78
 1382 1320 1382 1320 1355 1382 c 1,79,80
 1328 1448 1328 1448 1262 1505 c 1,81,-1
 1345 1482 l 1,82,83
 1372 1468 1372 1468 1398 1438 c 1,84,85
 1425 1410 1425 1410 1448 1372 c 0,86,87
 1468 1338 1468 1338 1480 1298 c 0,88,89
 1492 1260 1492 1260 1492 1225 c 0,90,91
 1492 1158 1492 1158 1465 1101.5 c 128,-1,92
 1438 1045 1438 1045 1395 1005 c 0,93,94
 1350 962 1350 962 1295 945 c 1,95,96
 1238 922 1238 922 1180 922 c 2,97,-1
 1062 922 l 1,98,-1
 1008 922 l 1,99,-1
 998 922 l 1,100,101
 1075 882 1075 882 1158 830 c 1,102,103
 1235 778 1235 778 1290 715 c 1,104,105
 1345 655 1345 655 1380 570 c 128,-1,106
 1415 485 1415 485 1425 380 c 1,0,1
EndSplineSet
Validated: 1
Substitution2: "Single Substitution lookup 10 subtable" ardha_va
EndChar

StartChar: uni0CB6
Encoding: 78 3254 78
Width: 1340
GlyphClass: 2
Flags: W
LayerCount: 2
Fore
SplineSet
1140 500 m 0,0,1
 1140 260 1140 260 998 130 c 1,2,3
 858 5 858 5 555 5 c 0,4,5
 369 5 369 5 260 65 c 0,6,7
 122 141 122 141 122 315 c 0,8,9
 122 438 122 438 195 500 c 1,10,11
 225 528 225 528 262 540 c 1,12,13
 300 555 300 555 362 555 c 0,14,15
 392 555 392 555 430 550 c 1,16,17
 460 548 460 548 538 532 c 1,18,19
 625 538 625 538 678.5 589 c 128,-1,20
 732 640 732 640 732 730 c 0,21,22
 732 818 732 818 675 872 c 1,23,24
 618 922 618 922 535 922 c 0,25,26
 460 922 460 922 410 888 c 1,27,28
 368 855 368 855 368 795 c 2,29,-1
 368 780 l 1,30,31
 388 818 388 818 423 838 c 128,-1,32
 458 858 458 858 488 858 c 0,33,34
 538 858 538 858 568 830 c 1,35,36
 592 800 592 800 592 752 c 0,37,38
 592 712 592 712 562 685 c 1,39,40
 530 660 530 660 488 648 c 1,41,42
 408 648 408 648 368 678 c 0,43,44
 312 720 312 720 312 798 c 0,45,46
 312 832 312 832 328 865 c 0,47,48
 340 892 340 892 380 922 c 1,49,-1
 122 922 l 1,50,-1
 122 1085 l 1,51,-1
 735 1085 l 1,52,-1
 802 1085 l 1,53,-1
 930 1085 l 2,54,55
 968 1085 968 1085 998 1105 c 0,56,57
 1032 1128 1032 1128 1058 1155 c 1,58,59
 1090 1180 1090 1180 1101 1211 c 128,-1,60
 1112 1242 1112 1242 1112 1275 c 0,61,62
 1112 1320 1112 1320 1082 1382 c 1,63,64
 1058 1448 1058 1448 992 1505 c 1,65,-1
 1072 1482 l 1,66,67
 1100 1468 1100 1468 1128 1438 c 1,68,69
 1158 1402 1158 1402 1175 1372 c 0,70,71
 1195 1338 1195 1338 1208 1298 c 1,72,73
 1220 1255 1220 1255 1220 1225 c 0,74,75
 1220 1158 1220 1158 1192 1100 c 1,76,77
 1168 1045 1168 1045 1122 1005 c 1,78,79
 1078 962 1078 962 1025 945 c 1,80,81
 968 922 968 922 910 922 c 2,82,-1
 865 922 l 1,83,84
 979 865 979 865 1052 770 c 0,85,86
 1140 654 1140 654 1140 500 c 0,0,1
1042 500 m 0,87,88
 1042 705 1042 705 928 820 c 1,89,90
 842 910 842 910 688 922 c 1,91,92
 730 888 730 888 758 842 c 1,93,94
 780 795 780 795 780 730 c 0,95,96
 780 618 780 618 718 552 c 1,97,98
 682 518 682 518 635 495 c 1,99,100
 602 482 602 482 545 482 c 2,101,-1
 500 482 l 1,102,103
 450 488 450 488 416 488 c 128,-1,104
 382 488 382 488 362 482 c 1,105,106
 320 475 320 475 298 465 c 1,107,108
 218 418 218 418 218 315 c 0,109,110
 218 270 218 270 252 238 c 1,111,112
 288 210 288 210 335 195 c 1,113,114
 375 180 375 180 432 172 c 1,115,116
 488 168 488 168 512 168 c 0,117,118
 758 168 758 168 910 272 c 1,119,120
 1042 378 1042 378 1042 500 c 0,87,88
EndSplineSet
Validated: 1
Substitution2: "Single Substitution lookup 10 subtable" ardha_sha
EndChar

StartChar: uni0CB7
Encoding: 79 3255 79
Width: 1602
GlyphClass: 2
Flags: W
LayerCount: 2
Fore
SplineSet
1482 1225 m 0,0,1
 1482 1159 1482 1159 1455 1100 c 0,2,3
 1429 1045 1429 1045 1385 1005 c 1,4,5
 1340 962 1340 962 1285 945 c 1,6,7
 1230 922 1230 922 1170 922 c 2,8,-1
 1078 922 l 1,9,-1
 998 922 l 1,10,-1
 140 922 l 1,11,-1
 140 1085 l 1,12,-1
 998 1085 l 1,13,-1
 1078 1085 l 1,14,-1
 1192 1085 l 2,15,16
 1228 1085 1228 1085 1260 1105 c 1,17,18
 1292 1128 1292 1128 1318 1155 c 1,19,20
 1352 1185 1352 1185 1362 1210 c 1,21,22
 1372 1242 1372 1242 1372 1275 c 0,23,24
 1372 1320 1372 1320 1345 1382 c 1,25,26
 1318 1448 1318 1448 1250 1505 c 1,27,-1
 1335 1482 l 1,28,29
 1362 1468 1362 1468 1390 1438 c 1,30,31
 1418 1402 1418 1402 1438 1372 c 1,32,33
 1458 1338 1458 1338 1470 1298 c 0,34,35
 1482 1255 1482 1255 1482 1225 c 0,0,1
1448 38 m 1,36,37
 1425 -2 1425 -2 1420 -8 c 2,38,-1
 1400 -32 l 1,39,40
 1392 -48 1392 -48 1358 -65 c 1,41,42
 1340 -72 1340 -72 1328 -72 c 0,43,44
 1318 -72 1318 -72 1312 -65 c 2,45,-1
 1232 48 l 1,46,47
 1180 8 1180 8 1145 2 c 1,48,49
 1112 0 1112 0 1080 0 c 0,50,51
 990 0 990 0 900 60 c 1,52,53
 802 132 802 132 770 255 c 1,54,55
 702 0 702 0 442 0 c 0,56,57
 302 0 302 0 212 90 c 1,58,59
 122 178 122 178 122 340 c 0,60,61
 122 462 122 462 200 538 c 1,62,63
 260 598 260 598 350 598 c 0,64,65
 442 598 442 598 495 558 c 128,-1,66
 548 518 548 518 548 425 c 0,67,68
 548 352 548 352 505 318 c 1,69,70
 460 278 460 278 392 278 c 1,71,-1
 390 302 l 1,72,73
 428 325 428 325 450 358 c 1,74,75
 478 392 478 392 478 420 c 1,76,77
 460 460 460 460 422 482 c 0,78,79
 382 505 382 505 350 505 c 0,80,81
 270 505 270 505 219 466.5 c 128,-1,82
 168 428 168 428 168 358 c 0,83,84
 168 278 168 278 248 230 c 1,85,86
 325 180 325 180 418 180 c 0,87,88
 532 180 532 180 625 237.5 c 128,-1,89
 718 295 718 295 775 412 c 1,90,91
 862 180 862 180 1032 180 c 2,92,-1
 1082 180 l 1,93,94
 1112 182 1112 182 1130 190 c 1,95,-1
 882 562 l 1,96,-1
 882 640 l 1,97,-1
 1250 238 l 1,98,99
 1350 298 1350 298 1350 402 c 0,100,101
 1350 478 1350 478 1318 540 c 1,102,103
 1288 602 1288 602 1210 695 c 0,104,105
 1192 715 1192 715 1192 750 c 0,106,107
 1192 788 1192 788 1212 808 c 1,108,109
 1232 832 1232 832 1255 832 c 128,-1,110
 1278 832 1278 832 1300 802 c 0,111,112
 1350 730 1350 730 1375 598 c 0,113,114
 1398 472 1398 472 1398 310 c 0,115,116
 1398 205 1398 205 1350 140 c 1,117,-1
 1448 38 l 1,36,37
905 725 m 0,118,119
 905 668 905 668 865 633 c 128,-1,120
 825 598 825 598 772 598 c 0,121,122
 722 598 722 598 682 632 c 1,123,124
 642 670 642 670 642 725 c 128,-1,125
 642 780 642 780 682 815 c 1,126,127
 722 852 722 852 772 852 c 0,128,129
 825 852 825 852 865 815 c 1,130,131
 905 775 905 775 905 725 c 0,118,119
EndSplineSet
Validated: 1
Substitution2: "Single Substitution lookup 10 subtable" ardha_Sha
EndChar

StartChar: uni0CB8
Encoding: 80 3256 80
Width: 1337
GlyphClass: 2
Flags: W
LayerCount: 2
Fore
SplineSet
652 725 m 0,0,1
 652 668 652 668 620 632 c 1,2,3
 582 598 582 598 525 598 c 0,4,5
 465 598 465 598 430 632 c 0,6,7
 392 670 392 670 392 725 c 0,8,9
 392 775 392 775 432 815 c 1,10,11
 472 852 472 852 525 852 c 0,12,13
 575 852 575 852 613.5 813.5 c 128,-1,14
 652 775 652 775 652 725 c 0,0,1
1152 380 m 0,15,16
 1152 328 1152 328 1142 260 c 1,17,18
 1138 215 1138 215 1118 122 c 1,19,20
 1065 0 1065 0 948 0 c 0,21,22
 872 0 872 0 840 108 c 0,23,24
 770 342 770 342 525 342 c 0,25,26
 390 342 390 342 282 248 c 1,27,28
 180 145 180 145 180 12 c 1,29,-1
 158 8 l 1,30,31
 135 78 135 78 135 145 c 0,32,33
 135 225 135 225 162 285 c 1,34,35
 190 352 190 352 232 398 c 1,36,37
 282 448 282 448 348 478 c 1,38,39
 415 505 415 505 500 505 c 0,40,41
 738 505 738 505 808 322 c 1,42,43
 882 140 882 140 922 140 c 1,44,45
 985 145 985 145 1025 260 c 1,46,47
 1040 300 1040 300 1048 352 c 0,48,49
 1055 402 1055 402 1055 450 c 0,50,51
 1055 488 1055 488 1042 588 c 1,52,53
 1025 688 1025 688 1008 772 c 1,54,55
 1088 730 1088 730 1128 592 c 1,56,57
 1152 545 1152 545 1152 380 c 0,15,16
1215 1225 m 1,58,59
 1215 1158 1215 1158 1190 1100 c 1,60,61
 1162 1045 1162 1045 1118 1005 c 0,62,63
 1072 962 1072 962 1020 945 c 1,64,65
 962 922 962 922 905 922 c 2,66,-1
 808 922 l 1,67,-1
 730 922 l 1,68,-1
 122 922 l 1,69,-1
 122 1085 l 1,70,-1
 730 1085 l 1,71,-1
 808 1085 l 1,72,-1
 928 1085 l 2,73,74
 962 1085 962 1085 992 1105 c 0,75,76
 1025 1128 1025 1128 1052 1155 c 1,77,78
 1085 1185 1085 1185 1095 1210 c 1,79,80
 1105 1242 1105 1242 1105 1275 c 0,81,82
 1105 1320 1105 1320 1078 1382 c 1,83,84
 1052 1448 1052 1448 985 1505 c 1,85,-1
 1068 1482 l 1,86,87
 1095 1468 1095 1468 1122 1438 c 1,88,89
 1152 1402 1152 1402 1170 1372 c 0,90,91
 1190 1338 1190 1338 1202 1298 c 0,92,93
 1215 1255 1215 1255 1215 1225 c 1,58,59
EndSplineSet
Validated: 1
Substitution2: "Single Substitution lookup 10 subtable" ardha_sa
EndChar

StartChar: uni0CB9
Encoding: 81 3257 81
Width: 1702
GlyphClass: 2
Flags: W
LayerCount: 2
Fore
SplineSet
1515 362 m 0,0,1
 1515 202 1515 202 1420 102 c 1,2,3
 1322 5 1322 5 1152 5 c 0,4,5
 1038 5 1038 5 945 65 c 1,6,7
 855 125 855 125 820 210 c 1,8,9
 775 113 775 113 690 60 c 0,10,11
 601 5 601 5 488 5 c 0,12,13
 398 5 398 5 331.5 32.5 c 128,-1,14
 265 60 265 60 218 108 c 0,15,16
 170 158 170 158 146 221.5 c 128,-1,17
 122 285 122 285 122 362 c 0,18,19
 122 510 122 510 238 615 c 1,20,21
 348 718 348 718 488 718 c 0,22,23
 602 718 602 718 675 678 c 0,24,25
 750 638 750 638 798 558 c 1,26,27
 785 705 785 705 682 815 c 1,28,29
 592 922 592 922 442 922 c 2,30,-1
 122 922 l 1,31,-1
 122 1085 l 1,32,-1
 1095 1085 l 1,33,-1
 1202 1085 l 1,34,-1
 1292 1085 l 2,35,36
 1328 1085 1328 1085 1358 1105 c 1,37,38
 1390 1128 1390 1128 1420 1155 c 0,39,40
 1452 1185 1452 1185 1460 1210 c 1,41,42
 1472 1240 1472 1240 1472 1275 c 0,43,44
 1472 1318 1472 1318 1445 1382 c 1,45,46
 1420 1448 1420 1448 1352 1505 c 1,47,-1
 1432 1482 l 1,48,49
 1462 1468 1462 1468 1488 1438 c 0,50,51
 1518 1402 1518 1402 1535 1372 c 1,52,53
 1558 1335 1558 1335 1568 1298 c 1,54,55
 1582 1260 1582 1260 1582 1225 c 0,56,57
 1582 1160 1582 1160 1555 1100 c 1,58,59
 1528 1045 1528 1045 1485 1005 c 0,60,61
 1440 962 1440 962 1385 945 c 1,62,63
 1328 922 1328 922 1270 922 c 2,64,-1
 1202 922 l 1,65,-1
 1095 922 l 1,66,-1
 628 922 l 1,67,68
 665 900 665 900 705 860 c 128,-1,69
 745 820 745 820 770 770 c 1,70,71
 802 722 802 722 820 665 c 1,72,73
 838 615 838 615 845 555 c 1,74,75
 970 718 970 718 1172 718 c 0,76,77
 1312 718 1312 718 1410 618 c 1,78,79
 1515 520 1515 520 1515 362 c 0,0,1
785 408 m 1,80,81
 785 535 785 535 688 608 c 1,82,83
 605 672 605 672 487.5 672 c 128,-1,84
 370 672 370 672 298 600 c 1,85,86
 222 530 222 530 222 408 c 0,87,88
 222 352 222 352 245 310 c 1,89,90
 265 266 265 266 302 232 c 0,91,92
 336 202 336 202 385 185 c 0,93,94
 432 168 432 168 488 168 c 0,95,96
 608 168 608 168 690 232 c 1,97,98
 775 300 775 300 785 408 c 1,80,81
1420 455 m 0,99,100
 1420 505 1420 505 1400 545 c 0,101,102
 1378 590 1378 590 1345 615 c 1,103,104
 1312 642 1312 642 1265 655 c 1,105,106
 1220 672 1220 672 1172 672 c 0,107,108
 1008 672 1008 672 922 585 c 1,109,110
 858 508 858 508 858 408 c 0,111,112
 858 360 858 360 882 320 c 1,113,114
 905 278 905 278 945 250 c 1,115,116
 980 220 980 220 1038 202 c 1,117,118
 1088 188 1088 188 1152 188 c 0,119,120
 1278 188 1278 188 1350 255 c 1,121,122
 1420 325 1420 325 1420 455 c 0,99,100
EndSplineSet
Validated: 1
Substitution2: "Single Substitution lookup 10 subtable" ardha_ha
EndChar

StartChar: uni0CBE
Encoding: 82 3262 82
Width: 1412
GlyphClass: 4
Flags: W
LayerCount: 2
Fore
SplineSet
1292 500 m 0,0,1
 1292 258 1292 258 1185 130 c 1,2,3
 1082 5 1082 5 882 5 c 0,4,5
 818 5 818 5 762 28 c 1,6,7
 710 48 710 48 670 88 c 1,8,9
 632 122 632 122 608 178 c 0,10,11
 585 232 585 232 585 290 c 0,12,13
 585 392 585 392 642 465 c 1,14,15
 700 535 700 535 808 535 c 0,16,17
 940 535 940 535 940 385 c 0,18,19
 940 340 940 340 908 310 c 1,20,21
 878 278 878 278 808 278 c 0,22,23
 765 278 765 278 735 312 c 0,24,25
 705 345 705 345 705 385 c 0,26,27
 705 438 705 438 712 460 c 1,28,29
 672 438 672 438 652 398 c 1,30,31
 635 360 635 360 635 315 c 0,32,33
 635 230 635 230 718 185 c 0,34,35
 760 162 760 162 798 155 c 1,36,37
 835 145 835 145 882 145 c 0,38,39
 1242 145 1242 145 1242 500 c 0,40,41
 1242 688 1242 688 1105 810 c 0,42,43
 980 922 980 922 808 922 c 2,44,-1
 -8 922 l 1,45,-1
 -8 1085 l 1,46,-1
 790 1085 l 2,47,48
 992 1085 992 1085 1128 960 c 0,49,50
 1292 808 1292 808 1292 500 c 0,0,1
EndSplineSet
Validated: 1
EndChar

StartChar: uni0CBF
Encoding: 83 3263 83
Width: 80
GlyphClass: 4
Flags: W
LayerCount: 2
Fore
SplineSet
-500 998 m 1,0,1
 -460 1018 -460 1018 -428 1065 c 1,2,-1
 -368 1158 l 1,3,4
 -325 1215 -325 1215 -310 1268 c 1,5,6
 -358 1172 -358 1172 -465 1172 c 0,7,8
 -522 1172 -522 1172 -571 1207 c 128,-1,9
 -620 1242 -620 1242 -640 1312 c 1,10,-1
 -648 1358 l 2,11,12
 -652 1380 -652 1380 -652 1392 c 0,13,14
 -652 1442 -652 1442 -642 1478 c 1,15,16
 -630 1515 -630 1515 -608 1550 c 1,17,18
 -578 1592 -578 1592 -531.5 1620 c 128,-1,19
 -485 1648 -485 1648 -440 1648 c 0,20,21
 -330 1648 -330 1648 -260 1552 c 1,22,23
 -200 1472 -200 1472 -200 1358 c 0,24,25
 -200 1285 -200 1285 -278 1168 c 1,26,27
 -322 1095 -322 1095 -348 1065 c 1,28,29
 -380 1020 -380 1020 -415 998 c 1,30,-1
 -500 998 l 1,0,1
-330 1412 m 0,31,32
 -330 1522 -330 1522 -440 1522 c 0,33,34
 -508 1522 -508 1522 -545 1488 c 1,35,36
 -580 1458 -580 1458 -580 1402 c 2,37,-1
 -580 1388 l 1,38,39
 -575 1340 -575 1340 -545 1312 c 1,40,41
 -515 1282 -515 1282 -445 1282 c 0,42,43
 -390 1282 -390 1282 -360 1317 c 128,-1,44
 -330 1352 -330 1352 -330 1412 c 0,31,32
EndSplineSet
Validated: 1
EndChar

StartChar: uni0CC0
Encoding: 84 3264 84
Width: 80
GlyphClass: 4
Flags: W
LayerCount: 2
Fore
SplineSet
712 840 m 0,0,1
 712 750 712 750 660 682 c 1,2,3
 592 598 592 598 488 598 c 0,4,5
 410 598 410 598 362 660 c 1,6,7
 310 722 310 722 310 815 c 0,8,9
 310 895 310 895 350 958 c 1,10,11
 255 895 255 895 210 802 c 1,12,13
 168 708 168 708 168 608 c 0,14,15
 168 498 168 498 232 385 c 0,16,17
 288 288 288 288 408 192 c 1,18,19
 442 162 442 162 515 110 c 2,20,-1
 672 0 l 1,21,-1
 415 2 l 1,22,23
 262 140 262 140 188 310 c 1,24,25
 122 435 122 435 122 632 c 0,26,27
 122 810 122 810 208 958 c 1,28,29
 312 1130 312 1130 488 1130 c 0,30,31
 598 1130 598 1130 658 1038 c 1,32,33
 688 990 688 990 700 945 c 128,-1,34
 712 900 712 900 712 840 c 0,0,1
665 860 m 0,35,36
 665 918 665 918 620 952 c 0,37,38
 575 985 575 985 515 985 c 0,39,40
 448 985 448 985 408 947.5 c 128,-1,41
 368 910 368 910 368 858 c 0,42,43
 368 800 368 800 402 768 c 1,44,45
 440 738 440 738 488 738 c 0,46,47
 568 738 568 738 618 768 c 1,48,49
 665 798 665 798 665 860 c 0,35,36
-500 998 m 1,50,51
 -460 1018 -460 1018 -428 1065 c 1,52,-1
 -368 1158 l 1,53,54
 -325 1215 -325 1215 -310 1268 c 1,55,56
 -358 1172 -358 1172 -465 1172 c 0,57,58
 -522 1172 -522 1172 -571 1207 c 128,-1,59
 -620 1242 -620 1242 -640 1312 c 1,60,-1
 -648 1358 l 2,61,62
 -652 1380 -652 1380 -652 1392 c 0,63,64
 -652 1442 -652 1442 -642 1478 c 1,65,66
 -630 1515 -630 1515 -608 1550 c 1,67,68
 -578 1592 -578 1592 -531.5 1620 c 128,-1,69
 -485 1648 -485 1648 -440 1648 c 0,70,71
 -330 1648 -330 1648 -260 1552 c 1,72,73
 -200 1472 -200 1472 -200 1358 c 0,74,75
 -200 1285 -200 1285 -278 1168 c 1,76,77
 -322 1095 -322 1095 -348 1065 c 1,78,79
 -380 1020 -380 1020 -415 998 c 1,80,-1
 -500 998 l 1,50,51
-330 1412 m 0,81,82
 -330 1522 -330 1522 -440 1522 c 0,83,84
 -508 1522 -508 1522 -545 1488 c 1,85,86
 -580 1458 -580 1458 -580 1402 c 2,87,-1
 -580 1388 l 1,88,89
 -575 1340 -575 1340 -545 1312 c 1,90,91
 -515 1282 -515 1282 -445 1282 c 0,92,93
 -390 1282 -390 1282 -360 1317 c 128,-1,94
 -330 1352 -330 1352 -330 1412 c 0,81,82
EndSplineSet
Validated: 1
EndChar

StartChar: uni0CC1
Encoding: 85 3265 85
Width: 662
GlyphClass: 4
Flags: W
LayerCount: 2
Fore
SplineSet
542 495 m 0,0,1
 539.271 268.23 539.271 268.23 450 145 c 1,2,3
 358 2 358 2 175 2 c 0,4,5
 22 2 22 2 0 120 c 1,6,7
 -72 250 -72 250 -82 418 c 1,8,-1
 -42 418 l 1,9,10
 -28 362 -28 362 -15 335 c 1,11,12
 -2 298 -2 298 0 265 c 1,13,14
 72 185 72 185 175 185 c 0,15,16
 305 185 305 185 398 295 c 1,17,18
 495 408 495 408 495 542 c 0,19,20
 495 684.18 495 684.18 388 792 c 0,21,22
 318.039 862.497 318.039 862.497 224 880 c 1,23,24
 152.109 890 152.109 890 144 908 c 1,25,26
 125 941 125 941 125 955 c 0,27,28
 125 978 125 978 135 994 c 0,29,30
 156.195 1027.91 156.195 1027.91 203 1018 c 0,31,32
 288 1000 288 1000 348 940 c 1,33,34
 544 760 544 760 542 495 c 0,0,1
EndSplineSet
Validated: 33
Substitution2: "Single Substitution lookup 19 subtable" madhya_koMbu
EndChar

StartChar: uni0CC2
Encoding: 86 3266 86
Width: 1449
GlyphClass: 4
Flags: W
LayerCount: 2
Fore
SplineSet
1330 470 m 0,0,1
 1330 278 1330 278 1257 158 c 1,2,3
 1167 0 1167 0 967 0 c 0,4,5
 840 0 840 0 744 78 c 0,6,7
 647 158 647 158 647 260 c 0,8,9
 647 375 647 375 707 452.5 c 128,-1,10
 767 530 767 530 874 530 c 0,11,12
 952 530 952 530 987 488 c 1,13,14
 1024 448 1024 448 1024 380 c 0,15,16
 1024 332 1024 332 990 295 c 0,17,18
 952 255 952 255 894 255 c 0,19,20
 852 255 852 255 812 295 c 1,21,22
 772 340 772 340 772 398 c 1,23,-1
 782 450 l 1,24,25
 717 420 717 420 717 310 c 0,26,27
 717 230 717 230 784.5 185 c 128,-1,28
 852 140 852 140 944 140 c 0,29,30
 1097 140 1097 140 1190 228 c 1,31,32
 1280 318 1280 318 1280 470 c 0,33,34
 1280 630 1280 630 1120 742 c 1,35,36
 972 850 972 850 800 850 c 0,37,38
 742 850 742 850 680 830 c 1,39,40
 617 808 617 808 560 772 c 1,41,42
 430 685 430 685 430 575 c 0,43,44
 430 558 430 558 440 522 c 1,45,46
 440 505 440 505 444 490 c 0,47,48
 447 475 447 475 447 472 c 1,49,50
 462 448 462 448 470 405 c 0,51,52
 477 370 477 370 477 345 c 0,53,54
 477 330 477 330 474 318 c 1,55,56
 462 172 462 172 397 92 c 1,57,58
 332 0 332 0 190 0 c 0,59,60
 120 0 120 0 60 35 c 1,61,62
 0 68 0 68 -48 140 c 1,63,64
 -73 202 -73 202 -80 270 c 0,65,66
 -86 330 -86 330 -120 438 c 1,67,-1
 -80 438 l 1,68,69
 -50 378 -50 378 -46 335 c 0,70,71
 -43 295 -43 295 -23 260 c 1,72,73
 52 180 52 180 162 180 c 0,74,75
 254 180 254 180 327 255 c 1,76,77
 397 322 397 322 397 442 c 0,78,79
 397 488 397 488 382 548 c 0,80,81
 367 610 367 610 367 670 c 0,82,83
 367 825 367 825 460 922 c 0,84,85
 567 1032 567 1032 780 1032 c 0,86,87
 1014 1032 1014 1032 1172 860 c 128,-1,88
 1330 688 1330 688 1330 470 c 0,0,1
EndSplineSet
Validated: 1
Substitution2: "Single Substitution lookup 19 subtable" madhya_koMbu_dIrgha
EndChar

StartChar: uni0CC3
Encoding: 87 3267 87
Width: 715
GlyphClass: 4
Flags: W
LayerCount: 2
Fore
SplineSet
638 -130 m 1,0,1
 640 -132 l 1,2,3
 640 -208 640 -208 632 -275 c 0,4,5
 622 -350 622 -350 598 -418 c 1,6,7
 575 -488 575 -488 528 -545 c 0,8,9
 482 -602 482 -602 412 -640 c 1,10,11
 358 -668 358 -668 288 -682 c 1,12,13
 232 -690 232 -690 182 -690 c 2,14,-1
 168 -690 l 2,15,16
 95 -690 95 -690 25 -655 c 1,17,18
 -42 -625 -42 -625 -95 -568 c 1,19,20
 -145 -512 -145 -512 -170 -432 c 1,21,22
 -195 -368 -195 -368 -195 -288 c 0,23,24
 -195 -275 -195 -275 -195 -265 c 0,25,26
 -192 -198 -192 -198 -170 -152 c 1,27,28
 -150 -102 -150 -102 -122 -70 c 0,29,30
 -90 -32 -90 -32 -65 -20 c 1,31,32
 -32 -2 -32 -2 -10 0 c 0,33,34
 8 2 8 2 22 2 c 0,35,36
 100 2 100 2 138 -40 c 1,37,38
 180 -90 180 -90 185 -180 c 0,39,40
 185 -185 185 -185 185 -192 c 0,41,42
 185 -258 185 -258 150 -300 c 1,43,44
 112 -340 112 -340 50 -340 c 0,45,46
 48 -340 48 -340 42 -340 c 0,47,48
 -25 -338 -25 -338 -55 -282 c 0,49,50
 -85 -225 -85 -225 -85 -175 c 1,51,52
 -120 -232 -120 -232 -120 -288 c 0,53,54
 -120 -340 -120 -340 -105 -385 c 128,-1,55
 -90 -430 -90 -430 -61 -467.5 c 128,-1,56
 -32 -505 -32 -505 8 -530 c 128,-1,57
 48 -555 48 -555 95 -562 c 1,58,59
 128 -568 128 -568 162 -568 c 0,60,61
 245 -568 245 -568 320 -535 c 0,62,63
 425 -490 425 -490 482 -380 c 1,64,65
 532 -298 532 -298 538 -208 c 0,66,67
 538 -198 538 -198 538 -185 c 0,68,69
 538 -105 538 -105 500 18 c 1,70,71
 498 38 498 38 488 65 c 1,72,73
 482 72 482 72 455 140 c 1,74,75
 442 170 442 170 402 242 c 1,76,77
 352 322 352 322 312 380 c 1,78,-1
 385 380 l 1,79,80
 455 288 455 288 495 225 c 1,81,82
 535 168 535 168 565 105 c 0,83,84
 592 50 592 50 608 -8 c 0,85,86
 620 -48 620 -48 638 -130 c 1,0,1
122 -175 m 1,87,-1
 122 -160 l 2,88,89
 122 -122 122 -122 100 -100 c 1,90,91
 72 -78 72 -78 35 -78 c 2,92,-1
 25 -78 l 1,93,94
 -2 -85 -2 -85 -20 -110 c 128,-1,95
 -38 -135 -38 -135 -38 -168 c 0,96,97
 -38 -202 -38 -202 -15 -225 c 1,98,99
 8 -250 8 -250 38 -250 c 0,100,101
 70 -250 70 -250 95 -235 c 1,102,103
 118 -220 118 -220 122 -175 c 1,87,-1
EndSplineSet
Validated: 1
EndChar

StartChar: uni0CC4
Encoding: 88 3268 88
Width: 715
GlyphClass: 4
Flags: W
LayerCount: 2
Fore
SplineSet
638 -130 m 1,0,1
 640 -132 l 1,2,3
 640 -208 640 -208 632 -275 c 0,4,5
 622 -350 622 -350 598 -418 c 1,6,7
 575 -488 575 -488 528 -545 c 0,8,9
 482 -602 482 -602 412 -640 c 1,10,11
 358 -668 358 -668 288 -682 c 1,12,13
 232 -690 232 -690 182 -690 c 2,14,-1
 168 -690 l 2,15,16
 95 -690 95 -690 25 -655 c 1,17,18
 -42 -625 -42 -625 -95 -568 c 1,19,20
 -145 -512 -145 -512 -170 -432 c 1,21,22
 -195 -368 -195 -368 -195 -288 c 0,23,24
 -195 -275 -195 -275 -195 -265 c 0,25,26
 -192 -198 -192 -198 -170 -152 c 1,27,28
 -150 -102 -150 -102 -122 -70 c 0,29,30
 -90 -32 -90 -32 -65 -20 c 1,31,32
 -32 -2 -32 -2 -10 0 c 0,33,34
 8 2 8 2 22 2 c 0,35,36
 100 2 100 2 138 -40 c 1,37,38
 180 -90 180 -90 185 -180 c 0,39,40
 185 -185 185 -185 185 -192 c 0,41,42
 185 -258 185 -258 150 -300 c 1,43,44
 112 -340 112 -340 50 -340 c 0,45,46
 48 -340 48 -340 42 -340 c 0,47,48
 -25 -338 -25 -338 -55 -282 c 0,49,50
 -85 -225 -85 -225 -85 -175 c 1,51,52
 -120 -232 -120 -232 -120 -288 c 0,53,54
 -120 -340 -120 -340 -105 -385 c 128,-1,55
 -90 -430 -90 -430 -61 -467.5 c 128,-1,56
 -32 -505 -32 -505 8 -530 c 128,-1,57
 48 -555 48 -555 95 -562 c 1,58,59
 128 -568 128 -568 162 -568 c 0,60,61
 245 -568 245 -568 320 -535 c 0,62,63
 425 -490 425 -490 482 -380 c 1,64,65
 532 -298 532 -298 538 -208 c 0,66,67
 538 -198 538 -198 538 -185 c 0,68,69
 538 -105 538 -105 500 18 c 1,70,71
 498 38 498 38 488 65 c 1,72,73
 482 72 482 72 455 140 c 1,74,75
 442 170 442 170 402 242 c 1,76,77
 352 322 352 322 312 380 c 1,78,-1
 385 380 l 1,79,80
 455 288 455 288 495 225 c 1,81,82
 535 168 535 168 565 105 c 0,83,84
 592 50 592 50 608 -8 c 0,85,86
 620 -48 620 -48 638 -130 c 1,0,1
122 -175 m 1,87,-1
 122 -160 l 2,88,89
 122 -122 122 -122 100 -100 c 1,90,91
 72 -78 72 -78 35 -78 c 2,92,-1
 25 -78 l 1,93,94
 -2 -85 -2 -85 -20 -110 c 128,-1,95
 -38 -135 -38 -135 -38 -168 c 0,96,97
 -38 -202 -38 -202 -15 -225 c 1,98,99
 8 -250 8 -250 38 -250 c 0,100,101
 70 -250 70 -250 95 -235 c 1,102,103
 118 -220 118 -220 122 -175 c 1,87,-1
EndSplineSet
Validated: 1
EndChar

StartChar: uni0CC6
Encoding: 89 3270 89
Width: 602
GlyphClass: 4
Flags: W
LayerCount: 2
Fore
SplineSet
530 1238 m 1,0,1
 530 1118 530 1118 438 1015 c 0,2,3
 392 962 392 962 318 945 c 1,4,5
 245 922 245 922 175 922 c 2,6,-1
 -48 922 l 1,7,-1
 -48 1085 l 1,8,-1
 175 1085 l 2,9,10
 220 1085 220 1085 267.5 1102.5 c 128,-1,11
 315 1120 315 1120 348 1148 c 0,12,13
 382 1178 382 1178 402 1212 c 1,14,15
 422 1252 422 1252 422 1292 c 0,16,17
 422 1382 422 1382 355 1432 c 0,18,19
 290 1480 290 1480 208 1480 c 0,20,21
 202 1480 202 1480 195 1480 c 0,22,23
 138 1472 138 1472 105 1442 c 1,24,25
 72 1410 72 1410 72 1375 c 0,26,27
 72 1342 72 1342 85 1312 c 0,28,29
 95 1288 95 1288 125 1272 c 1,30,31
 112 1295 112 1295 112 1335 c 1,32,33
 122 1358 122 1358 122 1362 c 1,34,35
 128 1375 128 1375 140 1388 c 0,36,37
 160 1412 160 1412 180 1415 c 0,38,39
 208 1420 208 1420 225 1420 c 0,40,41
 260 1420 260 1420 287.5 1392.5 c 128,-1,42
 315 1365 315 1365 315 1305 c 0,43,44
 315 1250 315 1250 273.5 1220 c 128,-1,45
 232 1190 232 1190 175 1190 c 0,46,47
 102 1190 102 1190 55 1248 c 1,48,49
 10 1300 10 1300 10 1370 c 0,50,51
 10 1448 10 1448 65 1502 c 0,52,53
 122 1558 122 1558 205 1558 c 0,54,55
 278 1558 278 1558 332 1542 c 1,56,57
 392 1528 392 1528 432 1488 c 1,58,59
 478 1448 478 1448 500 1388 c 1,60,61
 528 1322 528 1322 530 1238 c 1,0,1
EndSplineSet
Validated: 1
EndChar

StartChar: uni0CC7
Encoding: 90 3271 90
Width: 602
GlyphClass: 2
Flags: W
LayerCount: 2
Fore
SplineSet
1238 840 m 0,0,1
 1238 750 1238 750 1185 682 c 0,2,3
 1118 598 1118 598 1015 598 c 0,4,5
 938 598 938 598 888 660 c 1,6,7
 835 722 835 722 835 815 c 0,8,9
 835 895 835 895 872 958 c 1,10,11
 780 895 780 895 735 802 c 0,12,13
 690 708 690 708 690 608 c 0,14,15
 690 498 690 498 758 385 c 1,16,17
 812 288 812 288 930 192 c 0,18,19
 968 162 968 162 1038 110 c 1,20,-1
 1195 0 l 1,21,-1
 940 2 l 1,22,23
 790 138 790 138 712 310 c 1,24,25
 648 435 648 435 648 632 c 0,26,27
 648 810 648 810 732 958 c 1,28,29
 838 1130 838 1130 1015 1130 c 0,30,31
 1122 1130 1122 1130 1182 1038 c 0,32,33
 1210 995 1210 995 1225 945 c 1,34,35
 1238 895 1238 895 1238 840 c 0,0,1
1190 860 m 0,36,37
 1190 918 1190 918 1145 952 c 0,38,39
 1100 985 1100 985 1038 985 c 0,40,41
 972 985 972 985 930 948 c 1,42,43
 890 908 890 908 890 858 c 0,44,45
 890 800 890 800 928 768 c 0,46,47
 965 738 965 738 1015 738 c 0,48,49
 1092 738 1092 738 1140 768 c 0,50,51
 1190 800 1190 800 1190 860 c 0,36,37
530 1238 m 1,52,53
 530 1118 530 1118 438 1015 c 0,54,55
 392 962 392 962 318 945 c 1,56,57
 245 922 245 922 175 922 c 2,58,-1
 -48 922 l 1,59,-1
 -48 1085 l 1,60,-1
 175 1085 l 2,61,62
 220 1085 220 1085 267.5 1102.5 c 128,-1,63
 315 1120 315 1120 348 1148 c 0,64,65
 382 1178 382 1178 402 1212 c 1,66,67
 422 1252 422 1252 422 1292 c 0,68,69
 422 1382 422 1382 355 1432 c 0,70,71
 290 1480 290 1480 208 1480 c 0,72,73
 202 1480 202 1480 195 1480 c 0,74,75
 138 1472 138 1472 105 1442 c 1,76,77
 72 1410 72 1410 72 1375 c 0,78,79
 72 1342 72 1342 85 1312 c 0,80,81
 95 1288 95 1288 125 1272 c 1,82,83
 112 1295 112 1295 112 1335 c 1,84,85
 122 1358 122 1358 122 1362 c 1,86,87
 128 1375 128 1375 140 1388 c 0,88,89
 160 1412 160 1412 180 1415 c 0,90,91
 208 1420 208 1420 225 1420 c 0,92,93
 260 1420 260 1420 287.5 1392.5 c 128,-1,94
 315 1365 315 1365 315 1305 c 0,95,96
 315 1250 315 1250 273.5 1220 c 128,-1,97
 232 1190 232 1190 175 1190 c 0,98,99
 102 1190 102 1190 55 1248 c 1,100,101
 10 1300 10 1300 10 1370 c 0,102,103
 10 1448 10 1448 65 1502 c 0,104,105
 122 1558 122 1558 205 1558 c 0,106,107
 278 1558 278 1558 332 1542 c 1,108,109
 392 1528 392 1528 432 1488 c 1,110,111
 478 1448 478 1448 500 1388 c 1,112,113
 528 1322 528 1322 530 1238 c 1,52,53
EndSplineSet
Validated: 1
EndChar

StartChar: uni0CC8
Encoding: 91 3272 91
Width: 602
GlyphClass: 4
Flags: W
LayerCount: 2
Fore
SplineSet
955 -392 m 0,0,1
 955 -495 955 -495 918 -575 c 0,2,3
 878 -660 878 -660 812 -715 c 1,4,5
 745 -775 745 -775 660 -805 c 1,6,7
 572 -838 572 -838 476 -838 c 128,-1,8
 380 -838 380 -838 302 -792 c 1,9,10
 225 -750 225 -750 175 -695 c 1,11,12
 110 -615 110 -615 82 -518 c 1,13,14
 55 -418 55 -418 55 -305 c 0,15,16
 55 -238 55 -238 78 -180 c 1,17,18
 95 -128 95 -128 128.5 -89 c 128,-1,19
 162 -50 162 -50 205 -32 c 1,20,21
 245 -12 245 -12 288 -12 c 0,22,23
 365 -12 365 -12 420 -65 c 1,24,25
 472 -118 472 -118 472 -230 c 0,26,27
 472 -272 472 -272 452 -305 c 1,28,29
 438 -332 438 -332 410 -358 c 1,30,31
 382 -380 382 -380 355 -390 c 0,32,33
 322 -402 322 -402 302 -402 c 0,34,35
 250 -402 250 -402 208 -365 c 1,36,37
 162 -328 162 -328 152 -250 c 1,38,39
 140 -272 140 -272 140 -338 c 0,40,41
 140 -478 140 -478 215 -578 c 128,-1,42
 290 -678 290 -678 422 -700 c 1,43,44
 460 -705 460 -705 495 -705 c 0,45,46
 540 -705 540 -705 580 -695 c 1,47,48
 658 -672 658 -672 710 -625 c 1,49,50
 762 -580 762 -580 793.5 -507.5 c 128,-1,51
 825 -435 825 -435 825 -345 c 0,52,53
 825 -258 825 -258 798 -208 c 1,54,55
 768 -158 768 -158 728 -125 c 1,56,57
 682 -95 682 -95 642 -72 c 1,58,59
 595 -52 595 -52 562 -25 c 1,60,61
 745 78 745 78 745 168 c 0,62,63
 745 185 745 185 740 220 c 1,64,65
 738 255 738 255 695 352 c 1,66,67
 735 328 735 328 758 310 c 1,68,69
 790 290 790 290 808 260 c 1,70,71
 830 230 830 230 842 192 c 0,72,73
 855 152 855 152 855 95 c 0,74,75
 855 70 855 70 838 48 c 1,76,77
 815 25 815 25 792 10 c 0,78,79
 765 -8 765 -8 745 -20 c 1,80,81
 718 -32 718 -32 710 -38 c 1,82,-1
 792 -70 l 1,83,84
 832 -82 832 -82 870 -132 c 1,85,86
 912 -195 912 -195 932 -262 c 1,87,88
 955 -332 955 -332 955 -392 c 0,0,1
390 -188 m 0,89,90
 390 -122 390 -122 362 -95 c 0,91,92
 332 -65 332 -65 298 -65 c 0,93,94
 248 -65 248 -65 215 -95 c 0,95,96
 180 -128 180 -128 175 -198 c 1,97,98
 175 -232 175 -232 190 -255 c 0,99,100
 200 -272 200 -272 220 -285 c 1,101,102
 242 -298 242 -298 260 -300 c 1,103,104
 282 -305 282 -305 298 -305 c 0,105,106
 345 -305 345 -305 367.5 -267.5 c 128,-1,107
 390 -230 390 -230 390 -188 c 0,89,90
530 1238 m 1,108,109
 530 1118 530 1118 438 1015 c 0,110,111
 392 962 392 962 318 945 c 1,112,113
 245 922 245 922 175 922 c 2,114,-1
 -48 922 l 1,115,-1
 -48 1085 l 1,116,-1
 175 1085 l 2,117,118
 220 1085 220 1085 267.5 1102.5 c 128,-1,119
 315 1120 315 1120 348 1148 c 0,120,121
 382 1178 382 1178 402 1212 c 1,122,123
 422 1252 422 1252 422 1292 c 0,124,125
 422 1382 422 1382 355 1432 c 0,126,127
 290 1480 290 1480 208 1480 c 0,128,129
 202 1480 202 1480 195 1480 c 0,130,131
 138 1472 138 1472 105 1442 c 1,132,133
 72 1410 72 1410 72 1375 c 0,134,135
 72 1342 72 1342 85 1312 c 0,136,137
 95 1288 95 1288 125 1272 c 1,138,139
 112 1295 112 1295 112 1335 c 1,140,141
 122 1358 122 1358 122 1362 c 1,142,143
 128 1375 128 1375 140 1388 c 0,144,145
 160 1412 160 1412 180 1415 c 0,146,147
 208 1420 208 1420 225 1420 c 0,148,149
 260 1420 260 1420 287.5 1392.5 c 128,-1,150
 315 1365 315 1365 315 1305 c 0,151,152
 315 1250 315 1250 273.5 1220 c 128,-1,153
 232 1190 232 1190 175 1190 c 0,154,155
 102 1190 102 1190 55 1248 c 1,156,157
 10 1300 10 1300 10 1370 c 0,158,159
 10 1448 10 1448 65 1502 c 0,160,161
 122 1558 122 1558 205 1558 c 0,162,163
 278 1558 278 1558 332 1542 c 1,164,165
 392 1528 392 1528 432 1488 c 1,166,167
 478 1448 478 1448 500 1388 c 1,168,169
 528 1322 528 1322 530 1238 c 1,108,109
EndSplineSet
Validated: 1
EndChar

StartChar: uni0CCA
Encoding: 92 3274 92
Width: 602
GlyphClass: 4
Flags: W
LayerCount: 2
Fore
SplineSet
1918 470 m 0,0,1
 1918 278 1918 278 1845 158 c 1,2,3
 1753 0 1753 0 1553 0 c 0,4,5
 1428 0 1428 0 1333 78 c 0,6,7
 1235 158 1235 158 1235 260 c 0,8,9
 1235 378 1235 378 1295 452 c 1,10,11
 1353 530 1353 530 1461 530 c 0,12,13
 1538 530 1538 530 1575 488 c 0,14,15
 1611 448 1611 448 1611 380 c 0,16,17
 1611 335 1611 335 1576 295 c 128,-1,18
 1541 255 1541 255 1483 255 c 0,19,20
 1438 255 1438 255 1400.5 295 c 128,-1,21
 1363 335 1363 335 1363 398 c 1,22,-1
 1371 450 l 1,23,24
 1305 418 1305 418 1305 310 c 0,25,26
 1305 230 1305 230 1371 185 c 0,27,28
 1438 140 1438 140 1531 140 c 0,29,30
 1683 140 1683 140 1775.5 227.5 c 128,-1,31
 1868 315 1868 315 1868 470 c 0,32,33
 1868 630 1868 630 1708 742 c 1,34,35
 1558 850 1558 850 1388 850 c 0,36,37
 1331 850 1331 850 1265 830 c 1,38,39
 1203 808 1203 808 1148 772 c 0,40,41
 1018 685 1018 685 1018 575 c 0,42,43
 1018 558 1018 558 1025 522 c 0,44,45
 1028 510 1028 510 1033 495 c 1,46,47
 1035 478 1035 478 1038 472 c 0,48,49
 1048 450 1048 450 1058 405 c 0,50,51
 1063 378 1063 378 1063 350 c 0,52,53
 1063 335 1063 335 1061 318 c 0,54,55
 1048 170 1048 170 985 92 c 1,56,57
 918 0 918 0 778 0 c 0,58,59
 708 0 708 0 646.5 35 c 128,-1,60
 585 70 585 70 541 140 c 1,61,62
 518 198 518 198 508 270 c 128,-1,63
 498 342 498 342 465 438 c 1,64,-1
 508 438 l 1,65,66
 535 380 535 380 541 335 c 1,67,68
 543 295 543 295 565 260 c 1,69,70
 638 180 638 180 748 180 c 0,71,72
 845 180 845 180 913 255 c 1,73,74
 985 325 985 325 985 442 c 0,75,76
 985 490 985 490 971 548 c 1,77,78
 953 610 953 610 953 670 c 0,79,80
 953 822 953 822 1045 922 c 1,81,82
 1153 1032 1153 1032 1365 1032 c 0,83,84
 1603 1032 1603 1032 1761 860 c 0,85,86
 1918 690 1918 690 1918 470 c 0,0,1
578 1238 m 1,87,88
 578 1121 578 1121 486 1015 c 0,89,90
 440 962 440 962 366 945 c 1,91,92
 293 922 293 922 223 922 c 2,93,-1
 0 922 l 1,94,-1
 0 1085 l 1,95,-1
 223 1085 l 2,96,97
 268 1085 268 1085 315.5 1102.5 c 128,-1,98
 363 1120 363 1120 396 1148 c 0,99,100
 430 1178 430 1178 450 1212 c 1,101,102
 470 1252 470 1252 470 1292 c 0,103,104
 470 1382 470 1382 403 1432 c 0,105,106
 338 1480 338 1480 256 1480 c 0,107,108
 250 1480 250 1480 243 1480 c 0,109,110
 186 1472 186 1472 153 1442 c 1,111,112
 120 1410 120 1410 120 1375 c 0,113,114
 120 1342 120 1342 133 1312 c 0,115,116
 143 1288 143 1288 173 1272 c 1,117,118
 160 1295 160 1295 160 1335 c 1,119,120
 170 1358 170 1358 170 1362 c 1,121,122
 176 1375 176 1375 188 1388 c 0,123,124
 208 1412 208 1412 228 1415 c 0,125,126
 256 1420 256 1420 273 1420 c 0,127,128
 308 1420 308 1420 335.5 1392.5 c 128,-1,129
 363 1365 363 1365 363 1305 c 0,130,131
 363 1250 363 1250 321.5 1220 c 128,-1,132
 280 1190 280 1190 223 1190 c 0,133,134
 150 1190 150 1190 103 1248 c 1,135,136
 58 1300 58 1300 58 1370 c 0,137,138
 58 1448 58 1448 113 1502 c 0,139,140
 170 1558 170 1558 253 1558 c 0,141,142
 326 1558 326 1558 380 1542 c 1,143,144
 440 1528 440 1528 480 1488 c 1,145,146
 526 1448 526 1448 548 1388 c 1,147,148
 576 1322 576 1322 578 1238 c 1,87,88
EndSplineSet
Validated: 1
EndChar

StartChar: uni0CCB
Encoding: 93 3275 93
Width: 602
GlyphClass: 4
Flags: W
LayerCount: 2
Fore
SplineSet
2695 838 m 0,0,1
 2695 750 2695 750 2642 678 c 1,2,3
 2575 592 2575 592 2470 592 c 0,4,5
 2392 592 2392 592 2342 658 c 1,6,7
 2290 722 2290 722 2290 815 c 0,8,9
 2290 895 2290 895 2330 955 c 1,10,11
 2235 890 2235 890 2192 798 c 0,12,13
 2148 705 2148 705 2148 608 c 0,14,15
 2148 495 2148 495 2215 380 c 0,16,17
 2272 282 2272 282 2390 190 c 0,18,19
 2440 150 2440 150 2495 108 c 1,20,-1
 2652 -2 l 1,21,-1
 2398 0 l 1,22,23
 2248 135 2248 135 2168 308 c 1,24,25
 2105 435 2105 435 2105 630 c 0,26,27
 2105 808 2105 808 2190 955 c 1,28,29
 2295 1128 2295 1128 2470 1128 c 0,30,31
 2580 1128 2580 1128 2638 1032 c 1,32,33
 2668 992 2668 992 2682 945 c 1,34,35
 2695 895 2695 895 2695 838 c 0,0,1
2648 858 m 0,36,37
 2648 915 2648 915 2602 950 c 1,38,39
 2558 982 2558 982 2495 982 c 0,40,41
 2430 982 2430 982 2390 945 c 0,42,43
 2348 905 2348 905 2348 855 c 0,44,45
 2348 798 2348 798 2385 765 c 1,46,47
 2422 735 2422 735 2470 735 c 0,48,49
 2550 735 2550 735 2598 765 c 1,50,51
 2648 798 2648 798 2648 858 c 0,36,37
1985 470 m 0,52,53
 1985 278 1985 278 1912 158 c 1,54,55
 1820 0 1820 0 1620 0 c 0,56,57
 1495 0 1495 0 1400 78 c 0,58,59
 1302 158 1302 158 1302 260 c 0,60,61
 1302 378 1302 378 1362 452 c 1,62,63
 1420 530 1420 530 1528 530 c 0,64,65
 1605 530 1605 530 1642 488 c 0,66,67
 1678 448 1678 448 1678 380 c 0,68,69
 1678 335 1678 335 1643 295 c 128,-1,70
 1608 255 1608 255 1550 255 c 0,71,72
 1505 255 1505 255 1467.5 295 c 128,-1,73
 1430 335 1430 335 1430 398 c 1,74,-1
 1438 450 l 1,75,76
 1372 418 1372 418 1372 310 c 0,77,78
 1372 230 1372 230 1438 185 c 0,79,80
 1505 140 1505 140 1598 140 c 0,81,82
 1750 140 1750 140 1842.5 227.5 c 128,-1,83
 1935 315 1935 315 1935 470 c 0,84,85
 1935 630 1935 630 1775 742 c 1,86,87
 1625 850 1625 850 1455 850 c 0,88,89
 1398 850 1398 850 1332 830 c 1,90,91
 1270 808 1270 808 1215 772 c 0,92,93
 1085 685 1085 685 1085 575 c 0,94,95
 1085 558 1085 558 1092 522 c 0,96,97
 1095 510 1095 510 1100 495 c 1,98,99
 1102 478 1102 478 1105 472 c 0,100,101
 1115 450 1115 450 1125 405 c 0,102,103
 1130 378 1130 378 1130 350 c 0,104,105
 1130 335 1130 335 1128 318 c 0,106,107
 1115 170 1115 170 1052 92 c 1,108,109
 985 0 985 0 845 0 c 0,110,111
 775 0 775 0 713.5 35 c 128,-1,112
 652 70 652 70 608 140 c 1,113,114
 585 198 585 198 575 270 c 128,-1,115
 565 342 565 342 532 438 c 1,116,-1
 575 438 l 1,117,118
 602 380 602 380 608 335 c 1,119,120
 610 295 610 295 632 260 c 1,121,122
 705 180 705 180 815 180 c 0,123,124
 912 180 912 180 980 255 c 1,125,126
 1052 325 1052 325 1052 442 c 0,127,128
 1052 490 1052 490 1038 548 c 1,129,130
 1020 610 1020 610 1020 670 c 0,131,132
 1020 822 1020 822 1112 922 c 1,133,134
 1220 1032 1220 1032 1432 1032 c 0,135,136
 1670 1032 1670 1032 1828 860 c 0,137,138
 1985 690 1985 690 1985 470 c 0,52,53
645 1238 m 1,139,140
 645 1121 645 1121 553 1015 c 0,141,142
 507 962 507 962 433 945 c 1,143,144
 360 922 360 922 290 922 c 2,145,-1
 67 922 l 1,146,-1
 67 1085 l 1,147,-1
 290 1085 l 2,148,149
 335 1085 335 1085 382.5 1102.5 c 128,-1,150
 430 1120 430 1120 463 1148 c 0,151,152
 497 1178 497 1178 517 1212 c 1,153,154
 537 1252 537 1252 537 1292 c 0,155,156
 537 1382 537 1382 470 1432 c 0,157,158
 405 1480 405 1480 323 1480 c 0,159,160
 317 1480 317 1480 310 1480 c 0,161,162
 253 1472 253 1472 220 1442 c 1,163,164
 187 1410 187 1410 187 1375 c 0,165,166
 187 1342 187 1342 200 1312 c 0,167,168
 210 1288 210 1288 240 1272 c 1,169,170
 227 1295 227 1295 227 1335 c 1,171,172
 237 1358 237 1358 237 1362 c 1,173,174
 243 1375 243 1375 255 1388 c 0,175,176
 275 1412 275 1412 295 1415 c 0,177,178
 323 1420 323 1420 340 1420 c 0,179,180
 375 1420 375 1420 402.5 1392.5 c 128,-1,181
 430 1365 430 1365 430 1305 c 0,182,183
 430 1250 430 1250 388.5 1220 c 128,-1,184
 347 1190 347 1190 290 1190 c 0,185,186
 217 1190 217 1190 170 1248 c 1,187,188
 125 1300 125 1300 125 1370 c 0,189,190
 125 1448 125 1448 180 1502 c 0,191,192
 237 1558 237 1558 320 1558 c 0,193,194
 393 1558 393 1558 447 1542 c 1,195,196
 507 1528 507 1528 547 1488 c 1,197,198
 593 1448 593 1448 615 1388 c 1,199,200
 643 1322 643 1322 645 1238 c 1,139,140
EndSplineSet
Validated: 1
EndChar

StartChar: uni0CCC
Encoding: 94 3276 94
Width: 1260
GlyphClass: 4
Flags: W
LayerCount: 2
Fore
SplineSet
1140 845 m 0,0,1
 1140 640 1140 640 1060 515 c 1,2,3
 970 370 970 370 798 370 c 0,4,5
 665 370 665 370 585 472 c 1,6,7
 505 568 505 568 505 705 c 0,8,9
 505 815 505 815 558 882 c 0,10,11
 610 948 610 948 705 948 c 0,12,13
 748 948 748 948 792 910 c 0,14,15
 835 872 835 872 835 820 c 0,16,17
 835 770 835 770 808 730 c 1,18,19
 778 695 778 695 728 695 c 128,-1,20
 678 695 678 695 648 730 c 0,21,22
 620 762 620 762 620 820 c 1,23,24
 640 872 640 872 700 895 c 1,25,-1
 682 900 l 1,26,27
 620 900 620 900 585 852.5 c 128,-1,28
 550 805 550 805 550 730 c 0,29,30
 550 630 550 630 615 570 c 1,31,32
 678 510 678 510 772 510 c 0,33,34
 840 510 840 510 898 535 c 1,35,36
 955 562 955 562 998 610 c 0,37,38
 1042 660 1042 660 1065 722 c 1,39,40
 1090 785 1090 785 1090 865 c 0,41,42
 1090 1105 1090 1105 912 1232 c 1,43,44
 758 1340 758 1340 538 1340 c 2,45,-1
 340 1340 l 1,46,47
 412 1288 412 1288 448 1232 c 0,48,49
 482 1180 482 1180 482 1100 c 128,-1,50
 482 1020 482 1020 432 970 c 1,51,52
 380 922 380 922 282 922 c 2,53,-1
 0 922 l 1,54,-1
 0 1085 l 1,55,-1
 255 1085 l 2,56,57
 410 1085 410 1085 410 1192 c 0,58,59
 410 1212 410 1212 362 1260 c 1,60,61
 298 1318 298 1318 208 1340 c 1,62,-1
 0 1340 l 1,63,-1
 0 1502 l 1,64,-1
 538 1502 l 1,65,66
 752 1482 752 1482 912 1358 c 0,67,68
 1140 1180 1140 1180 1140 845 c 0,0,1
EndSplineSet
Validated: 1
EndChar

StartChar: uni0CCD
Encoding: 95 3277 95
Width: 1242
GlyphClass: 2
Flags: W
LayerCount: 2
Fore
SplineSet
1160 1072 m 1,0,1
 1140 1062 l 1,2,3
 1075 1158 1075 1158 1008 1192 c 1,4,5
 940 1225 940 1225 845 1225 c 256,6,7
 750 1225 750 1225 682 1190 c 0,8,9
 618 1158 618 1158 590 1082 c 1,10,-1
 678 1082 l 2,11,12
 795 1082 795 1082 861.5 1002 c 128,-1,13
 928 922 928 922 928 798 c 0,14,15
 928 678 928 678 865 605 c 1,16,17
 808 535 808 535 705 535 c 0,18,19
 590 535 590 535 540 632 c 1,20,21
 500 705 500 705 500 838 c 1,22,-1
 505 922 l 1,23,-1
 0 922 l 1,24,-1
 0 1085 l 1,25,-1
 535 1085 l 1,26,27
 558 1198 558 1198 640 1268 c 1,28,29
 722 1340 722 1340 845 1340 c 0,30,31
 1012 1340 1012 1340 1085 1262 c 1,32,33
 1145 1202 1145 1202 1160 1072 c 1,0,1
878 798 m 0,34,35
 878 865 878 865 835 895 c 1,36,37
 792 922 792 922 705 922 c 2,38,-1
 552 922 l 1,39,-1
 550 845 l 1,40,41
 550 672 550 672 705 672 c 0,42,43
 772 672 772 672 825 705 c 1,44,45
 878 740 878 740 878 798 c 0,34,35
EndSplineSet
Validated: 1
EndChar

StartChar: uni0CD5
Encoding: 96 3285 96
Width: 835
GlyphClass: 2
Flags: W
LayerCount: 2
Fore
SplineSet
712 840 m 0,0,1
 712 750 712 750 660 682 c 1,2,3
 592 598 592 598 488 598 c 0,4,5
 410 598 410 598 362 660 c 1,6,7
 310 722 310 722 310 815 c 0,8,9
 310 895 310 895 350 958 c 1,10,11
 255 895 255 895 210 802 c 1,12,13
 168 708 168 708 168 608 c 0,14,15
 168 498 168 498 232 385 c 0,16,17
 288 288 288 288 408 192 c 1,18,19
 442 162 442 162 515 110 c 2,20,-1
 672 0 l 1,21,-1
 415 2 l 1,22,23
 262 140 262 140 188 310 c 1,24,25
 122 435 122 435 122 632 c 0,26,27
 122 810 122 810 208 958 c 1,28,29
 312 1130 312 1130 488 1130 c 0,30,31
 598 1130 598 1130 658 1038 c 1,32,33
 688 990 688 990 700 945 c 128,-1,34
 712 900 712 900 712 840 c 0,0,1
665 860 m 0,35,36
 665 918 665 918 620 952 c 0,37,38
 575 985 575 985 515 985 c 0,39,40
 448 985 448 985 408 947.5 c 128,-1,41
 368 910 368 910 368 858 c 0,42,43
 368 800 368 800 402 768 c 1,44,45
 440 738 440 738 488 738 c 0,46,47
 568 738 568 738 618 768 c 1,48,49
 665 798 665 798 665 860 c 0,35,36
EndSplineSet
Validated: 1
EndChar

StartChar: uni0CD6
Encoding: 97 3286 97
Width: 780
GlyphClass: 2
Flags: W
LayerCount: 2
Fore
SplineSet
700 -392 m 0,0,1
 700 -495 700 -495 660 -575 c 1,2,3
 620 -660 620 -660 558 -715 c 0,4,5
 495 -772 495 -772 405 -805 c 128,-1,6
 315 -838 315 -838 220 -838 c 0,7,8
 122 -838 122 -838 48 -792 c 1,9,10
 -32 -750 -32 -750 -78 -695 c 0,11,12
 -145 -615 -145 -615 -172.5 -516.5 c 128,-1,13
 -200 -418 -200 -418 -200 -305 c 0,14,15
 -200 -238 -200 -238 -180 -180 c 1,16,17
 -158 -125 -158 -125 -125 -90 c 1,18,19
 -95 -52 -95 -52 -50 -32 c 1,20,21
 -10 -12 -10 -12 32 -12 c 0,22,23
 110 -12 110 -12 162.5 -65 c 128,-1,24
 215 -118 215 -118 215 -230 c 0,25,26
 215 -272 215 -272 197.5 -303.5 c 128,-1,27
 180 -335 180 -335 152.5 -357.5 c 128,-1,28
 125 -380 125 -380 100 -390 c 1,29,30
 65 -402 65 -402 48 -402 c 0,31,32
 -5 -402 -5 -402 -47.5 -365 c 128,-1,33
 -90 -328 -90 -328 -102 -250 c 1,34,35
 -118 -272 -118 -272 -118 -338 c 0,36,37
 -118 -478 -118 -478 -42 -578 c 0,38,39
 35 -678 35 -678 168 -700 c 0,40,41
 202 -705 202 -705 238 -705 c 0,42,43
 285 -705 285 -705 325 -695 c 1,44,45
 400 -672 400 -672 452 -625 c 1,46,47
 510 -575 510 -575 538 -508 c 1,48,49
 568 -432 568 -432 568 -346 c 128,-1,50
 568 -260 568 -260 540 -208 c 0,51,52
 512 -158 512 -158 472 -125 c 1,53,54
 428 -95 428 -95 385 -72 c 1,55,56
 342 -55 342 -55 308 -25 c 1,57,58
 488 78 488 78 488 168 c 0,59,60
 488 185 488 185 485 220 c 128,-1,61
 482 255 482 255 440 352 c 1,62,63
 478 328 478 328 502 310 c 1,64,65
 532 290 532 290 552 260 c 1,66,67
 575 230 575 230 585 192 c 1,68,69
 598 152 598 152 598 95 c 0,70,71
 598 70 598 70 580 48 c 1,72,73
 565 32 565 32 535 10 c 0,74,75
 510 -8 510 -8 488 -20 c 1,76,77
 460 -32 460 -32 452 -38 c 1,78,-1
 535 -70 l 1,79,80
 575 -82 575 -82 615 -132 c 1,81,82
 655 -195 655 -195 678 -262 c 1,83,84
 700 -335 700 -335 700 -392 c 0,0,1
132 -188 m 0,85,86
 132 -122 132 -122 105 -95 c 1,87,88
 78 -65 78 -65 42 -65 c 0,89,90
 -8 -65 -8 -65 -42 -95 c 0,91,92
 -78 -128 -78 -128 -78 -198 c 0,93,94
 -78 -232 -78 -232 -65 -255 c 0,95,96
 -55 -272 -55 -272 -35 -285 c 0,97,98
 -10 -300 -10 -300 5 -300 c 1,99,100
 25 -305 25 -305 42 -305 c 0,101,102
 88 -305 88 -305 112 -268 c 1,103,104
 132 -232 132 -232 132 -188 c 0,85,86
EndSplineSet
Validated: 1
EndChar

StartChar: uni0CDE
Encoding: 98 3294 98
Width: 1540
GlyphClass: 2
Flags: W
LayerCount: 2
Fore
SplineSet
1420 585 m 0,0,1
 1420 372 1420 372 1345 208 c 1,2,3
 1248 0 1248 0 1075 0 c 0,4,5
 870 0 870 0 768 272 c 1,6,7
 718 128 718 128 645 62 c 1,8,9
 572 0 572 0 465 0 c 0,10,11
 295 0 295 0 200 208 c 0,12,13
 162 292 162 292 145 385 c 1,14,15
 122 482 122 482 122 585 c 0,16,17
 122 815 122 815 192 952 c 1,18,19
 265 1110 265 1110 418 1110 c 0,20,21
 512 1110 512 1110 568 1042 c 1,22,23
 618 975 618 975 618 820 c 0,24,25
 618 715 618 715 558 662 c 1,26,27
 510 622 510 622 418 622 c 0,28,29
 380 622 380 622 352 642 c 1,30,31
 320 662 320 662 298 700 c 1,32,33
 272 735 272 735 260 780 c 1,34,35
 248 820 248 820 248 875 c 1,36,37
 208 825 208 825 190 748 c 1,38,39
 168 670 168 670 168 562 c 0,40,41
 168 445 168 445 250 325 c 1,42,43
 352 180 352 180 488 180 c 0,44,45
 595 180 595 180 655 252 c 1,46,47
 718 320 718 320 768 470 c 1,48,49
 820 312 820 312 882 248 c 0,50,51
 948 180 948 180 1050 180 c 0,52,53
 1192 180 1192 180 1288 322 c 1,54,55
 1372 442 1372 442 1372 562 c 0,56,57
 1372 775 1372 775 1292 875 c 1,58,59
 1292 820 1292 820 1280 780 c 0,60,61
 1265 730 1265 730 1242 698 c 1,62,63
 1220 662 1220 662 1190 642 c 1,64,65
 1162 622 1162 622 1122 622 c 0,66,67
 1032 622 1032 622 982 660 c 1,68,69
 922 715 922 715 922 820 c 0,70,71
 922 962 922 962 980 1045 c 1,72,73
 1030 1110 1030 1110 1122 1110 c 0,74,75
 1272 1110 1272 1110 1352 952 c 1,76,77
 1420 812 1420 812 1420 585 c 0,0,1
1242 865 m 0,78,79
 1242 910 1242 910 1220 942 c 1,80,81
 1150 990 1150 990 1100 990 c 0,82,83
 1055 990 1055 990 1015 948 c 1,84,85
 968 910 968 910 968 862 c 0,86,87
 968 810 968 810 1008 772 c 1,88,89
 1042 738 1042 738 1122 738 c 0,90,91
 1180 738 1180 738 1211 776.5 c 128,-1,92
 1242 815 1242 815 1242 865 c 0,78,79
568 862 m 0,93,94
 568 888 568 888 555 910 c 0,95,96
 545 928 545 928 522 950 c 1,97,98
 505 968 505 968 482 978 c 1,99,100
 460 990 460 990 440 990 c 0,101,102
 410 990 410 990 385 980 c 0,103,104
 358 970 358 970 322 942 c 1,105,106
 298 910 298 910 298 868 c 0,107,108
 298 818 298 818 328 778 c 128,-1,109
 358 738 358 738 418 738 c 0,110,111
 568 738 568 738 568 862 c 0,93,94
EndSplineSet
Validated: 1
EndChar

StartChar: uni0CE0
Encoding: 99 3296 99
Width: 1705
GlyphClass: 2
Flags: W
LayerCount: 2
Fore
SplineSet
1585 414.998 m 1,0,1
 1603.01 371.167 1603.01 371.167 1607 335 c 1,2,3
 1609 295 1609 295 1629 260 c 1,4,5
 1705 180 1705 180 1815 180 c 0,6,7
 1909 180 1909 180 1979 255 c 1,8,9
 2049 322 2049 322 2049 442 c 0,10,11
 2049 488 2049 488 2035 548 c 1,12,13
 2019 610 2019 610 2019 670 c 0,14,15
 2019 825 2019 825 2112 922 c 0,16,17
 2219 1032 2219 1032 2432 1032 c 0,18,19
 2667 1032 2667 1032 2824.5 860 c 128,-1,20
 2982 688 2982 688 2982 470 c 0,21,22
 2982 278 2982 278 2909 158 c 1,23,24
 2819 0 2819 0 2619 0 c 0,25,26
 2489 0 2489 0 2397 78 c 1,27,28
 2299 158 2299 158 2299 260 c 0,29,30
 2299 375 2299 375 2359 452.5 c 128,-1,31
 2419 530 2419 530 2527 530 c 0,32,33
 2605 530 2605 530 2639 488 c 1,34,35
 2677 448 2677 448 2677 380 c 0,36,37
 2677 332 2677 332 2642 295 c 1,38,39
 2607 255 2607 255 2547 255 c 0,40,41
 2505 255 2505 255 2465 295 c 1,42,43
 2425 340 2425 340 2425 398 c 1,44,-1
 2435 450 l 1,45,46
 2369 420 2369 420 2369 310 c 0,47,48
 2369 230 2369 230 2437 185 c 128,-1,49
 2505 140 2505 140 2597 140 c 0,50,51
 2749 140 2749 140 2842 228 c 1,52,53
 2935 318 2935 318 2935 470 c 0,54,55
 2935 630 2935 630 2772 742 c 1,56,57
 2625 850 2625 850 2452 850 c 0,58,59
 2395 850 2395 850 2329 830 c 1,60,61
 2267 808 2267 808 2209 772 c 1,62,63
 2082 685 2082 685 2082 575 c 0,64,65
 2082 558 2082 558 2089 522 c 1,66,67
 2095 505 2095 505 2097 490 c 128,-1,68
 2099 475 2099 475 2099 472 c 1,69,70
 2115 448 2115 448 2122 405 c 1,71,72
 2129 378 2129 378 2129 350 c 0,73,74
 2129 335 2129 335 2127 318 c 0,75,76
 2109.18 166.505 2109.18 166.505 2049 92 c 1,77,78
 1985 0 1985 0 1842 0 c 0,79,80
 1775 0 1775 0 1712 35 c 0,81,82
 1652 68 1652 68 1605 140 c 1,83,84
 1579 202 1579 202 1572 270 c 1,85,86
 1571.73 270.909 1571.73 270.909 1570.8 276.357 c 1,87,88
 1569.47 270.605 1569.47 270.605 1568 265 c 1,89,90
 1552 192 1552 192 1518 145 c 1,91,92
 1432 10 1432 10 1268 10 c 0,93,94
 1192 10 1192 10 1128 38 c 0,95,96
 1060 68 1060 68 1002 122 c 1,97,98
 960 170 960 170 925 230 c 128,-1,99
 890 290 890 290 862 368 c 1,100,101
 825 202 825 202 730 108 c 0,102,103
 632 10 632 10 488 10 c 0,104,105
 362 10 362 10 282 78 c 1,106,107
 168 168 168 168 168 272 c 0,108,109
 168 375 168 375 222 425 c 1,110,111
 278 472 278 472 368 472 c 0,112,113
 440 472 440 472 482 422 c 1,114,115
 522 372 522 372 522 300 c 0,116,117
 522 238 522 238 470 200 c 1,118,119
 415 170 415 170 368 170 c 0,120,121
 353 170 353 170 328 175 c 2,122,-1
 278 185 l 1,123,124
 305 135 305 135 362 95 c 1,125,126
 418 60 418 60 482 60 c 1,127,128
 540 70 540 70 575 95 c 1,129,130
 615 120 615 120 642 162 c 0,131,132
 672 208 672 208 695 295 c 1,133,134
 712 370 712 370 712 482 c 0,135,136
 712 675 712 675 628 855 c 0,137,138
 526.733 1072 526.733 1072 375 1072 c 0,139,140
 305 1072 305 1072 262 1042 c 1,141,142
 220 1010 220 1010 205 958 c 1,143,144
 242 980 242 980 300 980 c 0,145,146
 362 980 362 980 407 942.5 c 128,-1,147
 452 905 452 905 452 832 c 0,148,149
 452 765 452 765 415 722 c 1,150,151
 375 678 375 678 300 678 c 128,-1,152
 225 678 225 678 173.5 729 c 128,-1,153
 122 780 122 780 122 855 c 0,154,155
 122 978 122 978 192 1050 c 128,-1,156
 262 1122 262 1122 392 1122 c 0,157,158
 615 1122 615 1122 752 922 c 1,159,160
 875 750 875 750 875 512 c 1,161,162
 895 438 895 438 922 375 c 1,163,164
 952 312 952 312 985 272 c 1,165,166
 1072 175 1072 175 1220 175 c 0,167,168
 1328 175 1328 175 1398 270 c 1,169,170
 1468 362 1468 362 1468 482 c 0,171,172
 1468 618 1468 618 1362 768 c 0,173,174
 1242 938 1242 938 1100 938 c 2,175,-1
 992 938 l 1,176,-1
 992 1095 l 1,177,-1
 1290 1095 l 2,178,179
 1348 1095 1348 1095 1405 1150 c 0,180,181
 1460 1202 1460 1202 1460 1275 c 0,182,183
 1460 1358 1460 1358 1352 1448 c 1,184,-1
 1410 1448 l 1,185,186
 1465 1420 1465 1420 1500 1358 c 1,187,188
 1540 1292 1540 1292 1540 1232 c 0,189,190
 1540 1100 1540 1100 1450 1020 c 1,191,192
 1368 938 1368 938 1268 938 c 1,193,194
 1335 900 1335 900 1385 850 c 0,195,196
 1432 802 1432 802 1485 732 c 1,197,198
 1585 578 1585 578 1585 415 c 1,199,-1
 1585 414.998 l 1,0,1
450 300 m 256,200,201
 450 330 450 330 427.5 355 c 128,-1,202
 405 380 405 380 368 380 c 0,203,204
 310 380 310 380 288 358 c 1,205,206
 265 330 265 330 265 295 c 0,207,208
 265 265 265 265 295 242 c 1,209,210
 322 220 322 220 368 220 c 0,211,212
 398 220 398 220 425 245 c 1,213,214
 450 270 450 270 450 300 c 256,200,201
358 832 m 0,215,216
 358 882 358 882 340 910 c 128,-1,217
 322 938 322 938 300 938 c 0,218,219
 248 938 248 938 220 915 c 0,220,221
 195 895 195 895 195 862 c 0,222,223
 195 815 195 815 220 798 c 1,224,225
 245 775 245 775 278 775 c 0,226,227
 358 775 358 775 358 832 c 0,215,216
EndSplineSet
Validated: 1
EndChar

StartChar: uni0CE6
Encoding: 100 3302 100
Width: 1065
GlyphClass: 2
Flags: W
LayerCount: 2
Fore
SplineSet
945 522 m 0,0,1
 945 5 945 5 555 5 c 0,2,3
 330 5 330 5 220 185 c 1,4,5
 122 342 122 342 122 592 c 0,6,7
 122 1140 122 1140 532 1140 c 0,8,9
 722 1140 722 1140 838 955 c 0,10,11
 945 785 945 785 945 522 c 0,0,1
895 522 m 0,12,13
 895 695 895 695 783.5 821.5 c 128,-1,14
 672 948 672 948 510 948 c 0,15,16
 168 948 168 948 168 568 c 0,17,18
 168 402 168 402 278 298 c 1,19,20
 385 188 385 188 532 188 c 0,21,22
 688 188 688 188 792 282 c 1,23,24
 895 380 895 380 895 522 c 0,12,13
EndSplineSet
Validated: 1
EndChar

StartChar: uni0CE7
Encoding: 101 3303 101
Width: 1450
GlyphClass: 2
Flags: W
LayerCount: 2
Fore
SplineSet
1328 528 m 0,0,1
 1328 352 1328 352 1298 255 c 1,2,3
 1255 122 1255 122 1150 38 c 1,4,5
 1112 15 1112 15 1072 15 c 0,6,7
 1002 15 1002 15 1002 72 c 0,8,9
 1002 102 1002 102 1015 122 c 1,10,11
 1112 198 1112 198 1178 302 c 1,12,13
 1250 420 1250 420 1250 528 c 0,14,15
 1250 715 1250 715 1088 840 c 1,16,17
 930 952 930 952 725 952 c 0,18,19
 530 952 530 952 375 830 c 1,20,21
 218 705 218 705 195 525 c 1,22,23
 195 425 195 425 248 328 c 1,24,25
 302 225 302 225 402 150 c 1,26,27
 445 98 445 98 445 65 c 0,28,29
 445 38 445 38 425 18 c 1,30,31
 402 0 402 0 375 0 c 0,32,33
 368 0 368 0 318 12 c 1,34,35
 220 102 220 102 170 232 c 1,36,37
 122 368 122 368 122 528 c 0,38,39
 122 755 122 755 255 922 c 1,40,41
 418 1145 418 1145 745 1145 c 0,42,43
 1038 1145 1038 1145 1198 930 c 1,44,45
 1328 762 1328 762 1328 528 c 0,0,1
EndSplineSet
Validated: 1
EndChar

StartChar: uni0CE8
Encoding: 102 3304 102
Width: 1400
GlyphClass: 2
Flags: W
LayerCount: 2
Fore
SplineSet
1280 545 m 0,0,1
 1280 315 1280 315 1190 180 c 1,2,3
 1070 5 1070 5 792 5 c 2,4,-1
 122 5 l 1,5,-1
 122 212 l 1,6,-1
 792 212 l 2,7,8
 975 212 975 212 1100 308 c 1,9,10
 1230 400 1230 400 1230 542 c 0,11,12
 1230 722 1230 722 1112 860 c 1,13,14
 1000 998 1000 998 865 998 c 0,15,16
 770 998 770 998 688 938 c 0,17,18
 602 875 602 875 602 798 c 0,19,20
 602 758 602 758 642 712 c 1,21,22
 682 672 682 672 748 672 c 0,23,24
 808 672 808 672 840 705 c 1,25,26
 872 742 872 742 888 828 c 1,27,28
 915 788 915 788 922 762 c 1,29,30
 935 738 935 738 935 712 c 0,31,32
 935 660 935 660 892.5 620 c 128,-1,33
 850 580 850 580 770 580 c 0,34,35
 660 580 660 580 602 642 c 1,36,37
 548 708 548 708 548 825 c 0,38,39
 548 978 548 978 622 1075 c 1,40,41
 700 1185 700 1185 865 1185 c 0,42,43
 1058 1185 1058 1185 1175 982 c 1,44,45
 1280 792 1280 792 1280 545 c 0,0,1
EndSplineSet
Validated: 1
EndChar

StartChar: uni0CE9
Encoding: 103 3305 103
Width: 1357
GlyphClass: 2
Flags: W
LayerCount: 2
Fore
SplineSet
1238 212 m 0,0,1
 1238 128 1238 128 1185 65 c 1,2,3
 1130 8 1130 8 1052 8 c 0,4,5
 950 8 950 8 842 188 c 1,6,7
 810 245 810 245 775 295 c 1,8,9
 738 350 738 350 718 368 c 1,10,11
 672 278 672 278 585 208 c 1,12,13
 535 172 535 172 482 158 c 1,14,15
 432 140 432 140 370 140 c 0,16,17
 278 140 278 140 198 202 c 1,18,19
 122 265 122 265 122 358 c 0,20,21
 122 460 122 460 212 530 c 1,22,23
 305 598 305 598 418 598 c 0,24,25
 505 598 505 598 580 562 c 1,26,27
 638 530 638 530 712 470 c 1,28,29
 758 552 758 552 758 655 c 0,30,31
 758 798 758 798 655 918 c 1,32,33
 550 1038 550 1038 418 1038 c 0,34,35
 328 1038 328 1038 265 1002 c 1,36,37
 192 968 192 968 192 910 c 0,38,39
 192 892 192 892 202 875 c 1,40,41
 210 855 210 855 225 842 c 0,42,43
 248 820 248 820 252 815 c 0,44,45
 265 802 265 802 278 802 c 0,46,47
 325 802 325 802 368 860 c 1,48,49
 380 882 380 882 392 910 c 0,50,51
 405 940 405 940 418 975 c 1,52,53
 430 928 430 928 438 905 c 1,54,55
 442 885 442 885 442 865 c 0,56,57
 442 808 442 808 402 770 c 1,58,59
 362 738 362 738 300 738 c 0,60,61
 225 738 225 738 188 788 c 1,62,63
 150 835 150 835 150 910 c 0,64,65
 150 1025 150 1025 220 1090 c 1,66,67
 290 1158 290 1158 418 1158 c 0,68,69
 615 1158 615 1158 718 992 c 1,70,71
 802 860 802 860 802 655 c 0,72,73
 802 610 802 610 792 555 c 0,74,75
 782 505 782 505 752 425 c 1,76,-1
 825 350 l 2,77,78
 885 288 885 288 900 278 c 1,79,80
 985 205 985 205 1052 205 c 0,81,82
 1105 205 1105 205 1148.5 226.5 c 128,-1,83
 1192 248 1192 248 1220 295 c 1,84,85
 1238 240 1238 240 1238 212 c 0,0,1
678 412 m 1,86,87
 630 455 630 455 565 482 c 0,88,89
 500 508 500 508 418 508 c 0,90,91
 348 508 348 508 288 482 c 0,92,93
 198 442 198 442 198 375 c 0,94,95
 198 322 198 322 265 295 c 0,96,97
 305 278 305 278 392 278 c 0,98,99
 485 278 485 278 555 312 c 0,100,101
 625 345 625 345 678 412 c 1,86,87
EndSplineSet
Validated: 1
EndChar

StartChar: uni0CEA
Encoding: 104 3306 104
Width: 1345
GlyphClass: 2
Flags: W
LayerCount: 2
Fore
SplineSet
1225 848 m 0,0,1
 1225 662 1225 662 1110 562 c 1,2,3
 1020 478 1020 478 855 438 c 1,4,5
 900 400 900 400 922 358 c 0,6,7
 945 312 945 312 945 248 c 0,8,9
 945 118 945 118 882 55 c 1,10,11
 820 5 820 5 722 5 c 0,12,13
 495 5 495 5 495 225 c 0,14,15
 495 335 495 335 580 405 c 1,16,-1
 415 398 l 1,17,18
 302 398 302 398 232 460 c 1,19,20
 122 545 122 545 122 755 c 0,21,22
 122 918 122 918 205 1038 c 1,23,24
 288 1160 288 1160 415 1160 c 0,25,26
 530 1160 530 1160 608 1090 c 1,27,28
 688 1025 688 1025 688 912 c 0,29,30
 688 848 688 848 630 792 c 1,31,32
 565 718 565 718 488 718 c 0,33,34
 428 718 428 718 385 760 c 1,35,36
 340 802 340 802 340 868 c 0,37,38
 340 912 340 912 358 945 c 1,39,-1
 380 940 l 1,40,41
 380 895 380 895 415 865 c 128,-1,42
 450 835 450 835 488 835 c 0,43,44
 518 835 518 835 540 842 c 1,45,46
 565 848 565 848 590 860 c 0,47,48
 610 870 610 870 625 885 c 128,-1,49
 640 900 640 900 640 912 c 0,50,51
 640 972 640 972 580 1008 c 1,52,53
 518 1038 518 1038 415 1038 c 0,54,55
 305 1038 305 1038 248 948 c 1,56,57
 218 908 218 908 205 861.5 c 128,-1,58
 192 815 192 815 192 755 c 0,59,60
 192 665 192 665 282 608 c 1,61,62
 368 558 368 558 465 558 c 0,63,64
 545 558 545 558 615 545 c 0,65,66
 692 530 692 530 758 500 c 1,67,68
 845 535 845 535 900 562 c 0,69,70
 952 588 952 588 978 602 c 1,71,72
 1085 688 1085 688 1085 825 c 0,73,74
 1085 910 1085 910 1015 972 c 1,75,76
 950 1038 950 1038 865 1038 c 1,77,78
 905 1130 905 1130 980 1130 c 0,79,80
 1068 1130 1068 1130 1148 1045 c 1,81,82
 1225 965 1225 965 1225 848 c 0,0,1
895 270 m 0,83,84
 895 335 895 335 842 378 c 1,85,86
 785 420 785 420 722 420 c 0,87,88
 655 420 655 420 608 362 c 1,89,90
 568 315 568 315 568 270 c 0,91,92
 568 208 568 208 615 178 c 1,93,94
 662 145 662 145 722 145 c 0,95,96
 785 145 785 145 842 178 c 1,97,98
 895 210 895 210 895 270 c 0,83,84
EndSplineSet
Validated: 1
EndChar

StartChar: uni0CEB
Encoding: 105 3307 105
Width: 1450
GlyphClass: 2
Flags: W
LayerCount: 2
Fore
SplineSet
1328 202 m 1,0,1
 1328 128 1328 128 1275 65 c 1,2,3
 1220 5 1220 5 1168 5 c 1,4,-1
 1020 65 l 1,5,6
 1088 90 1088 90 1112 168 c 1,7,8
 1128 232 1128 232 1128 235 c 0,9,10
 1135 260 1135 260 1135 270 c 0,11,12
 1135 362 1135 362 1090 442 c 1,13,14
 1080 465 1080 465 1055 495 c 1,15,-1
 998 568 l 1,16,17
 950 560 950 560 900 555 c 1,18,19
 822 550 822 550 758 550 c 1,20,21
 758 295 758 295 615 140 c 1,22,23
 495 5 495 5 345 5 c 0,24,25
 230 5 230 5 175 60 c 1,26,27
 122 115 122 115 122 200 c 0,28,29
 122 365 122 365 288 488 c 1,30,31
 452 602 452 602 712 602 c 1,32,33
 712 822 712 822 615 922 c 1,34,35
 542 992 542 992 418 992 c 0,36,37
 328 992 328 992 260 962 c 1,38,39
 195 932 195 932 195 868 c 0,40,41
 195 838 195 838 242 810 c 1,42,43
 290 785 290 785 370 785 c 0,44,45
 390 785 390 785 415 790 c 2,46,-1
 465 798 l 1,47,48
 522 818 522 818 522 868 c 1,49,-1
 542 870 l 1,50,51
 558 850 558 850 558 828 c 0,52,53
 558 792 558 792 540 768 c 1,54,55
 522 740 522 740 492 718 c 1,56,57
 465 700 465 700 425 682 c 1,58,59
 388 672 388 672 345 672 c 0,60,61
 250 672 250 672 188 735 c 1,62,63
 122 795 122 795 122 890 c 0,64,65
 122 1005 122 1005 198 1078 c 1,66,67
 270 1160 270 1160 370 1160 c 0,68,69
 552 1160 552 1160 660 980 c 1,70,71
 758 822 758 822 758 602 c 1,72,73
 922 602 922 602 955 622 c 1,74,75
 910 678 910 678 882 735 c 1,76,77
 868 768 868 768 860 808 c 0,78,79
 852 852 852 852 852 890 c 0,80,81
 852 1008 852 1008 918 1082 c 1,82,83
 985 1160 985 1160 1100 1160 c 0,84,85
 1202 1160 1202 1160 1265 1075 c 1,86,87
 1328 998 1328 998 1328 890 c 0,88,89
 1328 775 1328 775 1250 690 c 1,90,91
 1192 630 1192 630 1065 585 c 1,92,93
 1122 538 1122 538 1162 499 c 128,-1,94
 1202 460 1202 460 1220 440 c 0,95,96
 1268 385 1268 385 1290 330 c 1,97,98
 1315 272 1315 272 1328 202 c 1,0,1
712 548 m 1,99,100
 532 532 532 532 412 478 c 1,101,102
 242 408 242 408 242 295 c 0,103,104
 242 145 242 145 392 145 c 0,105,106
 558 145 558 145 642 278 c 0,107,108
 712 390 712 390 712 548 c 1,99,100
1250 848 m 0,109,110
 1250 915 1250 915 1208 952 c 1,111,112
 1158 992 1158 992 1075 992 c 128,-1,113
 992 992 992 992 958 952 c 0,114,115
 922 910 922 910 922 825 c 0,116,117
 922 768 922 768 945 722 c 1,118,119
 968 680 968 680 1015 635 c 1,120,121
 1118 660 1118 660 1180 705 c 1,122,123
 1250 762 1250 762 1250 848 c 0,109,110
EndSplineSet
Validated: 1
EndChar

StartChar: uni0CEC
Encoding: 106 3308 106
Width: 1345
GlyphClass: 2
Flags: W
LayerCount: 2
Fore
SplineSet
1225 5 m 1,0,-1
 580 5 l 2,1,2
 352 5 352 5 255 98 c 1,3,4
 145 198 145 198 145 455 c 0,5,6
 145 552 145 552 175 625 c 1,7,8
 205 692 205 692 265 748 c 1,9,10
 302 820 302 820 302 895 c 0,11,12
 302 962 302 962 262 1008 c 1,13,14
 222 1048 222 1048 170 1048 c 0,15,16
 152 1048 152 1048 122 1032 c 1,17,18
 122 1098 122 1098 162 1140 c 1,19,20
 202 1185 202 1185 250 1185 c 0,21,22
 408 1185 408 1185 408 1008 c 0,23,24
 408 928 408 928 362 798 c 1,25,26
 392 818 392 818 438 828 c 1,27,28
 482 835 482 835 532 835 c 0,29,30
 758 835 758 835 758 640 c 0,31,32
 758 552 758 552 695 510 c 1,33,34
 635 465 635 465 532 465 c 0,35,36
 420 465 420 465 350 525 c 1,37,38
 288 575 288 575 265 650 c 1,39,40
 192 585 192 585 192 500 c 0,41,42
 192 358 192 358 318 278 c 1,43,44
 425 212 425 212 580 212 c 2,45,-1
 1225 212 l 1,46,-1
 1225 5 l 1,0,-1
710 640 m 0,47,48
 710 700 710 700 648 728 c 0,49,50
 612 745 612 745 532 745 c 0,51,52
 420 745 420 745 325 690 c 1,53,54
 328 642 328 642 370 608 c 1,55,56
 428 558 428 558 532 558 c 0,57,58
 558 558 558 558 592 562 c 1,59,60
 625 568 625 568 650 580 c 1,61,62
 672 588 672 588 692 602 c 1,63,64
 710 620 710 620 710 640 c 0,47,48
EndSplineSet
Validated: 1
EndChar

StartChar: uni0CED
Encoding: 107 3309 107
Width: 1450
GlyphClass: 2
Flags: W
LayerCount: 2
Fore
SplineSet
1328 5 m 1,0,-1
 440 5 l 2,1,2
 282 5 282 5 200 92 c 1,3,4
 122 170 122 170 122 270 c 0,5,6
 122 395 122 395 295 482 c 1,7,-1
 608 628 l 1,8,9
 780 722 780 722 780 848 c 0,10,11
 780 905 780 905 722 950 c 0,12,13
 660 998 660 998 608 998 c 0,14,15
 550 998 550 998 500 955 c 1,16,17
 452 912 452 912 452 857 c 128,-1,18
 452 802 452 802 495 765 c 1,19,-1
 482 745 l 1,20,21
 415 768 415 768 385 830 c 1,22,23
 358 890 358 890 358 960 c 0,24,25
 358 1052 358 1052 415 1118 c 1,26,27
 475 1185 475 1185 580 1185 c 0,28,29
 700 1185 700 1185 775 1115 c 0,30,31
 852 1042 852 1042 852 912 c 0,32,33
 852 745 852 745 705 638 c 1,34,35
 700 632 700 632 630 595 c 2,36,-1
 435 495 l 1,37,38
 288 422 288 422 288 340 c 0,39,40
 288 282 288 282 322 248 c 1,41,42
 352 212 352 212 440 212 c 2,43,-1
 1328 212 l 1,44,-1
 1328 5 l 1,0,-1
EndSplineSet
Validated: 1
EndChar

StartChar: uni0CEE
Encoding: 108 3310 108
Width: 1372
GlyphClass: 2
Flags: W
LayerCount: 2
Fore
SplineSet
1250 392 m 0,0,1
 1250 175 1250 175 1121 90 c 128,-1,2
 992 5 992 5 695 5 c 0,3,4
 442 5 442 5 272 228 c 1,5,6
 122 432 122 432 122 648 c 0,7,8
 122 832 122 832 198 975 c 1,9,10
 288 1150 288 1150 455 1150 c 0,11,12
 552 1150 552 1150 620 1060 c 1,13,14
 682 972 682 972 682 828 c 0,15,16
 682 740 682 740 625 674 c 128,-1,17
 568 608 568 608 472 608 c 0,18,19
 390 608 390 608 340 678 c 0,20,21
 295 740 295 740 295 838 c 0,22,23
 295 892 295 892 310 945 c 1,24,25
 250 905 250 905 218 818 c 1,26,27
 185 735 185 735 185 650 c 0,28,29
 185 440 185 440 352 318 c 1,30,31
 508 202 508 202 760 202 c 0,32,33
 960 202 960 202 1055 255 c 0,34,35
 1148 308 1148 308 1148 398 c 0,36,37
 1148 558 1148 558 992 700 c 1,38,39
 842 860 842 860 842 975 c 0,40,41
 842 1175 842 1175 1042 1175 c 2,42,-1
 1242 1175 l 1,43,-1
 1242 962 l 1,44,-1
 1042 962 l 2,45,46
 1002 962 1002 962 970 930 c 1,47,48
 938 900 938 900 938 855 c 0,49,50
 938 815 938 815 1092 672 c 1,51,52
 1250 535 1250 535 1250 392 c 0,0,1
608 882 m 0,53,54
 608 925 608 925 568 955 c 1,55,56
 525 985 525 985 478 985 c 0,57,58
 428 985 428 985 388 955 c 1,59,60
 350 925 350 925 350 882 c 0,61,62
 350 758 350 758 478 758 c 0,63,64
 552 758 552 758 580 790 c 128,-1,65
 608 822 608 822 608 882 c 0,53,54
EndSplineSet
Validated: 1
EndChar

StartChar: uni0CEF
Encoding: 109 3311 109
Width: 1345
GlyphClass: 2
Flags: W
LayerCount: 2
Fore
SplineSet
1225 972 m 1,0,-1
 602 972 l 2,1,2
 528 972 528 972 450 955 c 1,3,4
 375 935 375 935 328 905 c 0,5,6
 272 870 272 870 245 820 c 1,7,8
 215 770 215 770 215 705 c 0,9,10
 215 665 215 665 225 645 c 1,11,12
 278 712 278 712 353 748.5 c 128,-1,13
 428 785 428 785 510 785 c 0,14,15
 562 785 562 785 612 770 c 1,16,17
 660 758 660 758 700 735 c 1,18,19
 740 710 740 710 758 682 c 1,20,21
 780 650 780 650 780 618 c 0,22,23
 780 522 780 522 712 460 c 1,24,25
 642 398 642 398 532 398 c 0,26,27
 362 398 362 398 230 532 c 1,28,29
 220 512 220 512 215 490 c 0,30,31
 210 472 210 472 210 440 c 0,32,33
 210 422 210 422 210 415 c 1,34,35
 212 402 212 402 215 385 c 0,36,37
 230 300 230 300 300 232 c 1,38,39
 370 168 370 168 465 168 c 0,40,41
 505 168 505 168 548 195 c 1,42,43
 562 205 562 205 580 220 c 128,-1,44
 598 235 598 235 622 265 c 1,45,46
 658 260 658 260 673 237.5 c 128,-1,47
 688 215 688 215 688 180 c 0,48,49
 688 105 688 105 625 55 c 128,-1,50
 562 5 562 5 488 5 c 0,51,52
 352 5 352 5 260 88 c 0,53,54
 162 175 162 175 145 340 c 1,55,-1
 145 385 l 2,56,57
 145 498 145 498 190 580 c 1,58,59
 122 678 122 678 122 798 c 0,60,61
 122 960 122 960 270 1068 c 1,62,63
 415 1185 415 1185 602 1185 c 2,64,-1
 1225 1185 l 1,65,-1
 1225 972 l 1,0,-1
710 592 m 0,66,67
 710 650 710 650 665 672.5 c 128,-1,68
 620 695 620 695 532 695 c 0,69,70
 448 695 448 695 375 668 c 1,71,72
 305 638 305 638 260 585 c 1,73,74
 298 542 298 542 355 518 c 1,75,76
 410 488 410 488 488 488 c 2,77,-1
 528 488 l 2,78,79
 640 488 640 488 675 515 c 1,80,81
 710 540 710 540 710 592 c 0,66,67
EndSplineSet
Validated: 1
EndChar

StartChar: madhya_koMbu
Encoding: 110 -1 110
Width: 357
GlyphClass: 2
Flags: W
LayerCount: 2
Fore
SplineSet
162 422 m 1,0,1
 202 272 l 1,2,3
 230 182 230 182 230 112 c 0,4,5
 230 50 230 50 215 -20 c 1,6,7
 205 -85 205 -85 175 -152 c 1,8,9
 145 -215 145 -215 100 -267.5 c 128,-1,10
 55 -320 55 -320 -12 -352 c 1,11,12
 -88 -390 -88 -390 -180 -398 c 1,13,-1
 -248 -402 l 1,14,15
 -308 -402 -308 -402 -368 -390 c 0,16,17
 -460 -372 -460 -372 -545 -330 c 0,18,19
 -632 -288 -632 -288 -688 -215 c 1,20,21
 -752 -135 -752 -135 -780 -72 c 1,22,23
 -810 -15 -810 -15 -825 48 c 1,24,-1
 -775 48 l 1,25,26
 -738 -5 -738 -5 -690 -50 c 1,27,28
 -648 -95 -648 -95 -585 -150 c 1,29,30
 -535 -190 -535 -190 -478 -210 c 0,31,32
 -415 -232 -415 -232 -350 -238 c 1,33,34
 -322 -242 -322 -242 -295 -242 c 0,35,36
 -255 -242 -255 -242 -218 -238 c 0,37,38
 -155 -230 -155 -230 -90 -208 c 1,39,40
 25 -162 25 -162 68 -75 c 1,41,42
 110 18 110 18 112 132 c 0,43,44
 112 180 112 180 105 238 c 1,45,46
 100 310 100 310 70 435 c 1,47,48
 68 448 68 448 52 512 c 1,49,-1
 30 610 l 1,50,51
 15 682 15 682 10 715 c 0,52,53
 0 770 0 770 0 808 c 0,54,55
 0 842 0 842 15 872 c 1,56,57
 20 890 20 890 25 890 c 128,-1,58
 30 890 30 890 32 882 c 0,59,60
 65 758 65 758 100 650 c 1,61,62
 130 552 130 552 162 422 c 1,0,1
EndSplineSet
Validated: 1
EndChar

StartChar: madhya_koMbu_dIrgha
Encoding: 111 -1 111
Width: 1070
GlyphClass: 2
Flags: W
LayerCount: 2
Fore
SplineSet
945 402 m 1,0,1
 948 380 948 380 948 355 c 0,2,3
 948 300 948 300 935 242 c 1,4,5
 920 162 920 162 878 95 c 1,6,7
 840 32 840 32 768 -10 c 0,8,9
 700 -50 700 -50 598 -50 c 0,10,11
 550 -50 550 -50 507.5 -37.5 c 128,-1,12
 465 -25 465 -25 425 2 c 1,13,14
 388 25 388 25 364 70 c 128,-1,15
 340 115 340 115 340 175 c 0,16,17
 340 288 340 288 392 352 c 1,18,19
 442 418 442 418 540 418 c 0,20,21
 608 418 608 418 648 378 c 1,22,23
 690 340 690 340 690 265 c 0,24,25
 690 225 690 225 652 195 c 1,26,27
 615 162 615 162 568 162 c 0,28,29
 530 162 530 162 495 195 c 1,30,31
 460 225 460 225 460 265 c 128,-1,32
 460 305 460 305 465 332 c 1,33,34
 425 312 425 312 415 278 c 1,35,36
 398 242 398 242 398 198 c 0,37,38
 398 162 398 162 420 128 c 0,39,40
 438 100 438 100 470 82 c 1,41,42
 498 65 498 65 535 55 c 1,43,44
 570 48 570 48 608 48 c 0,45,46
 678 48 678 48 728 78 c 1,47,48
 780 112 780 112 812 162 c 1,49,50
 848 212 848 212 865 278 c 0,51,52
 882 345 882 345 882 405 c 0,53,54
 882 570 882 570 738 712 c 1,55,56
 598 855 598 855 398 855 c 0,57,58
 228 855 228 855 158 770 c 1,59,60
 90 690 90 690 90 528 c 0,61,62
 90 470 90 470 110 380 c 0,63,64
 130 292 130 292 152 218 c 1,65,66
 178 138 178 138 190 88 c 1,67,68
 198 38 198 38 198 8 c 0,69,70
 198 -135 198 -135 140 -227.5 c 128,-1,71
 82 -320 82 -320 -65 -370 c 1,72,73
 -170 -408 -170 -408 -265 -408 c 0,74,75
 -338 -408 -338 -408 -402 -385 c 1,76,77
 -552 -340 -552 -340 -688 -212 c 1,78,79
 -750 -140 -750 -140 -781 -74 c 128,-1,80
 -812 -8 -812 -8 -825 42 c 1,81,-1
 -820 42 l 1,82,-1
 -820 48 l 1,83,-1
 -772 48 l 1,84,85
 -758 10 -758 10 -725 -32 c 0,86,87
 -690 -75 -690 -75 -642 -115 c 1,88,-1
 -642 -118 l 1,89,90
 -528 -202 -528 -202 -390 -228 c 1,91,-1
 -282 -238 l 1,92,93
 -198 -238 -198 -238 -112 -212 c 0,94,95
 -48 -192 -48 -192 -2 -165 c 0,96,97
 40 -140 40 -140 60 -100 c 1,98,99
 82 -65 82 -65 88 -18 c 0,100,101
 90 5 90 5 90 32.5 c 128,-1,102
 90 60 90 60 88 90 c 1,103,104
 82 145 82 145 70 215 c 1,105,-1
 42 362 l 1,106,107
 30 440 30 440 20 512 c 1,108,109
 12 598 12 598 12 640 c 0,110,111
 12 830 12 830 113.5 934 c 128,-1,112
 215 1038 215 1038 398 1038 c 0,113,114
 648 1038 648 1038 798 830 c 1,115,116
 865 740 865 740 902.5 637.5 c 128,-1,117
 940 535 940 535 945 402 c 1,0,1
EndSplineSet
Validated: 1
EndChar

